<svg width="105" height="68" viewBox="0 0 105 68" fill="none" xmlns="http://www.w3.org/2000/svg">
<path d="M24.8026 35.7471V59.9711H17.7923L10.2682 46.8681L8.43304 43.2712H8.39634L8.54315 47.749V59.9711H2.9643V35.7471H9.97457L17.4987 48.8501L19.3338 52.447H19.3705L19.2237 47.9692V35.7471H24.8026ZM40.299 35.3801C42.7458 35.3801 44.8502 35.8817 46.6119 36.8849C48.3981 37.8636 49.7684 39.2828 50.7226 41.1424C51.6769 43.0021 52.154 45.2409 52.154 47.8591C52.154 50.4772 51.6769 52.7161 50.7226 54.5757C49.7684 56.4353 48.3981 57.8668 46.6119 58.87C44.8502 59.8487 42.7458 60.3381 40.299 60.3381C37.8521 60.3381 35.7356 59.8487 33.9494 58.87C32.1632 57.8668 30.7929 56.4353 29.8386 54.5757C28.8844 52.7161 28.4072 50.4772 28.4072 47.8591C28.4072 45.2409 28.8844 43.0021 29.8386 41.1424C30.7929 39.2828 32.1632 37.8636 33.9494 36.8849C35.7356 35.8817 37.8521 35.3801 40.299 35.3801ZM40.299 40.335C39.1245 40.335 38.1335 40.6164 37.326 41.1791C36.5186 41.7419 35.9069 42.5861 35.4909 43.7116C35.0749 44.8127 34.8669 46.1952 34.8669 47.8591C34.8669 49.4985 35.0749 50.881 35.4909 52.0065C35.9069 53.1321 36.5186 53.9762 37.326 54.539C38.1335 55.1018 39.1245 55.3832 40.299 55.3832C41.4735 55.3832 42.4522 55.1018 43.2352 54.539C44.0427 53.9762 44.6544 53.1321 45.0704 52.0065C45.4863 50.881 45.6943 49.4985 45.6943 47.8591C45.6943 46.1952 45.4863 44.8127 45.0704 43.7116C44.6544 42.5861 44.0427 41.7419 43.2352 41.1791C42.4522 40.6164 41.4735 40.335 40.299 40.335ZM66.6262 35.3801C69.0731 35.3801 71.1774 35.8817 72.9391 36.8849C74.7253 37.8636 76.0956 39.2828 77.0499 41.1424C78.0041 43.0021 78.4813 45.2409 78.4813 47.8591C78.4813 50.4772 78.0041 52.7161 77.0499 54.5757C76.0956 56.4353 74.7253 57.8668 72.9391 58.87C71.1774 59.8487 69.0731 60.3381 66.6262 60.3381C64.1793 60.3381 62.0628 59.8487 60.2766 58.87C58.4904 57.8668 57.1201 56.4353 56.1659 54.5757C55.2116 52.7161 54.7344 50.4772 54.7344 47.8591C54.7344 45.2409 55.2116 43.0021 56.1659 41.1424C57.1201 39.2828 58.4904 37.8636 60.2766 36.8849C62.0628 35.8817 64.1793 35.3801 66.6262 35.3801ZM66.6262 40.335C65.4517 40.335 64.4607 40.6164 63.6533 41.1791C62.8458 41.7419 62.2341 42.5861 61.8181 43.7116C61.4021 44.8127 61.1942 46.1952 61.1942 47.8591C61.1942 49.4985 61.4021 50.881 61.8181 52.0065C62.2341 53.1321 62.8458 53.9762 63.6533 54.539C64.4607 55.1018 65.4517 55.3832 66.6262 55.3832C67.8007 55.3832 68.7794 55.1018 69.5624 54.539C70.3699 53.9762 70.9816 53.1321 71.3976 52.0065C71.8136 50.881 72.0215 49.4985 72.0215 47.8591C72.0215 46.1952 71.8136 44.8127 71.3976 43.7116C70.9816 42.5861 70.3699 41.7419 69.5624 41.1791C68.7794 40.6164 67.8007 40.335 66.6262 40.335ZM93.6508 35.7471C96.5381 35.7471 98.777 36.4322 100.367 37.8025C101.982 39.1482 102.79 40.9467 102.79 43.1978C102.79 45.6691 101.995 47.5532 100.404 48.8501C98.8137 50.1469 96.5748 50.7953 93.6875 50.7953L93.1002 51.1256H88.2922V59.9711H82.0893V35.7471H93.6508ZM92.7699 46.6479C93.9933 46.6479 94.9109 46.4032 95.5226 45.9138C96.1344 45.4245 96.4402 44.6415 96.4402 43.5648C96.4402 42.5127 96.1344 41.7419 95.5226 41.2525C94.9109 40.7632 93.9933 40.5185 92.7699 40.5185H88.2922V46.6479H92.7699ZM96.4769 47.9692L104.221 59.9711H97.2477L91.0449 49.3639L96.4769 47.9692Z" fill="#22C37A"/>
<path d="M64.5528 17.1879L64.8288 18.8788C64.7828 18.8788 64.731 18.8788 64.6735 18.8788C64.6275 18.8673 64.5758 18.8616 64.5182 18.8616C63.9891 18.8616 63.5923 18.9824 63.3277 19.2239C63.0631 19.454 62.9309 19.7761 62.9309 20.1902L61.9646 19.7933C61.9646 19.3332 62.0566 18.9076 62.2407 18.5165C62.4247 18.1139 62.6951 17.7918 63.0516 17.5503C63.4197 17.3087 63.8568 17.1879 64.363 17.1879C64.386 17.1879 64.4147 17.1879 64.4492 17.1879C64.4837 17.1879 64.5182 17.1879 64.5528 17.1879ZM61.7231 26.2464C62.6548 26.2464 63.3737 26.4477 63.8798 26.8503C64.386 27.2529 64.639 27.8165 64.639 28.5412C64.639 29.1969 64.4492 29.749 64.0696 30.1976C63.69 30.6577 63.1552 31.0028 62.465 31.2329C61.7863 31.4629 60.9984 31.5779 60.1012 31.5779C58.6173 31.5779 57.5303 31.3709 56.8401 30.9568C56.1615 30.5427 55.8221 30.0021 55.8221 29.3349C55.8221 28.8633 56.0004 28.4664 56.357 28.1444C56.7251 27.8223 57.329 27.644 58.1687 27.6095L58.0824 27.8855C57.4843 27.782 57.0242 27.5865 56.7021 27.2989C56.3915 26.9998 56.2362 26.5915 56.2362 26.0738C56.2362 25.5447 56.4375 25.1134 56.8401 24.7798C57.2542 24.4347 57.8121 24.2334 58.5138 24.1759L59.549 24.659H59.3075C58.8129 24.6935 58.462 24.797 58.255 24.9696C58.0594 25.1306 57.9616 25.3147 57.9616 25.5217C57.9616 25.7633 58.0537 25.9473 58.2377 26.0738C58.4333 26.1889 58.7093 26.2464 59.0659 26.2464H61.7231ZM60.1184 29.956C60.7166 29.956 61.2054 29.9043 61.585 29.8008C61.9761 29.6972 62.2637 29.565 62.4477 29.4039C62.6433 29.2429 62.7411 29.0646 62.7411 28.869C62.7411 28.6505 62.6548 28.4722 62.4822 28.3341C62.3097 28.2076 61.9991 28.1444 61.5505 28.1444H58.6346C58.3585 28.1444 58.1284 28.2134 57.9444 28.3514C57.7718 28.4894 57.6856 28.6792 57.6856 28.9208C57.6856 29.2429 57.8984 29.4959 58.324 29.68C58.7611 29.864 59.3592 29.956 60.1184 29.956ZM60.1357 19.0686C60.9409 19.0686 61.6368 19.1894 62.2234 19.431C62.8216 19.661 63.2759 19.9946 63.5865 20.4317C63.9086 20.8688 64.0696 21.3922 64.0696 22.0019C64.0696 22.6 63.9086 23.1176 63.5865 23.5547C63.2759 23.9918 62.8216 24.3312 62.2234 24.5727C61.6368 24.8028 60.9409 24.9178 60.1357 24.9178C58.8589 24.9178 57.8811 24.659 57.2025 24.1414C56.5353 23.6122 56.2017 22.8991 56.2017 22.0019C56.2017 21.3922 56.357 20.8688 56.6676 20.4317C56.9897 19.9946 57.444 19.661 58.0307 19.431C58.6173 19.1894 59.319 19.0686 60.1357 19.0686ZM60.1357 20.5525C59.6756 20.5525 59.296 20.679 58.9969 20.9321C58.6978 21.1852 58.5483 21.536 58.5483 21.9846C58.5483 22.4332 58.6978 22.7898 58.9969 23.0544C59.296 23.3074 59.6756 23.434 60.1357 23.434C60.5958 23.434 60.9696 23.3074 61.2572 23.0544C61.5563 22.7898 61.7058 22.4332 61.7058 21.9846C61.7058 21.536 61.5563 21.1852 61.2572 20.9321C60.9696 20.679 60.5958 20.5525 60.1357 20.5525ZM67.3622 15.4625V25.2111C67.3622 25.6137 67.4312 25.8956 67.5693 26.0566C67.7073 26.2176 67.9374 26.2982 68.2594 26.2982C68.455 26.2982 68.616 26.2867 68.7426 26.2636C68.8691 26.2291 69.0301 26.1831 69.2257 26.1256L69.0186 27.6785C68.8231 27.7935 68.5758 27.8798 68.2767 27.9373C67.9891 28.0063 67.7016 28.0408 67.414 28.0408C66.5743 28.0408 65.9589 27.8395 65.5678 27.4369C65.1882 27.0228 64.9984 26.3672 64.9984 25.47V15.4625H67.3622ZM73.4415 19.0686C74.3157 19.0686 75.0807 19.2469 75.7363 19.6035C76.4035 19.9601 76.9211 20.472 77.2892 21.1391C77.6688 21.8063 77.8586 22.6115 77.8586 23.5547C77.8586 24.4865 77.6688 25.2917 77.2892 25.9703C76.9211 26.6375 76.4035 27.1494 75.7363 27.5059C75.0807 27.8625 74.3157 28.0408 73.4415 28.0408C72.5788 28.0408 71.8139 27.8625 71.1467 27.5059C70.4795 27.1494 69.9562 26.6375 69.5766 25.9703C69.2085 25.2917 69.0244 24.4865 69.0244 23.5547C69.0244 22.6115 69.2085 21.8063 69.5766 21.1391C69.9562 20.472 70.4795 19.9601 71.1467 19.6035C71.8139 19.2469 72.5788 19.0686 73.4415 19.0686ZM73.4415 20.8286C73.0044 20.8286 72.6306 20.9321 72.32 21.1391C72.0209 21.3347 71.7909 21.6338 71.6298 22.0364C71.4688 22.439 71.3883 22.9451 71.3883 23.5547C71.3883 24.1644 71.4688 24.6705 71.6298 25.0731C71.7909 25.4757 72.0209 25.7805 72.32 25.9876C72.6306 26.1831 73.0044 26.2809 73.4415 26.2809C73.8671 26.2809 74.2294 26.1831 74.5285 25.9876C74.8391 25.7805 75.0749 25.4757 75.2359 25.0731C75.397 24.6705 75.4775 24.1644 75.4775 23.5547C75.4775 22.9451 75.397 22.439 75.2359 22.0364C75.0749 21.6338 74.8391 21.3347 74.5285 21.1391C74.2294 20.9321 73.8671 20.8286 73.4415 20.8286ZM83.874 28.0408C83.3448 28.0408 82.8617 27.9316 82.4246 27.713C81.999 27.4829 81.6424 27.1724 81.3549 26.7813C81.0788 26.3787 80.889 25.9301 80.7855 25.4354L81.027 25.1249L80.889 27.8683H78.8012V15.4625H81.1651V21.674L80.9408 21.3117C81.1248 20.6675 81.4756 20.1326 81.9933 19.707C82.5109 19.2814 83.1608 19.0686 83.943 19.0686C84.6216 19.0686 85.2371 19.2469 85.7892 19.6035C86.3413 19.9601 86.7727 20.472 87.0833 21.1391C87.4053 21.8063 87.5664 22.6173 87.5664 23.572C87.5664 24.5037 87.4053 25.3032 87.0833 25.9703C86.7727 26.6375 86.3356 27.1494 85.7719 27.5059C85.2198 27.8625 84.5871 28.0408 83.874 28.0408ZM83.1665 26.2291C83.7992 26.2291 84.2938 26.0048 84.6504 25.5562C85.0185 25.0961 85.2025 24.4289 85.2025 23.5547C85.2025 22.6805 85.0242 22.0191 84.6677 21.5705C84.3111 21.1104 83.8165 20.8803 83.1838 20.8803C82.7697 20.8803 82.4131 20.9896 82.114 21.2082C81.815 21.4267 81.5792 21.7373 81.4066 22.1399C81.2456 22.5425 81.1651 23.0199 81.1651 23.572C81.1651 24.1356 81.2456 24.6187 81.4066 25.0213C81.5792 25.4124 81.815 25.7115 82.114 25.9186C82.4246 26.1256 82.7754 26.2291 83.1665 26.2291ZM93.4505 22.3642C93.4505 21.8696 93.3067 21.4842 93.0191 21.2082C92.743 20.9321 92.3749 20.7941 91.9148 20.7941C91.4892 20.7941 91.1154 20.9033 90.7933 21.1219C90.4712 21.3404 90.2354 21.7028 90.0859 22.2089L88.0671 21.5878C88.2627 20.8286 88.6883 20.2189 89.344 19.7588C90.0111 19.2987 90.9026 19.0686 92.0184 19.0686C92.7775 19.0686 93.439 19.1894 94.0026 19.431C94.5662 19.661 95.0033 20.0119 95.3139 20.4835C95.636 20.9551 95.797 21.5475 95.797 22.2607V25.7633C95.797 26.2004 96.0041 26.4189 96.4182 26.4189C96.6137 26.4189 96.7978 26.3902 96.9703 26.3327L96.8323 27.7993C96.5332 27.9488 96.1594 28.0236 95.7108 28.0236C95.3082 28.0236 94.9458 27.9546 94.6237 27.8165C94.3017 27.6785 94.0486 27.4714 93.8646 27.1954C93.6805 26.9078 93.5885 26.5512 93.5885 26.1256V26.0566L94.0026 25.9876C93.9336 26.4247 93.7438 26.7985 93.4332 27.1091C93.1226 27.4082 92.743 27.6382 92.2944 27.7993C91.8573 27.9603 91.403 28.0408 90.9313 28.0408C90.3447 28.0408 89.8386 27.9546 89.413 27.782C88.9874 27.598 88.6595 27.3334 88.4295 26.9883C88.1994 26.6432 88.0844 26.2176 88.0844 25.7115C88.0844 25.0674 88.2915 24.544 88.7056 24.1414C89.1197 23.7273 89.712 23.4455 90.4827 23.2959L93.7265 22.6403L93.7093 24.1069L91.6388 24.521C91.2477 24.6015 90.9486 24.7108 90.7415 24.8488C90.546 24.9753 90.4482 25.1881 90.4482 25.4872C90.4482 25.7748 90.5518 25.9933 90.7588 26.1429C90.9774 26.2924 91.2362 26.3672 91.5352 26.3672C91.7768 26.3672 92.0126 26.3384 92.2427 26.2809C92.4727 26.2234 92.6798 26.1314 92.8638 26.0048C93.0479 25.8783 93.1916 25.7058 93.2952 25.4872C93.3987 25.2687 93.4505 25.0041 93.4505 24.6935V22.3642ZM99.7348 15.4625V25.2111C99.7348 25.6137 99.8038 25.8956 99.9418 26.0566C100.08 26.2176 100.31 26.2982 100.632 26.2982C100.828 26.2982 100.989 26.2867 101.115 26.2636C101.242 26.2291 101.403 26.1831 101.598 26.1256L101.391 27.6785C101.196 27.7935 100.948 27.8798 100.649 27.9373C100.362 28.0063 100.074 28.0408 99.7865 28.0408C98.9468 28.0408 98.3314 27.8395 97.9403 27.4369C97.5607 27.0228 97.3709 26.3672 97.3709 25.47V15.4625H99.7348Z" fill="#22C37A"/>
<g clip-path="url(#clip0_4954_11791)">
<path d="M24.6017 11.3701C23.5001 11.3701 22.6943 10.3259 22.9715 9.25593L25.1705 0.752632C25.2849 0.309117 25.6837 0 26.1402 0C26.5967 0 26.9955 0.309117 27.1098 0.752632L29.3088 9.25593C29.586 10.3259 28.7802 11.3701 27.6786 11.3701H24.6017Z" fill="#F5BB3D"/>
<path d="M24.6017 39.7096C23.5001 39.7096 22.6943 40.7538 22.9715 41.8238L25.1705 50.3271C25.2849 50.7706 25.6837 51.0797 26.1402 51.0797C26.5967 51.0797 26.9955 50.7706 27.1098 50.3271L29.3088 41.8238C29.586 40.7538 28.7802 39.7096 27.6786 39.7096H24.6017Z" fill="#F5BB3D"/>
<path d="M40.2637 23.9964C40.2637 22.8912 41.3045 22.0827 42.371 22.3608L50.8466 24.567C51.2886 24.6818 51.5967 25.0819 51.5967 25.5399C51.5967 25.9979 51.2886 26.398 50.8466 26.5127L42.371 28.7189C41.3045 28.997 40.2637 28.1886 40.2637 27.0834V23.9964Z" fill="#F5BB3D"/>
<path d="M12.0166 23.9964C12.0166 22.8912 10.9759 22.0827 9.90933 22.3608L1.43377 24.567C0.991702 24.6818 0.683594 25.0819 0.683594 25.5399C0.683594 25.9979 0.991702 26.398 1.43377 26.5127L9.90933 28.7189C10.9759 28.997 12.0166 28.1886 12.0166 27.0834V23.9964Z" fill="#F5BB3D"/>
<path d="M37.2146 16.6117L35.0392 14.4292C34.2602 13.6477 34.4261 12.3378 35.3762 11.7775L42.9233 7.32472C43.317 7.09211 43.8167 7.15621 44.1393 7.48083C44.4618 7.80442 44.5257 8.30687 44.2949 8.70076L39.8567 16.2726C39.2982 17.2258 37.9926 17.3932 37.2135 16.6106L37.2146 16.6117Z" fill="#F5BB3D"/>
<path d="M17.2411 36.6505L15.0658 34.4681C14.2867 33.6865 12.9811 33.8529 12.4226 34.8061L7.98443 42.3779C7.75257 42.7729 7.81646 43.2743 8.14003 43.5979C8.46256 43.9215 8.96337 43.9856 9.35598 43.754L16.9031 39.3013C17.8532 38.7409 18.0201 37.431 17.2401 36.6495L17.2411 36.6505Z" fill="#F5BB3D"/>
<path d="M35.0392 36.6505L37.2146 34.4681C37.9936 33.6865 39.2992 33.8529 39.8577 34.8061L44.2959 42.3779C44.5278 42.7729 44.4639 43.2743 44.1403 43.5979C43.8178 43.9215 43.317 43.9856 42.9244 43.754L35.3772 39.3013C34.4272 38.7409 34.2602 37.431 35.0403 36.6495L35.0392 36.6505Z" fill="#F5BB3D"/>
<path d="M15.0658 16.6117L17.2411 14.4292C18.0201 13.6477 17.8542 12.3378 16.9041 11.7775L9.35701 7.32472C8.96337 7.09211 8.46359 7.15621 8.14106 7.48083C7.81852 7.80442 7.75463 8.30687 7.98546 8.70076L12.4237 16.2726C12.9822 17.2258 14.2878 17.3932 15.0668 16.6106L15.0658 16.6117Z" fill="#F5BB3D"/>
<path d="M26.3195 37.0507C32.5571 37.0507 37.6136 31.9776 37.6136 25.7196C37.6136 19.4616 32.5571 14.3885 26.3195 14.3885C20.0819 14.3885 15.0254 19.4616 15.0254 25.7196C15.0254 31.9776 20.0819 37.0507 26.3195 37.0507Z" fill="#F5BB3D"/>
</g>
<defs>
<clipPath id="clip0_4954_11791">
<rect width="50.9131" height="29.137" fill="white" transform="translate(0.683594)"/>
</clipPath>
</defs>
</svg>
