<svg width="105" height="70" viewBox="0 0 105 70" fill="none" xmlns="http://www.w3.org/2000/svg">
<path d="M69.4935 55.7112L69.7501 57.2828C69.7073 57.2828 69.6592 57.2828 69.6057 57.2828C69.563 57.2721 69.5148 57.2668 69.4614 57.2668C68.9696 57.2668 68.6007 57.3791 68.3548 57.6036C68.1089 57.8174 67.9859 58.1168 67.9859 58.5017L67.0878 58.1328C67.0878 57.7051 67.1734 57.3096 67.3444 56.946C67.5155 56.5718 67.7668 56.2725 68.0982 56.048C68.4403 55.8234 68.8466 55.7112 69.317 55.7112C69.3384 55.7112 69.3652 55.7112 69.3972 55.7112C69.4293 55.7112 69.4614 55.7112 69.4935 55.7112ZM66.8633 64.1308C67.7293 64.1308 68.3976 64.3179 68.868 64.6921C69.3384 65.0663 69.5736 65.5902 69.5736 66.2638C69.5736 66.8732 69.3972 67.3864 69.0444 67.8034C68.6916 68.231 68.1944 68.5518 67.5529 68.7656C66.9221 68.9794 66.1898 69.0863 65.3558 69.0863C63.9766 69.0863 62.9662 68.8939 62.3247 68.509C61.6939 68.1241 61.3785 67.6216 61.3785 67.0015C61.3785 66.5631 61.5443 66.1943 61.8757 65.8949C62.2178 65.5955 62.7791 65.4298 63.5596 65.3977L63.4794 65.6543C62.9235 65.5581 62.4958 65.3764 62.1964 65.1091C61.9078 64.8311 61.7634 64.4515 61.7634 63.9704C61.7634 63.4786 61.9505 63.0777 62.3247 62.7676C62.7096 62.4469 63.2282 62.2598 63.8804 62.2063L64.8426 62.6554H64.6181C64.1584 62.6874 63.8323 62.7837 63.6398 62.944C63.4581 63.0937 63.3672 63.2648 63.3672 63.4572C63.3672 63.6817 63.4527 63.8528 63.6238 63.9704C63.8055 64.0773 64.0621 64.1308 64.3936 64.1308H66.8633ZM65.3718 67.5788C65.9278 67.5788 66.3822 67.5307 66.735 67.4345C67.0985 67.3383 67.3658 67.2153 67.5369 67.0656C67.7187 66.916 67.8095 66.7502 67.8095 66.5685C67.8095 66.3653 67.7293 66.1996 67.569 66.0713C67.4086 65.9537 67.1199 65.8949 66.703 65.8949H63.9926C63.736 65.8949 63.5222 65.9591 63.3511 66.0874C63.1908 66.2157 63.1106 66.3921 63.1106 66.6166C63.1106 66.916 63.3084 67.1512 63.704 67.3222C64.1102 67.4933 64.6662 67.5788 65.3718 67.5788ZM65.3879 57.4592C66.1363 57.4592 66.7831 57.5715 67.3284 57.796C67.8844 58.0099 68.3067 58.3199 68.5954 58.7262C68.8947 59.1325 69.0444 59.6189 69.0444 60.1856C69.0444 60.7416 68.8947 61.2227 68.5954 61.629C68.3067 62.0352 67.8844 62.3506 67.3284 62.5752C66.7831 62.789 66.1363 62.8959 65.3879 62.8959C64.2011 62.8959 63.2923 62.6554 62.6615 62.1742C62.0414 61.6824 61.7314 61.0195 61.7314 60.1856C61.7314 59.6189 61.8757 59.1325 62.1644 58.7262C62.4637 58.3199 62.8861 58.0099 63.4313 57.796C63.9766 57.5715 64.6288 57.4592 65.3879 57.4592ZM65.3879 58.8385C64.9602 58.8385 64.6074 58.9561 64.3294 59.1913C64.0514 59.4265 63.9124 59.7526 63.9124 60.1696C63.9124 60.5865 64.0514 60.918 64.3294 61.1639C64.6074 61.3991 64.9602 61.5167 65.3879 61.5167C65.8155 61.5167 66.163 61.3991 66.4303 61.1639C66.7083 60.918 66.8473 60.5865 66.8473 60.1696C66.8473 59.7526 66.7083 59.4265 66.4303 59.1913C66.163 58.9561 65.8155 58.8385 65.3879 58.8385ZM72.1048 54.1074V63.1685C72.1048 63.5428 72.1689 63.8047 72.2972 63.9544C72.4255 64.1041 72.6394 64.1789 72.9387 64.1789C73.1205 64.1789 73.2702 64.1682 73.3878 64.1468C73.5054 64.1148 73.6551 64.072 73.8368 64.0185L73.6444 65.4619C73.4626 65.5688 73.2328 65.649 72.9548 65.7025C72.6875 65.7666 72.4202 65.7987 72.1529 65.7987C71.3724 65.7987 70.8004 65.6116 70.4369 65.2374C70.0841 64.8525 69.9077 64.2431 69.9077 63.4091V54.1074H72.1048ZM77.7553 57.4592C78.5679 57.4592 79.2789 57.625 79.8883 57.9564C80.5084 58.2878 80.9895 58.7636 81.3317 59.3837C81.6845 60.0038 81.8609 60.7523 81.8609 61.629C81.8609 62.495 81.6845 63.2434 81.3317 63.8742C80.9895 64.4943 80.5084 64.9701 79.8883 65.3015C79.2789 65.633 78.5679 65.7987 77.7553 65.7987C76.9535 65.7987 76.2425 65.633 75.6224 65.3015C75.0023 64.9701 74.5158 64.4943 74.163 63.8742C73.8208 63.2434 73.6498 62.495 73.6498 61.629C73.6498 60.7523 73.8208 60.0038 74.163 59.3837C74.5158 58.7636 75.0023 58.2878 75.6224 57.9564C76.2425 57.625 76.9535 57.4592 77.7553 57.4592ZM77.7553 59.0951C77.3491 59.0951 77.0016 59.1913 76.7129 59.3837C76.4349 59.5655 76.2211 59.8435 76.0714 60.2177C75.9217 60.5919 75.8469 61.0623 75.8469 61.629C75.8469 62.1956 75.9217 62.666 76.0714 63.0403C76.2211 63.4145 76.4349 63.6978 76.7129 63.8902C77.0016 64.072 77.3491 64.1629 77.7553 64.1629C78.1509 64.1629 78.4877 64.072 78.7657 63.8902C79.0544 63.6978 79.2735 63.4145 79.4232 63.0403C79.5729 62.666 79.6477 62.1956 79.6477 61.629C79.6477 61.0623 79.5729 60.5919 79.4232 60.2177C79.2735 59.8435 79.0544 59.5655 78.7657 59.3837C78.4877 59.1913 78.1509 59.0951 77.7553 59.0951ZM87.4521 65.7987C86.9603 65.7987 86.5112 65.6971 86.1049 65.494C85.7093 65.2801 85.3779 64.9915 85.1106 64.628C84.854 64.2537 84.6776 63.8368 84.5814 63.377L84.8059 63.0884L84.6776 65.6383H82.7371V54.1074H84.9342V59.8809L84.7257 59.5441C84.8968 58.9454 85.2229 58.4482 85.704 58.0526C86.1851 57.657 86.7892 57.4592 87.5162 57.4592C88.147 57.4592 88.719 57.625 89.2322 57.9564C89.7454 58.2878 90.1463 58.7636 90.435 59.3837C90.7344 60.0038 90.8841 60.7576 90.8841 61.645C90.8841 62.511 90.7344 63.2541 90.435 63.8742C90.1463 64.4943 89.7401 64.9701 89.2162 65.3015C88.703 65.633 88.1149 65.7987 87.4521 65.7987ZM86.7945 64.1148C87.3826 64.1148 87.8423 63.9063 88.1737 63.4893C88.5159 63.0616 88.6869 62.4415 88.6869 61.629C88.6869 60.8164 88.5212 60.2016 88.1898 59.7847C87.8583 59.357 87.3986 59.1432 86.8106 59.1432C86.4257 59.1432 86.0942 59.2447 85.8163 59.4479C85.5383 59.651 85.3191 59.9397 85.1587 60.3139C85.009 60.6881 84.9342 61.1318 84.9342 61.645C84.9342 62.1689 85.009 62.6179 85.1587 62.9921C85.3191 63.3557 85.5383 63.6336 85.8163 63.8261C86.1049 64.0185 86.431 64.1148 86.7945 64.1148ZM96.3532 60.5224C96.3532 60.0626 96.2195 59.7045 95.9523 59.4479C95.6957 59.1913 95.3535 59.063 94.9259 59.063C94.5303 59.063 94.1828 59.1645 93.8834 59.3677C93.5841 59.5708 93.3649 59.9076 93.2259 60.378L91.3495 59.8007C91.5313 59.0951 91.9269 58.5284 92.5363 58.1007C93.1564 57.6731 93.985 57.4592 95.0221 57.4592C95.7277 57.4592 96.3425 57.5715 96.8664 57.796C97.3903 58.0099 97.7965 58.336 98.0852 58.7743C98.3846 59.2127 98.5343 59.7633 98.5343 60.4262V63.6817C98.5343 64.088 98.7267 64.2912 99.1116 64.2912C99.2934 64.2912 99.4644 64.2644 99.6248 64.211L99.4965 65.5742C99.2185 65.7131 98.8711 65.7826 98.4541 65.7826C98.0799 65.7826 97.7431 65.7185 97.4437 65.5902C97.1444 65.4619 96.9091 65.2694 96.7381 65.0128C96.567 64.7456 96.4815 64.4141 96.4815 64.0185V63.9544L96.8664 63.8902C96.8022 64.2965 96.6258 64.644 96.3371 64.9327C96.0485 65.2106 95.6957 65.4245 95.2787 65.5742C94.8724 65.7238 94.4501 65.7987 94.0117 65.7987C93.4665 65.7987 92.996 65.7185 92.6004 65.5581C92.2048 65.3871 91.9001 65.1411 91.6863 64.8204C91.4725 64.4997 91.3656 64.1041 91.3656 63.6336C91.3656 63.0349 91.558 62.5484 91.9429 62.1742C92.3278 61.7893 92.8784 61.5274 93.5948 61.3884L96.6098 60.779L96.5937 62.1422L94.6693 62.5271C94.3057 62.6019 94.0278 62.7035 93.8353 62.8318C93.6536 62.9494 93.5627 63.1472 93.5627 63.4251C93.5627 63.6924 93.6589 63.8956 93.8514 64.0346C94.0545 64.1736 94.2951 64.2431 94.573 64.2431C94.7976 64.2431 95.0167 64.2163 95.2306 64.1629C95.4444 64.1094 95.6368 64.0239 95.8079 63.9063C95.979 63.7887 96.1126 63.6283 96.2088 63.4251C96.3051 63.222 96.3532 62.9761 96.3532 62.6874V60.5224ZM102.194 54.1074V63.1685C102.194 63.5428 102.258 63.8047 102.387 63.9544C102.515 64.1041 102.729 64.1789 103.028 64.1789C103.21 64.1789 103.36 64.1682 103.477 64.1468C103.595 64.1148 103.745 64.072 103.926 64.0185L103.734 65.4619C103.552 65.5688 103.322 65.649 103.044 65.7025C102.777 65.7666 102.51 65.7987 102.242 65.7987C101.462 65.7987 100.89 65.6116 100.526 65.2374C100.174 64.8525 99.9972 64.2431 99.9972 63.4091V54.1074H102.194Z" fill="#22C37A"/>
<g clip-path="url(#clip0_4954_11821)">
<path d="M31.5691 11.0427C30.4993 11.0427 29.7167 10.0286 29.9859 8.98937L32.1216 0.730958C32.2326 0.300215 32.62 0 33.0633 0C33.5066 0 33.894 0.300215 34.005 0.730958L36.1407 8.98937C36.4099 10.0286 35.6273 11.0427 34.5575 11.0427H31.5691Z" fill="#F5BB3D"/>
<path d="M31.5691 38.566C30.4993 38.566 29.7167 39.5802 29.9859 40.6194L32.1216 48.8778C32.2326 49.3085 32.62 49.6087 33.0633 49.6087C33.5066 49.6087 33.894 49.3085 34.005 48.8778L36.1407 40.6194C36.4099 39.5802 35.6273 38.566 34.5575 38.566H31.5691Z" fill="#F5BB3D"/>
<path d="M46.7801 23.3053C46.7801 22.232 47.7909 21.4468 48.8267 21.7169L57.0582 23.8595C57.4875 23.971 57.7868 24.3596 57.7868 24.8044C57.7868 25.2492 57.4875 25.6377 57.0582 25.7492L48.8267 27.8919C47.7909 28.162 46.7801 27.3768 46.7801 26.3034V23.3053Z" fill="#F5BB3D"/>
<path d="M19.3465 23.3053C19.3465 22.232 18.3357 21.4468 17.2999 21.7169L9.06842 23.8595C8.63908 23.971 8.33984 24.3596 8.33984 24.8044C8.33984 25.2492 8.63908 25.6377 9.06842 25.7492L17.2999 27.8919C18.3357 28.162 19.3465 27.3768 19.3465 26.3034V23.3053Z" fill="#F5BB3D"/>
<path d="M43.8188 16.1333L41.7061 14.0137C40.9495 13.2546 41.1106 11.9825 42.0334 11.4383L49.3631 7.11378C49.7454 6.88787 50.2308 6.95012 50.5441 7.2654C50.8573 7.57967 50.9193 8.06764 50.6952 8.45019L46.3848 15.8039C45.8424 16.7297 44.5744 16.8923 43.8178 16.1323L43.8188 16.1333Z" fill="#F5BB3D"/>
<path d="M24.4205 35.595L22.3078 33.4754C21.5512 32.7164 20.2832 32.878 19.7408 33.8038L15.4304 41.1575C15.2052 41.5411 15.2673 42.028 15.5815 42.3423C15.8948 42.6566 16.3812 42.7188 16.7625 42.4939L24.0922 38.1694C25.015 37.6252 25.1771 36.3531 24.4195 35.594L24.4205 35.595Z" fill="#F5BB3D"/>
<path d="M41.7061 35.595L43.8188 33.4754C44.5754 32.7164 45.8434 32.878 46.3858 33.8038L50.6962 41.1575C50.9214 41.5411 50.8593 42.028 50.5451 42.3423C50.2318 42.6566 49.7454 42.7188 49.3641 42.4939L42.0344 38.1694C41.1116 37.6252 40.9495 36.3531 41.7071 35.594L41.7061 35.595Z" fill="#F5BB3D"/>
<path d="M22.3078 16.1333L24.4205 14.0137C25.1771 13.2546 25.016 11.9825 24.0932 11.4383L16.7635 7.11378C16.3812 6.88787 15.8958 6.95012 15.5825 7.2654C15.2693 7.57967 15.2072 8.06764 15.4314 8.45019L19.7418 15.8039C20.2842 16.7297 21.5522 16.8923 22.3088 16.1323L22.3078 16.1333Z" fill="#F5BB3D"/>
<path d="M33.2384 35.9837C39.2963 35.9837 44.2072 31.0568 44.2072 24.979C44.2072 18.9012 39.2963 13.9742 33.2384 13.9742C27.1805 13.9742 22.2695 18.9012 22.2695 24.979C22.2695 31.0568 27.1805 35.9837 33.2384 35.9837Z" fill="#F5BB3D"/>
</g>
<path fill-rule="evenodd" clip-rule="evenodd" d="M66.4897 30.0456C66.6591 30.0456 66.8405 30.155 67.034 30.3737C67.7113 31.0544 68.3283 31.7957 68.8847 32.5979C69.4652 33.4001 69.9732 34.2387 70.4086 35.1138C70.8441 35.9889 71.1828 36.8884 71.4247 37.8121C71.6666 38.7358 71.7875 39.6716 71.7875 40.6195C71.7875 41.0328 71.7634 41.4949 71.715 42.0053C71.6667 42.5157 71.5939 43.0382 71.4972 43.5729C71.4004 44.0834 71.2674 44.582 71.0981 45.0681C70.9529 45.5299 70.7715 45.931 70.5538 46.2713C69.9732 47.1464 69.1627 47.8513 68.1225 48.386C67.1065 48.9208 65.9816 49.3221 64.7479 49.5895C63.5142 49.8568 62.2562 50.0391 60.9742 50.1363C60.756 50.149 60.5411 50.1599 60.3295 50.1704C60.1369 50.2198 59.9281 50.2457 59.7027 50.2457H59.0132L55.9653 50.2821C55.5299 52.3483 55.0219 54.378 54.4413 56.3713C53.8849 58.3645 53.1712 60.1998 52.3003 61.877C51.4053 63.5543 50.3166 65.0249 49.0345 66.289C47.7766 67.553 46.2283 68.4769 44.3898 69.0603C43.1803 69.4978 41.8377 69.7774 40.3622 69.8989C38.9107 70.0205 37.423 70.0325 35.899 69.9353C34.3992 69.8624 32.9234 69.6922 31.4719 69.4248C29.9963 69.1574 28.6659 68.8534 27.4806 68.5131C27.1419 68.4159 26.9362 68.2701 26.8636 68.0756C26.7669 67.9055 26.7669 67.7352 26.8636 67.5651C26.9362 67.395 27.0936 67.2491 27.3354 67.1276C27.5773 67.0061 27.8677 66.9576 28.2064 66.9819C29.3433 67.1034 30.577 67.1154 31.9074 67.0182C33.262 66.9453 34.6168 66.7751 35.9714 66.5077C37.3503 66.2646 38.6809 65.9366 39.9631 65.5233C41.2452 65.1101 42.3822 64.6239 43.374 64.0648C44.7528 63.3113 45.9744 62.4119 47.0387 61.3668C48.1031 60.3215 49.0588 59.1789 49.9054 57.9392C50.7521 56.6995 51.478 55.4355 52.0828 54.1471C52.7117 52.8831 53.2437 51.5947 53.6792 50.2821L50.0506 50.3551C49.0346 50.4037 48.067 50.3064 47.1478 50.0633C46.2528 49.7959 45.4666 49.407 44.7892 48.8966C44.1361 48.3618 43.6278 47.7054 43.265 46.9275C42.9263 46.1254 42.8176 45.2137 42.9386 44.1928C43.0112 43.5122 43.2531 42.6735 43.6644 41.6769C44.0756 40.6804 44.5955 39.7202 45.2244 38.7965C45.8534 37.8485 46.5549 37.0463 47.329 36.39C48.1031 35.7093 48.8895 35.3692 49.6878 35.3692C50.5345 35.3693 51.3207 35.7217 52.0464 36.4266C52.7963 37.1072 53.4616 37.9215 54.0422 38.8695C54.5986 39.8418 55.0582 40.8628 55.421 41.9323C55.781 42.9691 56.0097 43.8625 56.1078 44.6123C56.3377 44.5271 56.593 44.4846 56.8737 44.4846H57.5271C58.6882 44.4846 59.8372 44.4725 60.9742 44.4482C62.1353 44.3996 63.224 44.3267 64.24 44.2295C65.2802 44.1323 66.2115 43.9985 67.034 43.8283C67.8565 43.6339 68.5096 43.3787 68.9934 43.0627C69.2596 42.9169 69.3926 42.7343 69.3926 42.5156C69.4167 42.2968 69.3683 42.0172 69.2474 41.6769C69.0055 41.045 68.7273 40.4616 68.4128 39.9269C68.1225 39.3921 67.796 38.8815 67.4331 38.3954C67.0461 37.8849 66.647 37.3987 66.2358 36.9368C65.8246 36.475 65.389 36.0132 64.9294 35.5513L66.1267 30.4468C66.1993 30.1794 66.3204 30.0456 66.4897 30.0456ZM48.3451 40.9843C48.079 40.9843 47.7886 41.0816 47.4742 41.2761C47.1839 41.4462 46.9057 41.677 46.6396 41.9687C46.3735 42.2361 46.1437 42.528 45.9502 42.844C45.7809 43.1599 45.6962 43.4396 45.6962 43.6826C45.8414 43.9985 46.2043 44.2415 46.7847 44.4116C47.3895 44.5817 48.0548 44.7034 48.7806 44.7764C49.5063 44.825 50.22 44.837 50.9215 44.8127C51.6472 44.7884 52.1914 44.752 52.5543 44.7034C52.5542 44.6061 52.4212 44.3629 52.1552 43.9741C51.9133 43.5852 51.5867 43.1842 51.1755 42.771C50.7642 42.3334 50.3046 41.9445 49.7966 41.6042C49.3128 41.2396 48.8289 41.0329 48.3451 40.9843Z" fill="#22C37A"/>
<path d="M22.2539 34.5669C22.3748 34.2023 22.6168 34.2023 22.9796 34.5669C23.9473 35.4906 24.8302 36.5845 25.6285 37.8485C26.451 39.1125 27.1525 40.4374 27.7331 41.8229C28.2895 43.2328 28.6888 44.6791 28.9307 46.1619C29.1968 47.6204 29.2571 49.0181 29.1119 50.3551C28.9184 52.0323 28.4588 53.819 27.7331 55.715C27.0316 57.6354 26.1243 59.4706 25.0115 61.2208C23.9229 62.9709 22.665 64.5025 21.2378 65.8151C19.8106 67.1277 18.2987 68.0514 16.7022 68.5861C15.3959 69.0237 14.029 69.3153 12.6018 69.4611C11.1987 69.607 9.79565 69.6434 8.39259 69.5705C6.98952 69.4976 5.62267 69.3277 4.29218 69.0603C2.96169 68.7929 1.74 68.4645 0.627235 68.0756C0.337004 67.9784 0.155541 67.8326 0.0829773 67.6381C-0.0137667 67.468 -0.0259513 67.2977 0.0466158 67.1276C0.0950022 66.9575 0.216132 66.8116 0.409649 66.6901C0.578949 66.5686 0.784501 66.5201 1.02634 66.5444C3.08249 66.6659 4.81222 66.6659 6.21526 66.5444C7.61833 66.4228 8.87651 66.1918 9.98929 65.8515C11.1262 65.5112 12.1906 65.0614 13.1824 64.5023C14.1984 63.9432 15.3233 63.2991 16.557 62.5699C17.7182 61.8893 18.8188 61.0991 19.859 60.1997C20.8991 59.3003 21.8789 58.3038 22.7981 57.2099C24.685 54.9736 26.1243 52.6034 27.1161 50.0997C27.0193 49.3705 26.7292 48.5319 26.2455 47.584C25.7859 46.6361 25.2414 45.6515 24.6124 44.6306C24.0077 43.6583 23.3788 42.7467 22.7257 41.896C22.0726 41.0209 21.5162 40.328 21.0566 39.8175L22.2539 34.5669Z" fill="#22C37A"/>
<path d="M62.9336 14.1845C63.1029 13.9657 63.2843 13.9416 63.4779 14.1117L67.941 17.8308C68.1345 18.0009 68.1467 18.1953 67.9774 18.414L65.0018 22.1697C64.8325 22.4127 64.6392 22.4371 64.4215 22.2427L59.922 18.5237C59.7285 18.3535 59.7285 18.1469 59.922 17.9038L62.9336 14.1845Z" fill="#22C37A"/>
<defs>
<clipPath id="clip0_4954_11821">
<rect width="49.4469" height="28.2979" fill="white" transform="translate(8.33984)"/>
</clipPath>
</defs>
</svg>
