<svg width="57" height="57" viewBox="0 0 57 57" fill="none" xmlns="http://www.w3.org/2000/svg">
<rect width="56.8924" height="56.8924" rx="28.4462" fill="white"/>
<g clip-path="url(#clip0_1529_41107)">
<g clip-path="url(#clip1_1529_41107)">
<g clip-path="url(#clip2_1529_41107)">
<path d="M40.7009 34.9279C39.1286 39.4218 35.9373 43.4316 33.0451 43.4316C31.882 43.4316 31.4561 42.2794 29.0135 42.2794C26.5708 42.2794 25.5686 43.4316 24.4055 43.4316C20.3727 43.4316 15.7646 35.6484 15.7646 29.6047C15.7646 23.5615 19.7969 20.9633 23.2527 20.9633C25.1138 20.9633 27.1184 22.1148 29.0135 22.1148C30.9085 22.1148 32.3373 20.9633 34.1978 20.9633C36.139 20.9633 38.2646 21.7811 39.7511 23.573C37.8036 24.6791 36.5015 26.7067 36.5015 29.0289C36.5015 31.7136 38.241 34.0063 40.7009 34.9279ZM33.0267 18.0682C33.4352 17.5574 33.7544 16.9812 33.9707 16.3639C34.2918 15.4486 34.4151 14.4256 34.1967 13.474C34.1817 13.4077 33.2803 13.6089 33.1984 13.632C32.7049 13.7704 32.2257 13.9557 31.7673 14.1853C29.7748 15.1824 27.9414 17.1224 27.8043 19.444C27.7858 19.7523 27.7852 20.0849 27.8602 20.3875C27.8723 20.4347 28.5264 20.38 28.572 20.3771C30.3293 20.2515 31.9575 19.4077 33.0267 18.0682Z" fill="black"/>
</g>
</g>
</g>
<rect x="0.557769" y="0.557769" width="55.7769" height="55.7769" rx="27.8884" stroke="#BFBFBF" stroke-width="1.11554"/>
<defs>
<clipPath id="clip0_1529_41107">
<rect width="34.5817" height="34.5817" fill="white" transform="translate(11.1553 11.1553)"/>
</clipPath>
<clipPath id="clip1_1529_41107">
<rect width="34.5817" height="34.5817" fill="white" transform="translate(11.1553 11.1553)"/>
</clipPath>
<clipPath id="clip2_1529_41107">
<rect width="34.5817" height="34.5817" fill="white" transform="translate(11.1553 11.1553)"/>
</clipPath>
</defs>
</svg>
