<svg width="2181" height="813" viewBox="0 0 2181 813" fill="none" xmlns="http://www.w3.org/2000/svg">
<g filter="url(#filter0_f_1647_18249)">
<path d="M1787.7 169.555L2050.4 333.415L1943.4 316.555L1863.9 290.555C1818.3 257.355 1821.28 248.608 1808.4 240.415C1779.1 221.775 1476.4 145.915 1466.4 282.915C1468.72 298.873 1470.78 309.848 1472.47 317.182C1478.63 343.772 1480.11 322.486 1472.47 317.182C1470.87 316.065 1468.86 315.657 1466.4 316.555C1383.6 371.755 1445.4 402.415 1414.9 379.415C1343.4 371.915 1363.73 418.915 1331.4 422.915C1272.2 433.715 1305.9 507.415 1318.4 536.415C1331.4 543.915 1216.4 499.915 1263.4 522.415C1294.28 537.197 1389.07 685.247 1367.9 682.914C1318.3 659.314 1248.57 593.055 1236.4 554.555C1182.4 471.755 1044.07 474.555 1004.9 504.555C1020.4 559.555 969.068 688.247 942.901 682.914C1004.9 527.054 853.234 481.388 832.4 449.055C829.6 472.255 757.567 495.722 721.9 504.555C721.9 541.755 617.734 421.555 599.9 428.555C565.5 460.555 577.067 585.388 552.9 572.055C537.7 614.855 504.9 530.221 490.4 541.055C458.4 590.655 438.234 533.888 419.4 527.055C393.4 533.855 356.4 633.388 353.9 596.054C274.1 527.055 293.9 680.914 216.4 660.414C154.4 644.014 164.234 522.055 146.9 496.055L129.9 366.555L194.9 316.555C223.7 425.755 249.9 522.388 283.4 532.055C388.6 508.455 483.067 451.582 490.4 395.915C530.4 271.915 543.567 198.554 571.9 207.554C624.7 324.754 693.9 329.055 721.9 316.555C735.9 210.555 801.4 188.388 832.4 190.555C875.2 189.355 965.567 231.888 964.4 245.555C887.2 257.955 781.234 292.888 790.4 316.555C812.4 394.155 882.568 437.222 903.401 449.055C898.201 386.655 927.568 368.055 942.901 366.555C972.101 366.555 996.401 407.888 1004.9 428.555C1076.4 428.555 1167.57 434.888 1199.9 428.555C1259.5 420.555 1264.73 485.722 1274.4 504.555C1292.4 572.155 1236.9 358.582 1256.4 352.915C1297.6 276.915 1282.07 343.748 1318.4 352.915C1341.4 366.555 1334.57 358.582 1355.4 338.415C1394.8 300.275 1419.9 317.415 1397.4 273.915C1379.4 239.115 1444.2 208.748 1451.7 189.915C1509.7 89.1149 1730.03 139.055 1787.7 169.555Z" fill="url(#paint0_linear_1647_18249)"/>
</g>
<defs>
<filter id="filter0_f_1647_18249" x="0.000396729" y="3.05176e-05" width="2180.3" height="812.975" filterUnits="userSpaceOnUse" color-interpolation-filters="sRGB">
<feFlood flood-opacity="0" result="BackgroundImageFix"/>
<feBlend mode="normal" in="SourceGraphic" in2="BackgroundImageFix" result="shape"/>
<feGaussianBlur stdDeviation="64.95" result="effect1_foregroundBlur_1647_18249"/>
</filter>
<linearGradient id="paint0_linear_1647_18249" x1="117.64" y1="439.855" x2="2020.4" y2="439.855" gradientUnits="userSpaceOnUse">
<stop stop-color="#1ECE83"/>
<stop offset="0.254808" stop-color="#1ECE83" stop-opacity="0.5"/>
<stop offset="0.453249" stop-color="#1ECE83"/>
<stop offset="0.59855" stop-color="#1ECE83"/>
<stop offset="1" stop-color="#1ECE83"/>
</linearGradient>
</defs>
</svg>
