<svg width="60" height="48" viewBox="0 0 60 48" fill="none" xmlns="http://www.w3.org/2000/svg">
<g clip-path="url(#clip0_2225_25772)">
<rect width="60" height="48" rx="12" fill="#1ECE83"/>
<g clip-path="url(#clip1_2225_25772)">
<path d="M-5 0H66V48.0006H-5V0Z" fill="white"/>
<path d="M34.9375 0H26.0625V19.4999H-5V28.4999H26.0625V47.9999H34.9375V28.4999H66V19.4999H34.9375V0Z" fill="#D80027"/>
<path d="M49.6063 32.3477L65.9994 41.5834V32.3477H49.6063ZM38.2168 32.3477L65.9994 47.9998V43.5738L46.0733 32.3477H38.2168ZM58.5991 47.9998L38.2168 36.5158V47.9998H58.5991Z" fill="#0052B4"/>
<path d="M38.2168 32.3477L65.9994 47.9998V43.5738L46.0733 32.3477H38.2168Z" fill="white"/>
<path d="M38.2168 32.3477L65.9994 47.9998V43.5738L46.0733 32.3477H38.2168Z" fill="#D80027"/>
<path d="M7.52776 32.3477L-5 39.4056V32.3477H7.52776ZM22.7826 34.3381V47.9999H-1.46512L22.7826 34.3381Z" fill="#0052B4"/>
<path d="M14.9262 32.3477L-5 43.5738V47.9998L22.7826 32.3477H14.9262Z" fill="#D80027"/>
<path d="M11.3931 15.6521L-5 6.41644V15.6521H11.3931ZM22.7826 15.6521L-5 0V4.42604L14.9262 15.6521H22.7826ZM2.40036 0L22.7826 11.484V0H2.40036Z" fill="#0052B4"/>
<path d="M22.7826 15.6521L-5 0V4.42604L14.9262 15.6521H22.7826Z" fill="white"/>
<path d="M22.7826 15.6521L-5 0V4.42604L14.9262 15.6521H22.7826Z" fill="#D80027"/>
<path d="M53.4717 15.6523L65.9994 8.59431V15.6523H53.4717ZM38.2168 13.6619V0H62.4645L38.2168 13.6619Z" fill="#0052B4"/>
<path d="M46.0733 15.6521L65.9994 4.42604V0L38.2168 15.6521H46.0733Z" fill="#D80027"/>
</g>
</g>
<defs>
<clipPath id="clip0_2225_25772">
<rect width="60" height="48" rx="12" fill="white"/>
</clipPath>
<clipPath id="clip1_2225_25772">
<rect width="71" height="48" fill="white" transform="translate(-5)"/>
</clipPath>
</defs>
</svg>
