<svg width="301" height="218" viewBox="0 0 301 218" fill="none" xmlns="http://www.w3.org/2000/svg">
<g filter="url(#filter0_ddd_4969_11708)">
<g clip-path="url(#clip0_4969_11708)">
<rect x="32.9805" width="266" height="155.286" rx="17.2541" transform="rotate(10 32.9805 0)" fill="white"/>
<rect x="42.3105" y="13.3254" width="23.0054" height="23.0054" rx="11.5027" transform="rotate(10 42.3105 13.3254)" fill="#1ECE83"/>
<path d="M48.2192 30.2025L48.4282 29.0173C49.2842 28.6339 50.0123 28.2805 50.6124 27.9571C51.2226 27.6266 51.7205 27.3115 52.1063 27.0116C52.5021 26.7047 52.8006 26.4025 53.002 26.1052C53.2118 25.8093 53.3452 25.4999 53.4021 25.1771C53.4711 24.7862 53.4083 24.4467 53.2138 24.1583C53.0209 23.8615 52.7078 23.6749 52.2745 23.5985C51.7987 23.5146 51.3964 23.6101 51.0676 23.885C50.7473 24.1614 50.522 24.5948 50.3917 25.185L48.9762 24.3441C49.1206 23.7739 49.3597 23.3123 49.6934 22.9594C50.0372 22.5996 50.4572 22.3539 50.9535 22.2224C51.4597 22.0839 52.0144 22.0678 52.6176 22.1742C53.1359 22.2656 53.5692 22.4164 53.9175 22.6268C54.2744 22.8386 54.5535 23.0937 54.755 23.392C54.9664 23.6833 55.1074 24.0017 55.1779 24.347C55.2484 24.6923 55.253 25.0391 55.1915 25.3875C55.0957 25.9312 54.8691 26.4212 54.5118 26.8576C54.1631 27.2954 53.6706 27.7035 53.0345 28.0819C52.3984 28.4603 51.6091 28.838 50.6666 29.2149L50.6643 29.2277C50.7933 29.2416 50.9477 29.2601 51.1276 29.2831C51.316 29.3075 51.5079 29.337 51.7033 29.3715C51.9002 29.3974 52.0709 29.4231 52.2153 29.4486L54.5347 29.8576L54.2853 31.2721L48.2192 30.2025Z" fill="white"/>
<rect x="218.33" y="44.3625" width="35.5027" height="23.0054" rx="11.5027" transform="rotate(10 218.33 44.3625)" fill="#F9F9F9"/>
<path d="M227.741 54.9666L227.575 55.9097L225.697 55.5786L224.875 60.2429L223.702 60.0362L224.525 55.3719L222.639 55.0393L222.805 54.0963L227.741 54.9666ZM229.703 58.2997C229.746 58.0561 229.708 57.8539 229.591 57.693C229.479 57.5331 229.309 57.4332 229.083 57.3932C228.873 57.3563 228.68 57.3776 228.502 57.4573C228.325 57.5369 228.177 57.6949 228.059 57.9311L227.119 57.45C227.281 57.0931 227.544 56.8299 227.907 56.6603C228.275 56.4916 228.734 56.4557 229.284 56.5526C229.657 56.6185 229.973 56.7354 230.229 56.9033C230.487 57.0655 230.671 57.2762 230.783 57.5354C230.901 57.7956 230.929 58.1013 230.867 58.4524L230.563 60.1771C230.525 60.3924 230.608 60.5179 230.812 60.5539C230.908 60.5709 231.001 60.5727 231.091 60.5594L230.896 61.2695C230.736 61.3172 230.545 61.3216 230.324 61.2826C230.126 61.2477 229.954 61.1822 229.807 61.0863C229.66 60.9903 229.554 60.8664 229.487 60.7145C229.421 60.5569 229.407 60.3734 229.444 60.1638L229.45 60.1298L229.66 60.1318C229.588 60.341 229.462 60.5086 229.282 60.6346C229.103 60.7549 228.896 60.8352 228.661 60.8755C228.432 60.9169 228.202 60.9171 227.969 60.8761C227.68 60.8252 227.439 60.7388 227.244 60.6169C227.051 60.4893 226.912 60.3306 226.829 60.1407C226.745 59.9508 226.726 59.7312 226.77 59.482C226.826 59.1648 226.973 58.9251 227.212 58.7628C227.452 58.5948 227.768 58.5075 228.16 58.5008L229.815 58.4596L229.679 59.1802L228.623 59.2044C228.424 59.2101 228.267 59.2379 228.153 59.2879C228.046 59.3332 227.979 59.4295 227.953 59.5768C227.928 59.7184 227.96 59.835 228.049 59.9266C228.144 60.0192 228.265 60.0785 228.412 60.1045C228.531 60.1254 228.65 60.1317 228.768 60.1234C228.886 60.1151 228.996 60.0877 229.098 60.0414C229.199 59.9951 229.285 59.9226 229.355 59.824C229.425 59.7253 229.473 59.5996 229.5 59.4466L229.703 58.2997ZM234.644 55.5793C234.842 55.6142 235.016 55.6684 235.167 55.7416C235.324 55.8102 235.437 55.8827 235.505 55.959L235.208 56.7036C235.152 56.653 235.087 56.6094 235.012 56.5727C234.936 56.5361 234.845 56.5083 234.737 56.4893C234.516 56.4504 234.332 56.4704 234.184 56.5494C234.036 56.6227 233.942 56.7783 233.9 57.0162L233.796 57.6024L233.807 57.8408L233.127 61.6979L231.963 61.4927L232.802 56.735C232.844 56.4971 232.92 56.2945 233.032 56.1272C233.143 55.96 233.28 55.8294 233.442 55.7354C233.605 55.6414 233.787 55.5831 233.99 55.5604C234.199 55.533 234.417 55.5393 234.644 55.5793ZM235.167 57.6777L235.014 58.5443L231.82 57.981L231.973 57.1144L235.167 57.6777ZM236.801 62.4334C236.371 62.3575 235.99 62.2116 235.661 61.9958C235.336 61.7809 235.088 61.5153 234.916 61.1988L235.707 60.6375C235.807 60.8653 235.959 61.0644 236.163 61.2346C236.366 61.4048 236.624 61.5174 236.935 61.5723C237.156 61.6113 237.337 61.6111 237.479 61.5717C237.626 61.5277 237.713 61.4349 237.738 61.2933C237.754 61.2027 237.736 61.1208 237.685 61.0475C237.635 60.9685 237.519 60.8927 237.34 60.8201L236.619 60.5354C236.144 60.3465 235.82 60.1317 235.646 59.8908C235.479 59.6453 235.425 59.3583 235.483 59.0298C235.524 58.7976 235.63 58.5915 235.802 58.4116C235.979 58.2326 236.218 58.1053 236.518 58.0296C236.818 57.9483 237.175 57.9441 237.588 58.017C238.013 58.0919 238.369 58.2248 238.657 58.4157C238.951 58.6019 239.166 58.8412 239.301 59.1337L238.485 59.6905C238.395 59.4703 238.257 59.2913 238.071 59.1534C237.892 59.0108 237.692 58.92 237.471 58.8811C237.313 58.8531 237.174 58.8461 237.054 58.8602C236.935 58.8742 236.842 58.9073 236.774 58.9596C236.707 59.0063 236.666 59.0749 236.65 59.1656C236.634 59.2562 236.66 59.3425 236.727 59.4244C236.795 59.5007 236.93 59.58 237.132 59.6622L237.967 59.9935C238.371 60.1523 238.646 60.3497 238.791 60.5855C238.938 60.8157 238.986 61.0724 238.936 61.3556C238.888 61.6275 238.771 61.8581 238.586 62.0473C238.408 62.2319 238.166 62.3616 237.86 62.4363C237.562 62.5063 237.209 62.5053 236.801 62.4334ZM241.073 58.0884C240.83 58.0454 240.658 57.9625 240.557 57.8395C240.457 57.711 240.425 57.5447 240.461 57.3408C240.498 57.1312 240.584 56.986 240.721 56.905C240.859 56.8184 241.05 56.7965 241.294 56.8394C241.537 56.8824 241.709 56.9682 241.809 57.0967C241.91 57.2197 241.942 57.3859 241.905 57.5955C241.869 57.7994 241.782 57.9447 241.644 58.0313C241.507 58.1123 241.317 58.1313 241.073 58.0884ZM241.543 58.8019L240.794 63.0499L239.63 62.8447L240.379 58.5967L241.543 58.8019ZM242.028 63.2675L242.777 59.0195L243.788 59.1978L243.718 60.0438C243.883 59.7693 244.087 59.5717 244.33 59.4511C244.579 59.3314 244.868 59.3006 245.196 59.3585C245.293 59.3755 245.379 59.3994 245.455 59.4304C245.532 59.4614 245.593 59.4955 245.639 59.5328L245.331 60.4859C245.278 60.4533 245.21 60.4238 245.127 60.3975C245.05 60.3722 244.946 60.348 244.816 60.3251C244.646 60.2951 244.474 60.3086 244.301 60.3656C244.128 60.4169 243.976 60.5186 243.844 60.6705C243.713 60.8168 243.625 61.0174 243.58 61.2723L243.192 63.4727L242.028 63.2675Z" fill="#8A8A8A"/>
<rect x="258.957" y="51.5261" width="23.0054" height="23.0054" rx="8.62703" transform="rotate(10 258.957 51.5261)" fill="#F9F9F9"/>
<path d="M263.88 62.2492C264.174 60.5804 264.321 59.7461 264.931 59.3191C265.541 58.8921 266.375 59.0392 268.044 59.3334L270.404 59.7496C272.073 60.0438 272.907 60.1909 273.334 60.8008C273.761 61.4106 273.614 62.245 273.32 63.9137L272.609 67.942C272.33 69.5251 272.191 70.3167 271.65 70.471C271.109 70.6253 270.573 70.0265 269.5 68.8289L269.157 68.4456C268.554 67.7722 268.253 67.4355 267.845 67.3635C267.437 67.2916 267.038 67.5049 266.241 67.9314L265.788 68.1742C264.37 68.9328 263.662 69.3121 263.206 68.9821C262.751 68.6522 262.89 67.8606 263.169 66.2775L263.88 62.2492Z" fill="#8A8A8A" stroke="#8A8A8A" stroke-width="1.43784"/>
<g clip-path="url(#clip1_4969_11708)">
<rect x="102.883" y="64.8865" width="34.0054" height="92.0216" rx="14.3784" transform="rotate(10 102.883 64.8865)" fill="#F7F7F7"/>
<path d="M117.323 105.724C117.267 106.039 117.141 106.372 116.943 106.724C116.755 107.078 116.53 107.404 116.268 107.703C116.008 107.992 115.737 108.226 115.454 108.406C115.173 108.576 114.921 108.642 114.698 108.602C114.362 108.553 114.041 108.502 113.737 108.448C113.472 108.412 113.212 108.372 112.959 108.327C112.705 108.282 112.518 108.249 112.396 108.228C112.183 108.19 112.023 108 111.916 107.657C111.821 107.306 111.828 106.826 111.935 106.217C111.994 105.883 112.115 105.611 112.298 105.403C112.481 105.195 112.671 105.098 112.867 105.111C113.293 105.186 113.689 105.251 114.056 105.305C114.435 105.351 114.759 105.382 115.028 105.398C115.307 105.416 115.527 105.413 115.688 105.389C115.861 105.357 115.955 105.3 115.969 105.219C116.007 105.006 115.994 104.753 115.93 104.459C115.867 104.166 115.763 103.839 115.617 103.479C115.384 102.904 115.08 102.286 114.705 101.624C114.332 100.952 113.935 100.302 113.512 99.6729C113.102 99.0359 112.692 98.4514 112.284 97.9194C111.888 97.379 111.556 96.9493 111.288 96.6302C111.263 96.6571 111.181 96.7054 111.043 96.7752C110.916 96.8468 110.777 96.9217 110.627 96.9998C110.488 97.0798 110.35 97.1496 110.214 97.2093C110.09 97.2606 110.018 97.2845 109.997 97.2809C109.947 97.2719 109.843 97.1753 109.688 96.991C109.532 96.8067 109.355 96.5926 109.158 96.3487C108.971 96.1065 108.788 95.8653 108.611 95.6249C108.436 95.3744 108.307 95.1845 108.225 95.055C108.039 94.7502 107.873 94.4177 107.727 94.0575C107.581 93.6972 107.535 93.37 107.586 93.076C107.653 92.7008 107.746 92.3461 107.868 92.0121C108.002 91.6697 108.138 91.3696 108.278 91.1119C108.417 90.8542 108.552 90.6532 108.682 90.5088C108.812 90.3644 108.913 90.2985 108.984 90.311C109.075 90.3271 109.18 90.3823 109.299 90.4765C109.429 90.5725 109.551 90.6778 109.667 90.7923C109.793 90.9086 109.904 91.0222 109.999 91.1332C110.105 91.2459 110.174 91.3261 110.208 91.3738C110.674 91.9893 111.206 92.7366 111.804 93.6158C112.402 94.4949 113.005 95.4325 113.614 96.4286C114.224 97.4145 114.799 98.4255 115.337 99.4615C115.878 100.487 116.324 101.455 116.676 102.364C116.934 103.037 117.122 103.661 117.24 104.236C117.369 104.812 117.396 105.309 117.323 105.724ZM123.309 86.454C123.303 86.4844 123.263 86.5662 123.187 86.6992C123.121 86.834 123.042 86.9873 122.949 87.1591C122.858 87.3208 122.762 87.4765 122.663 87.6262C122.575 87.7676 122.507 87.855 122.46 87.8884C122.376 87.9469 122.273 87.9967 122.151 88.0379C122.029 88.079 121.889 88.1277 121.733 88.1838L117.703 89.5121C117.437 89.601 117.258 89.6687 117.166 89.7153C117.064 89.76 116.972 89.7753 116.891 89.7609C116.759 89.7377 116.706 89.6551 116.731 89.5131C116.738 89.4726 116.774 89.3849 116.84 89.2501C116.895 89.1135 116.963 88.9685 117.042 88.8152C117.111 88.6601 117.183 88.5211 117.257 88.3982C117.333 88.2652 117.394 88.182 117.442 88.1486C117.49 88.1151 117.553 88.0844 117.631 88.0564C117.711 88.0182 117.829 87.971 117.985 87.915L122.117 86.5419C122.305 86.481 122.506 86.4118 122.718 86.3342C122.941 86.2584 123.082 86.2259 123.143 86.2366C123.214 86.2491 123.261 86.2783 123.284 86.3243C123.309 86.3601 123.318 86.4033 123.309 86.454ZM121.463 94.519C121.232 94.6455 121.014 94.7848 120.809 94.937C120.616 95.0807 120.436 95.2737 120.268 95.5159C120.1 95.7581 119.945 96.0707 119.804 96.4537C119.664 96.8366 119.542 97.3222 119.438 97.9104C119.339 98.4681 119.192 99.0381 118.995 99.6203C118.81 100.194 118.581 100.755 118.306 101.302C118.032 101.85 117.71 102.374 117.339 102.873C116.971 103.362 116.561 103.792 116.108 104.161C115.47 104.697 114.756 105.073 113.965 105.289C114.042 105.324 114.116 105.379 114.187 105.454C114.259 105.519 114.315 105.617 114.354 105.75C114.404 105.884 114.432 106.051 114.438 106.251C114.445 106.451 114.422 106.698 114.37 106.992C114.32 107.276 114.253 107.509 114.168 107.693C114.096 107.869 114.014 108.006 113.923 108.105C113.833 108.204 113.736 108.276 113.634 108.321C113.534 108.355 113.442 108.37 113.36 108.366C113.339 108.363 113.248 108.347 113.086 108.318C112.932 108.301 112.743 108.273 112.52 108.234C112.285 108.203 112.036 108.164 111.772 108.118C111.497 108.08 111.237 108.039 110.994 107.996C110.739 107.962 110.515 107.927 110.322 107.893C110.119 107.858 109.977 107.832 109.896 107.818C109.866 107.813 109.848 107.763 109.844 107.668C109.831 107.561 109.828 107.43 109.835 107.274C109.833 107.107 109.845 106.92 109.871 106.716C109.888 106.499 109.916 106.28 109.956 106.056C109.982 105.904 110.015 105.748 110.054 105.588C110.093 105.427 110.134 105.283 110.177 105.155C110.213 105.014 110.248 104.9 110.285 104.813C110.321 104.725 110.344 104.682 110.355 104.684C110.652 104.715 110.936 104.739 111.205 104.755C111.474 104.771 111.717 104.757 111.934 104.711C112.649 104.566 113.314 104.354 113.928 104.075C114.552 103.798 115.122 103.412 115.638 102.918C116.203 102.38 116.684 101.696 117.081 100.867C117.479 100.038 117.784 99.0198 117.996 97.813C118.032 97.6102 118.064 97.3701 118.092 97.0928C118.122 96.8052 118.147 96.5168 118.166 96.2275C118.198 95.9299 118.227 95.6474 118.253 95.3802C118.279 95.113 118.308 94.8881 118.34 94.7056C118.387 94.4419 118.452 94.1607 118.536 93.8618C118.632 93.5546 118.752 93.262 118.895 92.984C119.04 92.6959 119.218 92.4292 119.428 92.184C119.649 91.9406 119.914 91.7417 120.223 91.5871C120.223 91.5871 120.242 91.6322 120.278 91.7222C120.316 91.8022 120.364 91.9152 120.422 92.0613C120.482 92.1973 120.548 92.3554 120.621 92.5355C120.695 92.7055 120.774 92.8815 120.857 93.0634C121.043 93.4934 121.245 93.9786 121.463 94.519Z" fill="#383838"/>
<rect x="97.4785" y="136.935" width="19.627" height="15.7514" rx="7.87568" transform="rotate(10 97.4785 136.935)" fill="white"/>
<path d="M100.628 148.533L101.377 144.285L101.971 144.39L101.863 145.352L101.769 145.239C101.9 145.029 102.053 144.869 102.23 144.76C102.408 144.645 102.602 144.574 102.811 144.547C103.026 144.521 103.241 144.527 103.456 144.564C103.762 144.618 104.029 144.727 104.257 144.89C104.486 145.047 104.654 145.257 104.759 145.521C104.87 145.786 104.893 146.103 104.828 146.471L104.349 149.19L103.669 149.07L104.106 146.589C104.189 146.119 104.145 145.775 103.973 145.558C103.808 145.336 103.578 145.199 103.283 145.147C103.079 145.111 102.867 145.123 102.646 145.184C102.425 145.244 102.228 145.37 102.054 145.561C101.886 145.753 101.77 146.031 101.706 146.393L101.307 148.653L100.628 148.533ZM108.24 145.408C108.643 145.479 108.981 145.629 109.256 145.859C109.537 146.089 109.735 146.387 109.852 146.752C109.969 147.112 109.988 147.521 109.907 147.98C109.826 148.438 109.668 148.819 109.434 149.123C109.2 149.42 108.912 149.629 108.57 149.75C108.233 149.872 107.864 149.897 107.461 149.826C107.065 149.756 106.726 149.606 106.446 149.375C106.165 149.145 105.966 148.85 105.849 148.49C105.732 148.125 105.714 147.713 105.795 147.255C105.876 146.796 106.033 146.418 106.267 146.12C106.501 145.817 106.79 145.605 107.132 145.484C107.475 145.364 107.844 145.338 108.24 145.408ZM108.137 145.994C107.848 145.943 107.59 145.965 107.363 146.059C107.137 146.154 106.945 146.313 106.789 146.536C106.639 146.755 106.535 147.035 106.475 147.374C106.416 147.709 106.419 148.007 106.483 148.269C106.554 148.533 106.679 148.748 106.86 148.914C107.041 149.08 107.276 149.189 107.565 149.24C107.854 149.291 108.112 149.269 108.338 149.175C108.565 149.08 108.754 148.921 108.905 148.696C109.061 148.473 109.168 148.194 109.227 147.86C109.287 147.52 109.282 147.221 109.21 146.963C109.146 146.701 109.023 146.486 108.842 146.32C108.661 146.154 108.426 146.045 108.137 145.994Z" fill="#383838"/>
</g>
<g clip-path="url(#clip2_4969_11708)">
<rect x="140.619" y="71.5405" width="76.3784" height="92.0216" rx="14.3784" transform="rotate(10 140.619 71.5405)" fill="#F7F7F7"/>
<path d="M155.41 99.5084C155.846 99.5853 156.147 99.8057 156.313 100.17C156.481 100.523 156.521 100.949 156.433 101.445C156.385 101.719 156.277 102.003 156.11 102.298C155.943 102.593 155.735 102.885 155.485 103.176C155.663 103.354 155.818 103.512 155.95 103.65C156.085 103.778 156.184 103.869 156.247 103.922C156.293 103.961 156.31 104.012 156.299 104.072C156.285 104.153 156.229 104.264 156.131 104.403C156.033 104.543 155.925 104.681 155.807 104.817C155.689 104.953 155.574 105.074 155.461 105.179C155.36 105.277 155.295 105.322 155.264 105.317C155.203 105.306 155.067 105.22 154.855 105.057C154.654 104.896 154.424 104.688 154.165 104.433C153.679 104.818 153.203 105.121 152.735 105.342C152.279 105.554 151.909 105.635 151.625 105.585C151.473 105.558 151.305 105.508 151.119 105.433C150.934 105.359 150.755 105.275 150.583 105.182C150.401 105.087 150.235 104.99 150.086 104.89C149.938 104.78 149.824 104.682 149.745 104.595C150.459 104.459 151.11 104.297 151.698 104.108C152.297 103.91 152.821 103.699 153.268 103.475C153.029 103.172 152.83 102.875 152.672 102.586C152.526 102.288 152.473 102.023 152.514 101.79C152.552 101.577 152.653 101.328 152.818 101.043C152.996 100.75 153.216 100.481 153.479 100.234C153.742 99.9879 154.038 99.7893 154.368 99.6383C154.708 99.4891 155.055 99.4459 155.41 99.5084ZM153.911 100.985C153.886 101.127 153.955 101.327 154.119 101.586C154.294 101.837 154.503 102.104 154.746 102.387C154.919 102.177 155.02 101.991 155.048 101.829C155.066 101.727 155.06 101.616 155.028 101.496C155.008 101.377 154.965 101.265 154.9 101.159C154.836 101.044 154.749 100.945 154.638 100.862C154.539 100.772 154.419 100.714 154.277 100.689C154.145 100.666 154.051 100.696 153.994 100.78C153.949 100.856 153.922 100.924 153.911 100.985ZM164.692 115.802C164.671 115.924 164.639 116.075 164.596 116.256C164.556 116.426 164.495 116.593 164.414 116.757C164.335 116.91 164.234 117.039 164.111 117.143C164 117.238 163.858 117.271 163.686 117.24L163.077 117.133C162.753 117.076 162.457 117.003 162.191 116.914C161.934 116.827 161.695 116.701 161.473 116.536C161.263 116.363 161.073 116.136 160.903 115.856C160.743 115.576 160.602 115.222 160.479 114.793C159.965 115.099 159.3 115.369 158.485 115.602C157.681 115.836 156.772 116.011 155.758 116.125C154.743 116.249 153.647 116.296 152.471 116.266C151.303 116.249 150.101 116.131 148.863 115.913C147.707 115.709 146.699 115.411 145.837 115.018C144.974 114.636 144.269 114.188 143.722 113.673C143.177 113.148 142.793 112.568 142.57 111.933C142.349 111.287 142.302 110.605 142.429 109.885C142.538 109.266 142.734 108.689 143.017 108.153C143.301 107.608 143.594 107.136 143.894 106.74C144.204 106.345 144.483 106.033 144.733 105.805C144.992 105.579 145.142 105.47 145.183 105.477C145.193 105.479 145.221 105.499 145.266 105.539C145.311 105.578 145.356 105.622 145.399 105.672C145.443 105.722 145.48 105.775 145.512 105.833C145.546 105.881 145.56 105.92 145.554 105.95C145.547 105.991 145.48 106.073 145.354 106.197C145.238 106.323 145.097 106.497 144.932 106.719C144.77 106.931 144.609 107.19 144.45 107.496C144.302 107.805 144.193 108.157 144.123 108.552C144.025 109.11 144.124 109.614 144.421 110.063C144.728 110.515 145.175 110.918 145.761 111.272C146.348 111.616 147.043 111.916 147.845 112.173C148.658 112.421 149.521 112.625 150.434 112.786C151.468 112.969 152.468 113.113 153.432 113.221C154.407 113.32 155.313 113.375 156.147 113.386C156.983 113.387 157.735 113.336 158.401 113.234C159.069 113.122 159.628 112.949 160.077 112.714C160.191 112.661 160.297 112.591 160.396 112.504C160.505 112.419 160.602 112.342 160.688 112.273C160.773 112.204 160.851 112.145 160.923 112.095C161.005 112.047 161.076 112.028 161.137 112.039C161.218 112.053 161.284 112.096 161.334 112.167C161.394 112.241 161.441 112.327 161.476 112.428C161.511 112.528 161.543 112.638 161.574 112.759C161.617 112.871 161.666 112.979 161.721 113.083C161.833 113.28 162.036 113.462 162.331 113.629C162.637 113.788 163.069 113.916 163.627 114.015L164.236 114.122C164.408 114.152 164.529 114.236 164.599 114.374C164.681 114.504 164.732 114.659 164.752 114.84C164.774 115.012 164.775 115.184 164.755 115.358C164.734 115.533 164.714 115.681 164.692 115.802ZM151.64 119.288C151.633 119.329 151.583 119.404 151.491 119.513C151.407 119.634 151.299 119.772 151.167 119.926C151.035 120.081 150.886 120.243 150.721 120.412C150.565 120.583 150.413 120.734 150.264 120.865C150.124 121.007 149.994 121.12 149.875 121.204C149.754 121.298 149.673 121.341 149.633 121.334C149.602 121.328 149.484 121.229 149.277 121.036C149.079 120.855 148.871 120.645 148.651 120.408C148.43 120.181 148.229 119.957 148.048 119.737C147.876 119.529 147.794 119.399 147.803 119.349C147.81 119.308 147.856 119.227 147.94 119.106C148.034 118.987 148.147 118.85 148.279 118.695C148.421 118.543 148.569 118.381 148.725 118.209C148.891 118.04 149.044 117.884 149.184 117.741C149.332 117.611 149.462 117.498 149.573 117.402C149.682 117.317 149.757 117.278 149.798 117.285C149.859 117.296 149.987 117.397 150.183 117.588C150.39 117.782 150.604 117.992 150.825 118.219C151.045 118.456 151.235 118.678 151.398 118.885C151.568 119.103 151.649 119.237 151.64 119.288ZM168.225 105.995L168.135 108.285C168.083 108.579 167.996 108.898 167.872 109.242C167.761 109.578 167.637 109.891 167.503 110.181C167.378 110.472 167.252 110.712 167.125 110.898C167.008 111.087 166.919 111.176 166.859 111.165C166.646 111.127 166.56 110.992 166.601 110.759L166.759 109.861C166.818 109.527 166.848 109.182 166.848 108.826C166.849 108.461 166.843 108.109 166.83 107.772C166.828 107.427 166.82 107.112 166.808 106.827C166.795 106.543 166.804 106.314 166.835 106.142C166.867 105.959 166.926 105.745 167.011 105.499C167.098 105.242 167.205 104.989 167.333 104.74C167.462 104.48 167.604 104.239 167.759 104.015C167.925 103.783 168.099 103.594 168.282 103.449C168.363 103.526 168.413 103.655 168.433 103.836C168.455 104.007 168.46 104.191 168.446 104.387C168.442 104.585 168.424 104.775 168.392 104.958C168.372 105.132 168.356 105.25 168.346 105.311L168.225 105.995ZM169.286 116.612C169.245 116.845 169.202 117.057 169.158 117.248C169.126 117.431 169.077 117.59 169.011 117.724C168.946 117.859 168.865 117.96 168.77 118.027C168.676 118.084 168.553 118.098 168.401 118.072L163.077 117.133C162.925 117.106 162.815 117.05 162.746 116.965C162.679 116.869 162.638 116.747 162.623 116.598C162.607 116.449 162.616 116.283 162.648 116.1C162.672 115.906 162.704 115.692 162.745 115.459C162.784 115.236 162.826 115.029 162.87 114.838C162.904 114.645 162.953 114.487 163.017 114.362C163.083 114.227 163.162 114.131 163.256 114.075C163.351 114.008 163.475 113.988 163.627 114.015L168.951 114.953C169.103 114.98 169.213 115.041 169.279 115.137C169.348 115.222 169.39 115.339 169.406 115.488C169.423 115.627 169.415 115.793 169.381 115.986C169.357 116.18 169.325 116.389 169.286 116.612ZM176.889 100.979C176.883 101.009 176.843 101.091 176.767 101.224C176.701 101.359 176.622 101.512 176.529 101.684C176.438 101.846 176.342 102.001 176.243 102.151C176.155 102.292 176.088 102.38 176.04 102.413C175.956 102.472 175.853 102.522 175.731 102.563C175.609 102.604 175.47 102.653 175.313 102.709L171.284 104.037C171.017 104.126 170.838 104.194 170.746 104.24C170.644 104.285 170.552 104.3 170.471 104.286C170.339 104.263 170.286 104.18 170.311 104.038C170.318 103.997 170.355 103.91 170.42 103.775C170.476 103.638 170.543 103.493 170.622 103.34C170.691 103.185 170.763 103.046 170.837 102.923C170.913 102.79 170.974 102.707 171.022 102.673C171.07 102.64 171.133 102.609 171.211 102.581C171.291 102.543 171.409 102.496 171.565 102.44L175.697 101.067C175.885 101.006 176.086 100.937 176.298 100.859C176.521 100.783 176.662 100.751 176.723 100.761C176.794 100.774 176.841 100.803 176.865 100.849C176.89 100.885 176.898 100.928 176.889 100.979ZM175.92 117.766C175.833 118.263 175.718 118.646 175.577 118.913C175.437 119.171 175.18 119.267 174.805 119.201L174.212 119.096C173.928 119.046 173.696 118.969 173.516 118.864C173.346 118.76 173.174 118.605 173.002 118.397C172.855 118.224 172.725 118.008 172.614 117.748C172.503 117.488 172.423 117.202 172.374 116.89C172.148 117.101 171.909 117.3 171.657 117.485C171.417 117.662 171.139 117.812 170.825 117.934C170.512 118.047 170.165 118.121 169.782 118.158C169.399 118.195 168.964 118.171 168.477 118.085L167.914 117.986C167.722 117.952 167.575 117.895 167.474 117.814C167.375 117.723 167.312 117.608 167.284 117.467C167.249 117.314 167.243 117.141 167.266 116.946C167.28 116.75 167.31 116.52 167.357 116.256C167.4 116.013 167.447 115.802 167.5 115.623C167.544 115.432 167.608 115.276 167.692 115.155C167.766 115.032 167.865 114.945 167.989 114.894C168.113 114.842 168.272 114.834 168.464 114.868L169.027 114.967C169.554 115.06 170.019 115.095 170.42 115.071C170.834 115.04 171.191 114.972 171.491 114.868C171.792 114.764 172.043 114.646 172.244 114.515C172.456 114.374 172.637 114.239 172.786 114.108C172.944 113.979 173.072 113.876 173.169 113.799C173.268 113.712 173.359 113.676 173.44 113.69C173.501 113.701 173.558 113.758 173.613 113.862C173.668 113.966 173.703 114.212 173.718 114.602C173.725 114.739 173.737 114.882 173.752 115.031C173.78 115.172 173.829 115.306 173.901 115.434C173.982 115.563 174.088 115.676 174.218 115.772C174.357 115.87 174.538 115.939 174.762 115.978L175.355 116.083C175.73 116.149 175.94 116.322 175.985 116.601C176.029 116.881 176.008 117.269 175.92 117.766ZM174.788 108.266C174.849 108.277 174.973 108.372 175.161 108.552C175.349 108.731 175.544 108.933 175.745 109.156C175.948 109.37 176.125 109.579 176.277 109.783C176.431 109.978 176.505 110.095 176.497 110.136C176.49 110.177 176.446 110.252 176.363 110.363C176.281 110.474 176.175 110.602 176.045 110.746C175.925 110.892 175.788 111.046 175.634 111.207C175.492 111.36 175.352 111.502 175.214 111.635C175.087 111.759 174.969 111.864 174.86 111.949C174.763 112.026 174.699 112.062 174.669 112.056C174.628 112.049 174.519 111.957 174.341 111.779C174.174 111.603 173.988 111.408 173.786 111.195L172.996 110.334C172.946 110.263 172.886 110.221 172.815 110.208C172.784 110.203 172.736 110.241 172.669 110.324C172.378 110.607 172.119 110.864 171.89 111.096C171.688 111.29 171.495 111.465 171.311 111.621C171.128 111.767 171.012 111.835 170.961 111.826C170.941 111.822 170.88 111.78 170.779 111.7C170.69 111.611 170.579 111.502 170.445 111.374C170.312 111.236 170.176 111.092 170.035 110.941C169.894 110.791 169.762 110.648 169.64 110.511C169.518 110.374 169.418 110.257 169.341 110.16C169.266 110.053 169.231 109.984 169.237 109.954C169.244 109.913 169.294 109.838 169.386 109.729C169.468 109.618 169.574 109.49 169.704 109.346C169.836 109.191 169.974 109.033 170.118 108.87C170.272 108.709 170.417 108.567 170.553 108.445C170.692 108.312 170.81 108.203 170.909 108.116C171.008 108.028 171.068 107.987 171.088 107.99C171.159 108.003 171.283 108.103 171.459 108.291C171.637 108.469 171.822 108.663 172.015 108.875C172.242 109.124 172.481 109.402 172.731 109.707C172.779 109.789 172.828 109.834 172.879 109.843C172.909 109.848 172.937 109.843 172.96 109.826C172.994 109.811 173.043 109.773 173.106 109.711C173.393 109.447 173.655 109.206 173.893 108.987C174.092 108.802 174.279 108.636 174.451 108.489C174.635 108.333 174.748 108.259 174.788 108.266ZM181.069 122.102C181.063 122.132 181.023 122.214 180.947 122.347C180.882 122.482 180.803 122.63 180.712 122.792C180.619 122.963 180.523 123.119 180.426 123.259C180.336 123.41 180.268 123.503 180.22 123.536C180.136 123.595 180.034 123.644 179.911 123.686C179.789 123.727 179.65 123.775 179.493 123.831L175.464 125.16C175.197 125.249 175.013 125.315 174.911 125.36C174.819 125.407 174.732 125.423 174.651 125.409C174.52 125.385 174.466 125.303 174.491 125.161C174.498 125.12 174.53 125.032 174.585 124.895C174.651 124.76 174.718 124.615 174.787 124.46C174.867 124.307 174.944 124.164 175.02 124.031C175.094 123.908 175.155 123.83 175.202 123.796C175.25 123.763 175.314 123.727 175.394 123.689C175.472 123.661 175.589 123.619 175.745 123.563L179.877 122.19C180.066 122.129 180.266 122.059 180.478 121.982C180.701 121.906 180.842 121.874 180.903 121.884C180.974 121.897 181.022 121.921 181.047 121.957C181.071 122.003 181.078 122.051 181.069 122.102ZM191.205 120.477C191.183 120.599 191.146 120.749 191.094 120.928C191.053 121.099 190.987 121.265 190.896 121.426C190.817 121.58 190.711 121.707 190.578 121.809C190.446 121.901 190.285 121.93 190.092 121.896L189.514 121.794C189.159 121.732 188.838 121.623 188.552 121.468C188.267 121.303 187.985 121.096 187.705 120.848C187.434 120.602 187.156 120.312 186.87 119.979C186.595 119.638 186.281 119.259 185.926 118.84C185.572 118.412 185.168 117.949 184.712 117.45C184.268 116.943 183.748 116.397 183.151 115.81C183.161 115.99 183.149 116.202 183.117 116.447C183.084 116.693 183.056 116.881 183.033 117.013C182.823 118.199 182.043 118.977 180.692 119.345C179.353 119.705 177.452 119.667 174.987 119.233L174.425 119.134C174.232 119.1 174.09 119.017 173.998 118.886C173.908 118.745 173.852 118.588 173.83 118.417C173.799 118.234 173.794 118.055 173.814 117.881C173.826 117.695 173.843 117.541 173.864 117.419C173.886 117.298 173.922 117.153 173.973 116.984C174.013 116.813 174.078 116.652 174.167 116.501C174.249 116.337 174.355 116.209 174.486 116.118C174.619 116.016 174.782 115.982 174.974 116.015L175.537 116.115C176.693 116.319 177.671 116.439 178.469 116.475C179.268 116.511 179.914 116.494 180.407 116.425C180.913 116.346 181.284 116.229 181.52 116.072C181.759 115.905 181.896 115.72 181.932 115.517C181.973 115.284 181.846 114.964 181.552 114.556C181.258 114.149 180.825 113.727 180.254 113.292C180.079 113.157 179.883 113.023 179.666 112.89C179.461 112.75 179.26 112.615 179.063 112.486C178.866 112.357 178.689 112.237 178.531 112.126C178.383 112.016 178.284 111.92 178.236 111.838C178.146 111.697 178.06 111.53 177.979 111.338C177.908 111.148 177.849 110.949 177.802 110.742C177.757 110.525 177.721 110.31 177.696 110.096C177.681 109.885 177.69 109.688 177.722 109.505C177.735 109.434 177.773 109.305 177.838 109.118C177.904 108.92 177.999 108.707 178.123 108.478C178.247 108.249 178.407 108.021 178.604 107.794C178.801 107.567 179.032 107.383 179.298 107.242C179.886 106.928 180.593 106.624 181.419 106.33C182.254 106.038 183.124 105.763 184.027 105.504C184.93 105.245 185.828 105.011 186.723 104.803C187.617 104.595 188.427 104.418 189.153 104.275C189.879 104.131 190.473 104.021 190.936 103.946C191.4 103.861 191.658 103.822 191.709 103.831C191.739 103.837 191.784 103.881 191.842 103.965C191.913 104.04 191.945 104.093 191.94 104.123C191.936 104.143 191.895 104.23 191.815 104.383C191.738 104.527 191.644 104.703 191.534 104.914C191.423 105.125 191.299 105.354 191.161 105.601C191.026 105.839 190.897 106.062 190.777 106.271C190.658 106.469 190.55 106.638 190.452 106.778C190.366 106.909 190.312 106.978 190.29 106.985C189.428 107.073 188.547 107.174 187.649 107.287C186.761 107.403 185.897 107.527 185.058 107.662C184.231 107.788 183.444 107.921 182.698 108.061C181.962 108.203 181.314 108.35 180.753 108.502C180.193 108.655 179.742 108.81 179.401 108.97C179.059 109.129 178.87 109.284 178.833 109.434C178.824 109.485 178.915 109.559 179.107 109.655C179.311 109.743 179.558 109.855 179.848 109.99C180.14 110.114 180.454 110.259 180.791 110.423C181.13 110.576 181.431 110.739 181.693 110.911C182.097 111.17 182.492 111.449 182.879 111.747C183.276 112.047 183.655 112.355 184.018 112.67C184.381 112.985 184.722 113.301 185.043 113.619C185.373 113.939 185.679 114.249 185.961 114.549C186.621 115.251 187.158 115.853 187.572 116.355C187.997 116.848 188.348 117.26 188.624 117.591C188.91 117.924 189.158 118.177 189.368 118.35C189.578 118.523 189.81 118.631 190.064 118.676L190.642 118.778C190.834 118.812 190.976 118.9 191.066 119.041C191.158 119.172 191.214 119.329 191.234 119.51C191.266 119.683 191.272 119.856 191.252 120.031C191.242 120.207 191.226 120.355 191.205 120.477ZM199.612 102.151C199.605 102.192 199.525 102.256 199.374 102.345C199.232 102.435 199.059 102.529 198.853 102.629C198.647 102.729 198.425 102.831 198.187 102.935C197.961 103.031 197.754 103.11 197.566 103.171C197.099 103.329 196.645 103.411 196.205 103.417C195.766 103.413 195.37 103.379 195.015 103.317C194.771 103.274 194.542 103.212 194.326 103.133C194.101 103.041 193.903 102.948 193.732 102.855C193.562 102.752 193.432 102.656 193.343 102.567C193.246 102.466 193.204 102.381 193.216 102.31C193.229 102.239 193.296 102.183 193.418 102.141C193.541 102.1 193.778 102.09 194.13 102.11C194.449 102.135 194.77 102.155 195.091 102.17C195.415 102.174 195.735 102.168 196.052 102.151C196.358 102.132 196.646 102.099 196.916 102.052C197.196 102.007 197.443 101.936 197.659 101.838C197.465 101.752 197.29 101.648 197.134 101.526C196.988 101.406 196.836 101.291 196.678 101.179C196.532 101.059 196.378 100.954 196.216 100.862C196.046 100.759 195.849 100.688 195.626 100.649C195.505 100.627 195.361 100.639 195.197 100.683C195.032 100.727 194.876 100.783 194.728 100.851C194.58 100.919 194.454 100.98 194.35 101.035C194.237 101.088 194.175 101.114 194.164 101.112C194.073 101.096 194.038 101.027 194.06 100.906C194.065 100.875 194.115 100.769 194.21 100.587C194.307 100.395 194.441 100.194 194.614 99.984C194.787 99.774 194.991 99.5956 195.226 99.4488C195.463 99.2919 195.728 99.2394 196.023 99.2912C196.296 99.3395 196.544 99.446 196.766 99.6106C196.99 99.765 197.21 99.9398 197.426 100.135C197.653 100.332 197.891 100.525 198.14 100.715C198.388 100.906 198.676 101.056 199.001 101.165C199.04 101.183 199.093 101.239 199.16 101.334C199.238 101.421 199.309 101.523 199.373 101.639C199.436 101.754 199.49 101.863 199.535 101.965C199.591 102.059 199.617 102.121 199.612 102.151ZM195.367 116.616C195.344 116.748 195.304 116.913 195.248 117.112C195.203 117.313 195.138 117.532 195.054 117.768C194.971 118.004 194.87 118.253 194.75 118.514C194.631 118.776 194.497 119.034 194.347 119.29C194.141 119.63 193.902 119.975 193.631 120.325C193.36 120.674 193.055 120.981 192.716 121.245C192.387 121.512 192.022 121.714 191.621 121.852C191.22 121.991 190.786 122.019 190.32 121.937L189.727 121.832C189.534 121.798 189.388 121.736 189.289 121.645C189.19 121.554 189.127 121.439 189.1 121.298C189.062 121.155 189.055 120.987 189.079 120.792C189.093 120.596 189.122 120.371 189.166 120.118C189.2 119.925 189.244 119.739 189.296 119.56C189.34 119.369 189.405 119.208 189.491 119.077C189.567 118.944 189.669 118.842 189.796 118.77C189.924 118.699 190.084 118.68 190.277 118.714L190.87 118.818C191.245 118.884 191.599 118.921 191.933 118.927C192.278 118.925 192.579 118.879 192.836 118.788C193.102 118.7 193.321 118.555 193.492 118.355C193.674 118.157 193.793 117.896 193.85 117.571C193.884 117.379 193.901 117.073 193.902 116.655C193.904 116.227 193.897 115.734 193.88 115.177C193.863 114.62 193.844 114.021 193.821 113.379C193.808 112.739 193.799 112.11 193.793 111.492C193.787 110.874 193.796 110.29 193.819 109.74C193.843 109.19 193.889 108.722 193.957 108.337C194.003 108.073 194.102 107.813 194.251 107.558C194.401 107.302 194.572 107.076 194.763 106.879C194.966 106.675 195.172 106.517 195.379 106.408C195.587 106.298 195.767 106.256 195.919 106.283C195.929 106.285 195.97 106.35 196.041 106.477C196.115 106.595 196.203 106.746 196.306 106.932C196.411 107.107 196.518 107.304 196.626 107.521C196.746 107.731 196.852 107.927 196.945 108.111C197.049 108.297 197.13 108.457 197.19 108.593C197.261 108.721 197.296 108.79 197.294 108.8C197.291 108.82 197.231 108.862 197.116 108.925C197.01 108.99 196.884 109.083 196.737 109.204C196.592 109.314 196.452 109.456 196.317 109.631C196.191 109.808 196.107 110.018 196.064 110.261C195.993 110.667 195.929 111.147 195.873 111.702C195.819 112.246 195.766 112.812 195.715 113.399C195.674 113.988 195.624 114.565 195.567 115.13C195.509 115.694 195.442 116.19 195.367 116.616ZM204.219 102.352C204.462 102.394 204.662 102.477 204.818 102.598C204.976 102.71 205.099 102.846 205.185 103.008C205.284 103.161 205.343 103.329 205.363 103.51C205.384 103.691 205.378 103.873 205.345 104.056C205.297 104.33 205.185 104.608 205.01 104.891C204.835 105.173 204.603 105.42 204.315 105.631C204.027 105.841 203.69 106.001 203.305 106.111C202.932 106.213 202.517 106.223 202.06 106.143C201.858 106.107 201.619 106.065 201.345 106.017C201.084 105.96 200.822 105.903 200.56 105.847C200.298 105.79 200.055 105.742 199.832 105.703C199.611 105.653 199.45 105.62 199.348 105.602C199.064 105.552 198.883 105.541 198.805 105.569C198.727 105.597 198.666 105.649 198.621 105.725C198.592 105.772 198.542 105.847 198.472 105.949C198.401 106.052 198.325 106.096 198.244 106.082C198.133 106.062 198.1 105.92 198.147 105.657C198.159 105.586 198.189 105.476 198.236 105.327C198.285 105.169 198.359 105.014 198.459 104.865C198.56 104.705 198.689 104.566 198.846 104.447C199.005 104.318 199.201 104.243 199.435 104.221C199.52 104.215 199.634 104.22 199.778 104.235C199.933 104.241 200.092 104.259 200.254 104.287C200.429 104.308 200.597 104.332 200.759 104.361C200.921 104.389 201.063 104.414 201.185 104.436C201.347 104.171 201.534 103.907 201.749 103.641C201.975 103.367 202.221 103.128 202.487 102.924C202.754 102.71 203.034 102.55 203.324 102.445C203.616 102.329 203.915 102.298 204.219 102.352ZM204.232 104.408C204.249 104.317 204.229 104.22 204.174 104.116C204.131 104.004 204.008 103.93 203.806 103.894C203.684 103.873 203.541 103.884 203.376 103.928C203.213 103.962 203.047 104.016 202.877 104.091C202.719 104.157 202.568 104.241 202.425 104.341C202.294 104.433 202.19 104.519 202.113 104.599C202.813 104.723 203.333 104.767 203.673 104.733C204.016 104.689 204.202 104.581 204.232 104.408ZM201.087 119.757C201.051 119.96 200.983 120.199 200.882 120.474C200.783 120.739 200.666 121.016 200.532 121.306C200.407 121.598 200.268 121.882 200.115 122.158C199.973 122.426 199.837 122.668 199.704 122.885C199.572 123.103 199.452 123.275 199.346 123.403C199.24 123.53 199.167 123.591 199.126 123.583C199.035 123.567 198.933 123.523 198.82 123.451C198.718 123.381 198.673 123.305 198.688 123.224C198.693 123.193 198.712 123.144 198.745 123.077C198.79 123.001 198.836 122.889 198.883 122.741C198.94 122.594 198.999 122.406 199.061 122.176C199.132 121.948 199.198 121.667 199.257 121.332C199.308 121.038 199.341 120.615 199.355 120.063C199.379 119.513 199.392 118.904 199.395 118.236C199.408 117.569 199.409 116.879 199.399 116.166C199.391 115.443 199.383 114.773 199.377 114.155C199.381 113.538 199.381 113.005 199.377 112.555C199.383 112.106 199.398 111.811 199.423 111.669C199.465 111.436 199.56 111.16 199.711 110.841C199.871 110.525 200.057 110.212 200.268 109.905C200.491 109.588 200.731 109.296 200.987 109.028C201.254 108.761 201.513 108.566 201.764 108.443C201.847 108.625 201.89 108.831 201.891 109.061C201.904 109.283 201.898 109.465 201.873 109.607L201.674 110.733L201.087 119.757Z" fill="#383838"/>
<rect x="135.215" y="143.589" width="62" height="15.7514" rx="7.87568" transform="rotate(10 135.215 143.589)" fill="white"/>
<path d="M143.227 150.824C143.074 150.797 142.958 150.73 142.878 150.622C142.804 150.51 142.781 150.377 142.808 150.224C142.834 150.071 142.901 149.958 143.008 149.883C143.121 149.804 143.254 149.777 143.407 149.804C143.56 149.831 143.673 149.901 143.747 150.013C143.827 150.121 143.854 150.251 143.827 150.404C143.8 150.557 143.73 150.673 143.617 150.752C143.51 150.827 143.38 150.851 143.227 150.824ZM143.423 151.699L142.674 155.947L141.995 155.828L142.744 151.58L143.423 151.699ZM145.596 156.55C145.182 156.477 144.815 156.322 144.495 156.085C144.181 155.848 143.958 155.552 143.828 155.196L144.48 154.882C144.558 155.164 144.704 155.4 144.916 155.589C145.133 155.779 145.412 155.905 145.752 155.964C146.052 156.017 146.297 156.002 146.487 155.919C146.678 155.83 146.79 155.692 146.823 155.505C146.844 155.386 146.823 155.271 146.761 155.161C146.705 155.046 146.573 154.947 146.366 154.864L145.384 154.472C144.986 154.314 144.713 154.12 144.567 153.89C144.426 153.66 144.382 153.399 144.434 153.104C144.475 152.872 144.577 152.671 144.742 152.501C144.912 152.333 145.128 152.213 145.392 152.143C145.662 152.068 145.964 152.06 146.298 152.119C146.717 152.193 147.057 152.337 147.317 152.552C147.577 152.768 147.751 153.038 147.84 153.363L147.205 153.636C147.152 153.37 147.028 153.161 146.833 153.01C146.639 152.853 146.426 152.754 146.193 152.714C145.99 152.678 145.809 152.675 145.652 152.706C145.5 152.737 145.376 152.797 145.278 152.885C145.188 152.968 145.132 153.072 145.11 153.197C145.088 153.322 145.11 153.445 145.176 153.568C145.243 153.685 145.388 153.786 145.612 153.873L146.635 154.281C147.018 154.43 147.273 154.609 147.399 154.818C147.526 155.027 147.566 155.262 147.52 155.523C147.473 155.789 147.361 156.012 147.183 156.191C147.007 156.364 146.782 156.482 146.508 156.545C146.234 156.607 145.93 156.609 145.596 156.55ZM152.916 152.129L152.161 156.411C152.124 156.621 152.156 156.787 152.257 156.91C152.358 157.033 152.502 157.111 152.689 157.144C152.853 157.173 153 157.169 153.128 157.134C153.257 157.098 153.379 157.041 153.492 156.961L153.629 157.572C153.478 157.668 153.306 157.734 153.113 157.77C152.925 157.807 152.715 157.806 152.483 157.765C152.268 157.727 152.073 157.654 151.899 157.548C151.726 157.435 151.598 157.287 151.513 157.103C151.436 156.914 151.418 156.683 151.46 156.41L152.203 152.196L152.916 152.129ZM154.249 153.608L154.146 154.195L151.071 153.652L151.174 153.066L154.249 153.608ZM154.341 158.005L155.435 151.803L156.114 151.922L155.657 154.514C155.85 154.285 156.077 154.135 156.341 154.065C156.605 153.994 156.881 153.985 157.17 154.036C157.475 154.09 157.742 154.198 157.971 154.361C158.2 154.518 158.367 154.729 158.473 154.993C158.584 155.257 158.607 155.574 158.542 155.942L158.062 158.661L157.383 158.541L157.82 156.06C157.903 155.59 157.858 155.246 157.686 155.029C157.521 154.807 157.291 154.67 156.997 154.618C156.793 154.582 156.58 154.595 156.36 154.655C156.139 154.715 155.941 154.844 155.766 155.041C155.598 155.233 155.482 155.511 155.418 155.873L155.021 158.124L154.341 158.005ZM161.192 159.3C160.79 159.229 160.446 159.078 160.159 158.847C159.879 158.616 159.68 158.321 159.562 157.962C159.445 157.596 159.428 157.185 159.508 156.726C159.589 156.267 159.747 155.889 159.98 155.591C160.215 155.288 160.5 155.076 160.837 154.954C161.174 154.832 161.538 154.806 161.929 154.875C162.325 154.945 162.647 155.089 162.895 155.308C163.148 155.528 163.322 155.798 163.417 156.118C163.514 156.433 163.53 156.772 163.466 157.134C163.449 157.231 163.431 157.318 163.411 157.396C163.391 157.475 163.371 157.544 163.348 157.604L159.916 156.999L160.022 156.396L163.157 156.949L162.797 156.955C162.869 156.547 162.811 156.213 162.623 155.952C162.441 155.692 162.169 155.53 161.807 155.467C161.529 155.418 161.277 155.44 161.05 155.535C160.83 155.624 160.642 155.781 160.485 156.004C160.336 156.223 160.231 156.503 160.171 156.843C160.112 157.177 160.118 157.476 160.188 157.739C160.259 158.003 160.384 158.218 160.565 158.384C160.753 158.545 160.991 158.652 161.28 158.702C161.591 158.757 161.854 158.742 162.067 158.657C162.287 158.573 162.474 158.44 162.629 158.257L163.108 158.666C162.967 158.839 162.799 158.982 162.604 159.094C162.415 159.206 162.2 159.282 161.959 159.322C161.725 159.356 161.47 159.349 161.192 159.3ZM167.018 160.24L168.007 154.633L170.003 154.985C170.666 155.101 171.126 155.326 171.383 155.657C171.64 155.989 171.726 156.392 171.642 156.868C171.592 157.151 171.465 157.394 171.259 157.598C171.055 157.795 170.798 157.899 170.486 157.908L170.485 157.917C170.808 158.038 171.044 158.237 171.194 158.515C171.35 158.787 171.402 159.077 171.348 159.383C171.264 159.858 171.018 160.209 170.61 160.435C170.203 160.656 169.669 160.707 169.006 160.59L167.018 160.24ZM167.81 159.723L169.28 159.982C169.682 160.053 169.994 160.023 170.215 159.893C170.443 159.763 170.582 159.551 170.634 159.257C170.687 158.957 170.628 158.71 170.458 158.516C170.294 158.318 170.012 158.183 169.609 158.113L168.14 157.853L167.81 159.723ZM168.252 157.216L169.577 157.45C170.37 157.59 170.821 157.354 170.929 156.742C171.035 156.136 170.692 155.763 169.899 155.623L168.574 155.39L168.252 157.216ZM174.794 157.143C175.196 157.214 175.535 157.364 175.809 157.594C176.09 157.824 176.289 158.122 176.405 158.487C176.523 158.847 176.541 159.256 176.46 159.715C176.379 160.174 176.222 160.555 175.987 160.858C175.754 161.155 175.466 161.364 175.123 161.485C174.786 161.607 174.417 161.632 174.015 161.561C173.618 161.491 173.28 161.341 172.999 161.111C172.719 160.88 172.52 160.585 172.402 160.226C172.285 159.86 172.267 159.449 172.348 158.99C172.429 158.531 172.586 158.153 172.82 157.855C173.054 157.552 173.343 157.34 173.685 157.219C174.028 157.099 174.397 157.073 174.794 157.143ZM174.69 157.73C174.402 157.679 174.144 157.7 173.917 157.795C173.69 157.889 173.498 158.048 173.342 158.271C173.193 158.49 173.088 158.77 173.028 159.11C172.969 159.444 172.972 159.742 173.037 160.005C173.107 160.268 173.233 160.483 173.414 160.649C173.594 160.815 173.829 160.924 174.118 160.975C174.407 161.026 174.665 161.004 174.892 160.91C175.119 160.816 175.307 160.656 175.458 160.432C175.614 160.208 175.722 159.929 175.781 159.595C175.841 159.255 175.835 158.956 175.764 158.698C175.699 158.436 175.576 158.222 175.395 158.055C175.214 157.889 174.979 157.78 174.69 157.73ZM179.718 158.012C180.12 158.083 180.459 158.233 180.734 158.462C181.014 158.693 181.213 158.991 181.33 159.356C181.447 159.715 181.466 160.124 181.385 160.583C181.304 161.042 181.146 161.423 180.912 161.726C180.678 162.024 180.39 162.233 180.048 162.353C179.711 162.475 179.341 162.5 178.939 162.43C178.543 162.36 178.204 162.209 177.924 161.979C177.643 161.748 177.444 161.453 177.326 161.094C177.21 160.729 177.192 160.317 177.273 159.858C177.354 159.399 177.511 159.021 177.744 158.724C177.979 158.42 178.267 158.208 178.61 158.088C178.952 157.967 179.322 157.942 179.718 158.012ZM179.615 158.598C179.326 158.547 179.068 158.569 178.841 158.663C178.614 158.757 178.423 158.916 178.267 159.14C178.117 159.359 178.012 159.638 177.952 159.978C177.893 160.312 177.896 160.61 177.961 160.873C178.031 161.136 178.157 161.351 178.338 161.518C178.519 161.684 178.754 161.792 179.043 161.843C179.331 161.894 179.589 161.873 179.816 161.778C180.043 161.684 180.232 161.524 180.382 161.3C180.539 161.076 180.646 160.797 180.705 160.463C180.765 160.123 180.759 159.825 180.688 159.567C180.623 159.304 180.5 159.09 180.32 158.924C180.139 158.757 179.904 158.649 179.615 158.598ZM186.599 159.312L184.44 160.824L184.25 160.957L182.611 162.105L182.761 161.255L185.741 159.161L186.599 159.312ZM183.893 156.821L182.8 163.023L182.12 162.903L183.213 156.701L183.893 156.821ZM184.561 160.486L185.952 163.578L185.127 163.433L183.924 160.768L184.561 160.486Z" fill="#383838"/>
</g>
<g clip-path="url(#clip3_4969_11708)">
<rect x="220.086" y="85.5525" width="55.3784" height="92.0216" rx="14.3784" transform="rotate(10 220.086 85.5525)" fill="#F7F7F7"/>
<path d="M235.815 110.354C235.809 110.384 235.769 110.466 235.693 110.599C235.628 110.734 235.548 110.887 235.455 111.059C235.364 111.22 235.269 111.376 235.169 111.526C235.081 111.667 235.014 111.755 234.966 111.788C234.882 111.846 234.78 111.896 234.657 111.937C234.535 111.979 234.396 112.027 234.239 112.083L230.21 113.412C229.943 113.501 229.764 113.568 229.672 113.615C229.57 113.66 229.479 113.675 229.397 113.66C229.266 113.637 229.212 113.555 229.237 113.413C229.244 113.372 229.281 113.284 229.346 113.15C229.402 113.013 229.469 112.868 229.548 112.715C229.618 112.56 229.689 112.421 229.763 112.298C229.839 112.165 229.901 112.082 229.948 112.048C229.996 112.015 230.059 111.984 230.137 111.956C230.217 111.918 230.335 111.871 230.491 111.814L234.623 110.441C234.812 110.381 235.012 110.311 235.224 110.234C235.447 110.158 235.588 110.125 235.649 110.136C235.72 110.149 235.767 110.178 235.791 110.224C235.816 110.26 235.824 110.303 235.815 110.354ZM243.371 129.675C243.319 129.969 243.265 130.216 243.209 130.415C243.163 130.616 243.099 130.772 243.017 130.883C242.945 130.996 242.848 131.068 242.728 131.099C242.607 131.13 242.451 131.128 242.258 131.094L241.665 130.99C241.188 130.906 240.801 130.79 240.503 130.644C240.216 130.489 239.984 130.265 239.805 129.972C239.627 129.679 239.486 129.293 239.382 128.815C239.278 128.337 239.176 127.733 239.074 127.004C238.951 127.171 238.805 127.375 238.637 127.617C238.468 127.859 238.273 128.107 238.051 128.361C237.838 128.616 237.596 128.861 237.325 129.095C237.064 129.332 236.773 129.526 236.454 129.679C236.076 129.863 235.579 130.042 234.963 130.216C234.345 130.4 233.635 130.546 232.831 130.656C232.028 130.765 231.141 130.812 230.171 130.798C229.199 130.794 228.166 130.696 227.071 130.502C225.935 130.302 225.011 130.029 224.298 129.684C223.585 129.339 223.038 128.944 222.656 128.501C222.282 128.069 222.046 127.599 221.948 127.09C221.861 126.573 221.866 126.04 221.963 125.493C221.995 125.31 222.056 125.085 222.144 124.819C222.245 124.544 222.359 124.255 222.485 123.954C222.624 123.643 222.762 123.333 222.9 123.023C223.039 122.713 223.166 122.437 223.281 122.196C223.409 121.947 223.512 121.746 223.592 121.592C223.681 121.441 223.731 121.366 223.741 121.368C223.934 121.402 224.067 121.477 224.14 121.595C224.214 121.712 224.246 121.796 224.237 121.847C224.23 121.888 224.197 121.981 224.14 122.128C224.083 122.275 224.022 122.442 223.958 122.629C223.893 122.816 223.828 123.009 223.762 123.206C223.697 123.394 223.654 123.553 223.63 123.685C223.453 124.689 223.749 125.504 224.517 126.131C225.294 126.76 226.485 127.215 228.087 127.498C228.462 127.564 228.902 127.621 229.406 127.668C229.922 127.706 230.471 127.735 231.053 127.754C231.635 127.773 232.226 127.773 232.825 127.753C233.435 127.735 234.022 127.697 234.586 127.64C235.152 127.573 235.674 127.487 236.153 127.383C236.633 127.269 237.035 127.125 237.358 126.952C237.809 126.708 238.154 126.382 238.393 125.974C238.644 125.559 238.811 125.117 238.893 124.651C239.031 123.87 239.118 123.075 239.157 122.266C239.207 121.449 239.231 120.69 239.229 119.989C239.239 119.28 239.239 118.658 239.228 118.123C239.228 117.59 239.248 117.212 239.287 116.988C239.336 116.715 239.43 116.449 239.569 116.191C239.719 115.935 239.883 115.713 240.063 115.525C240.242 115.338 240.425 115.192 240.61 115.089C240.808 114.977 240.983 114.935 241.135 114.962C241.297 114.99 241.396 115.112 241.431 115.327C241.468 115.533 241.469 115.794 241.434 116.112C241.393 116.461 241.346 116.876 241.293 117.358C241.251 117.831 241.198 118.34 241.133 118.882C241.071 119.415 241.007 119.953 240.943 120.496C240.879 121.038 240.82 121.551 240.766 122.033C240.714 122.505 240.665 122.93 240.62 123.309C240.576 123.677 240.548 123.95 240.538 124.126C240.483 124.733 240.454 125.256 240.45 125.694C240.446 126.132 240.496 126.502 240.6 126.803C240.705 127.093 240.884 127.323 241.136 127.493C241.389 127.663 241.748 127.789 242.215 127.872L242.808 127.976C243.001 128.01 243.146 128.072 243.245 128.163C243.346 128.244 243.41 128.354 243.438 128.495C243.475 128.638 243.482 128.806 243.458 129.001C243.445 129.197 243.416 129.422 243.371 129.675ZM233.962 120.77C233.878 121.247 233.698 121.649 233.42 121.976C233.145 122.294 232.833 122.552 232.484 122.752C232.147 122.944 231.809 123.078 231.472 123.154C231.136 123.22 230.867 123.236 230.664 123.2C230.41 123.155 230.162 123.08 229.919 122.975C229.689 122.861 229.471 122.733 229.265 122.593C229.062 122.442 228.881 122.284 228.721 122.12C228.574 121.948 228.462 121.782 228.386 121.622C228.643 121.646 228.962 121.671 229.345 121.697C229.739 121.714 230.114 121.723 230.469 121.723C230.837 121.714 231.149 121.691 231.407 121.653C231.677 121.606 231.821 121.532 231.838 121.431C231.854 121.34 231.804 121.268 231.688 121.216C231.574 121.154 231.427 121.097 231.248 121.044C231.081 120.984 230.893 120.924 230.683 120.867C230.486 120.8 230.301 120.721 230.129 120.628C229.968 120.536 229.837 120.419 229.737 120.276C229.636 120.133 229.606 119.95 229.645 119.727C229.695 119.443 229.801 119.137 229.964 118.811C230.126 118.484 230.36 118.164 230.666 117.852C230.974 117.53 231.356 117.226 231.815 116.941C232.285 116.648 232.847 116.391 233.503 116.172C233.514 116.227 233.524 116.349 233.532 116.538C233.551 116.73 233.567 116.936 233.58 117.158C233.593 117.38 233.599 117.585 233.597 117.773C233.605 117.963 233.611 118.079 233.614 118.121C233.445 118.07 233.25 118.052 233.028 118.065C232.818 118.07 232.614 118.102 232.415 118.161C232.218 118.21 232.044 118.278 231.893 118.366C231.751 118.457 231.672 118.552 231.654 118.654C231.61 118.845 231.641 118.991 231.749 119.094C231.866 119.198 232.019 119.283 232.206 119.347C232.393 119.411 232.597 119.468 232.819 119.518C233.05 119.569 233.257 119.642 233.439 119.737C233.621 119.832 233.765 119.962 233.872 120.127C233.981 120.282 234.011 120.497 233.962 120.77ZM246.879 133.706C246.874 133.736 246.833 133.818 246.758 133.951C246.692 134.086 246.614 134.234 246.522 134.396C246.429 134.567 246.334 134.723 246.236 134.863C246.147 135.014 246.078 135.107 246.03 135.14C245.947 135.198 245.844 135.248 245.722 135.289C245.599 135.331 245.46 135.379 245.304 135.435L241.274 136.764C241.007 136.853 240.823 136.919 240.721 136.964C240.629 137.011 240.543 137.027 240.462 137.013C240.33 136.989 240.276 136.907 240.301 136.765C240.309 136.724 240.34 136.636 240.395 136.499C240.461 136.364 240.528 136.219 240.598 136.064C240.677 135.911 240.754 135.768 240.83 135.635C240.904 135.512 240.965 135.434 241.013 135.4C241.06 135.367 241.124 135.331 241.204 135.293C241.282 135.265 241.399 135.223 241.556 135.167L245.687 133.793C245.876 133.733 246.076 133.663 246.289 133.586C246.511 133.51 246.653 133.477 246.714 133.488C246.785 133.501 246.833 133.525 246.858 133.561C246.881 133.607 246.888 133.655 246.879 133.706ZM247.518 125.811C247.495 125.943 247.455 126.109 247.399 126.308C247.354 126.509 247.289 126.727 247.205 126.964C247.122 127.2 247.021 127.449 246.901 127.71C246.782 127.971 246.648 128.23 246.498 128.486C246.291 128.826 246.053 129.17 245.782 129.52C245.511 129.87 245.206 130.177 244.867 130.441C244.538 130.707 244.173 130.909 243.772 131.048C243.371 131.186 242.937 131.214 242.471 131.132L241.878 131.027C241.685 130.993 241.539 130.931 241.44 130.84C241.341 130.75 241.278 130.634 241.25 130.493C241.213 130.351 241.206 130.182 241.23 129.988C241.244 129.792 241.273 129.567 241.317 129.313C241.351 129.12 241.395 128.935 241.447 128.756C241.491 128.565 241.556 128.404 241.642 128.272C241.718 128.139 241.819 128.037 241.947 127.966C242.075 127.894 242.235 127.875 242.428 127.909L243.021 128.014C243.396 128.08 243.75 128.116 244.084 128.123C244.429 128.121 244.73 128.075 244.987 127.984C245.253 127.895 245.472 127.751 245.643 127.551C245.825 127.353 245.944 127.091 246.001 126.767C246.035 126.574 246.052 126.269 246.053 125.851C246.055 125.422 246.048 124.93 246.031 124.373C246.014 123.816 245.995 123.216 245.972 122.574C245.959 121.934 245.95 121.305 245.944 120.687C245.938 120.069 245.947 119.485 245.97 118.935C245.994 118.385 246.04 117.918 246.108 117.532C246.154 117.269 246.253 117.009 246.402 116.753C246.552 116.497 246.722 116.271 246.914 116.075C247.117 115.87 247.323 115.713 247.53 115.603C247.738 115.493 247.918 115.452 248.07 115.479C248.08 115.48 248.121 115.545 248.192 115.673C248.266 115.79 248.354 115.942 248.457 116.127C248.562 116.303 248.669 116.499 248.777 116.717C248.897 116.926 249.003 117.123 249.096 117.306C249.2 117.492 249.281 117.653 249.341 117.789C249.412 117.916 249.447 117.985 249.445 117.995C249.442 118.016 249.382 118.057 249.266 118.121C249.161 118.186 249.035 118.278 248.888 118.399C248.743 118.509 248.603 118.652 248.468 118.827C248.342 119.003 248.258 119.213 248.215 119.457C248.144 119.862 248.08 120.342 248.024 120.897C247.97 121.442 247.917 122.008 247.866 122.595C247.825 123.183 247.775 123.76 247.718 124.325C247.66 124.89 247.593 125.385 247.518 125.811ZM251.446 121.684L251.355 123.974C251.304 124.268 251.216 124.587 251.093 124.931C250.981 125.267 250.858 125.58 250.723 125.87C250.599 126.162 250.473 126.401 250.346 126.588C250.229 126.776 250.14 126.865 250.079 126.854C249.866 126.817 249.78 126.681 249.821 126.448L249.98 125.551C250.039 125.216 250.068 124.871 250.068 124.515C250.07 124.15 250.064 123.798 250.05 123.461C250.048 123.116 250.041 122.801 250.028 122.517C250.016 122.232 250.025 122.004 250.055 121.831C250.087 121.649 250.146 121.434 250.231 121.188C250.318 120.931 250.426 120.678 250.553 120.429C250.683 120.17 250.825 119.928 250.979 119.704C251.145 119.472 251.32 119.283 251.502 119.138C251.583 119.215 251.633 119.344 251.654 119.525C251.676 119.696 251.68 119.88 251.666 120.076C251.663 120.274 251.645 120.465 251.613 120.647C251.592 120.821 251.577 120.939 251.566 121L251.446 121.684ZM260.317 112.643C260.312 112.674 260.271 112.755 260.195 112.888C260.13 113.023 260.05 113.176 259.957 113.348C259.866 113.51 259.771 113.666 259.671 113.815C259.584 113.957 259.516 114.044 259.468 114.077C259.385 114.136 259.282 114.186 259.159 114.227C259.037 114.268 258.898 114.317 258.742 114.373L254.712 115.701C254.445 115.79 254.266 115.858 254.174 115.904C254.072 115.949 253.981 115.964 253.9 115.95C253.768 115.927 253.714 115.844 253.739 115.702C253.746 115.662 253.783 115.574 253.848 115.439C253.904 115.303 253.971 115.158 254.051 115.004C254.12 114.849 254.191 114.71 254.265 114.587C254.341 114.454 254.403 114.371 254.45 114.338C254.498 114.304 254.561 114.274 254.639 114.245C254.719 114.207 254.837 114.16 254.994 114.104L259.125 112.731C259.314 112.67 259.514 112.601 259.726 112.523C259.949 112.447 260.091 112.415 260.151 112.426C260.222 112.438 260.27 112.467 260.293 112.513C260.318 112.549 260.326 112.592 260.317 112.643ZM259.525 130.391C259.476 130.664 259.409 130.924 259.324 131.171C259.249 131.419 259.162 131.644 259.064 131.846C258.977 132.04 258.88 132.206 258.772 132.344C258.676 132.473 258.582 132.561 258.491 132.608C258.037 132.81 257.571 132.963 257.092 133.067C256.624 133.173 256.152 133.241 255.676 133.272C255.21 133.305 254.745 133.301 254.282 133.262C253.817 133.232 253.371 133.179 252.945 133.104C252.712 133.063 252.479 133.017 252.248 132.966C252.015 132.925 251.804 132.877 251.615 132.823C251.434 132.78 251.285 132.733 251.169 132.681C251.063 132.631 251.013 132.586 251.02 132.545C251.024 132.525 251.049 132.441 251.096 132.292C251.145 132.133 251.205 131.945 251.274 131.728C251.354 131.512 251.432 131.28 251.507 131.031C251.594 130.775 251.677 130.544 251.755 130.338C251.835 130.122 251.902 129.946 251.958 129.809C252.023 129.674 252.066 129.609 252.087 129.612C252.137 129.621 252.316 129.674 252.623 129.77C252.931 129.866 253.287 129.949 253.693 130.021C254.95 130.243 255.986 130.326 256.801 130.271C257.626 130.218 258.175 130.069 258.448 129.824C258.469 129.41 258.345 129.017 258.076 128.645C257.819 128.265 257.498 127.921 257.113 127.613C256.73 127.294 256.319 127.018 255.879 126.783C255.449 126.551 255.068 126.374 254.734 126.252C254.582 126.163 254.521 126.037 254.549 125.875C254.558 125.824 254.598 125.716 254.669 125.551C254.74 125.385 254.825 125.202 254.923 124.999C255.023 124.787 255.13 124.566 255.244 124.335C255.358 124.104 255.468 123.898 255.572 123.718C255.679 123.528 255.764 123.37 255.828 123.246C255.902 123.123 255.949 123.063 255.97 123.067C255.99 123.07 256.034 123.088 256.101 123.121C256.169 123.154 256.212 123.177 256.23 123.191C256.91 123.604 257.481 124.102 257.943 124.685C258.415 125.27 258.781 125.889 259.043 126.541C259.314 127.196 259.485 127.858 259.555 128.529C259.637 129.192 259.626 129.813 259.525 130.391ZM259.54 119.807C259.533 119.847 259.482 119.927 259.388 120.047C259.306 120.157 259.199 120.29 259.067 120.445C258.935 120.599 258.786 120.761 258.62 120.931C258.465 121.102 258.312 121.258 258.162 121.399C258.023 121.531 257.893 121.644 257.772 121.738C257.653 121.821 257.573 121.859 257.533 121.852C257.502 121.847 257.383 121.753 257.175 121.57C256.978 121.378 256.77 121.169 256.548 120.942C256.329 120.704 256.128 120.481 255.945 120.271C255.774 120.052 255.694 119.918 255.703 119.867C255.71 119.827 255.755 119.746 255.839 119.625C255.934 119.505 256.047 119.368 256.178 119.214C256.32 119.061 256.469 118.899 256.625 118.728C256.791 118.559 256.943 118.408 257.081 118.275C257.231 118.134 257.361 118.021 257.47 117.936C257.581 117.841 257.657 117.796 257.698 117.804C257.758 117.814 257.887 117.915 258.083 118.107C258.29 118.3 258.503 118.515 258.722 118.753C258.943 118.98 259.134 119.202 259.295 119.418C259.467 119.627 259.549 119.756 259.54 119.807Z" fill="#383838"/>
<rect x="214.682" y="157.601" width="41" height="15.7514" rx="7.87568" transform="rotate(10 214.682 157.601)" fill="white"/>
<path d="M229.504 165.476L229.392 166.113L227.438 165.768L226.561 170.739L225.882 170.619L226.758 165.649L224.804 165.304L224.916 164.667L229.504 165.476ZM229.237 171.21L230.331 165.008L231.011 165.128L230.554 167.72C230.746 167.491 230.974 167.341 231.237 167.271C231.501 167.2 231.777 167.191 232.066 167.242C232.372 167.296 232.639 167.404 232.867 167.567C233.096 167.724 233.264 167.935 233.369 168.198C233.48 168.463 233.503 168.78 233.438 169.148L232.959 171.867L232.279 171.747L232.716 169.266C232.799 168.796 232.755 168.452 232.583 168.235C232.418 168.013 232.188 167.876 231.893 167.824C231.689 167.788 231.477 167.801 231.256 167.861C231.035 167.921 230.837 168.05 230.662 168.247C230.494 168.439 230.378 168.716 230.314 169.079L229.917 171.33L229.237 171.21ZM235.56 167.104C235.407 167.077 235.291 167.01 235.211 166.903C235.137 166.79 235.114 166.658 235.141 166.505C235.168 166.352 235.234 166.238 235.341 166.163C235.454 166.084 235.587 166.058 235.74 166.085C235.893 166.112 236.006 166.181 236.08 166.294C236.16 166.401 236.187 166.532 236.16 166.684C236.133 166.837 236.063 166.954 235.95 167.033C235.843 167.107 235.713 167.131 235.56 167.104ZM235.756 167.98L235.007 172.228L234.328 172.108L235.077 167.86L235.756 167.98ZM237.929 172.831C237.515 172.758 237.149 172.602 236.828 172.365C236.514 172.128 236.292 171.832 236.162 171.477L236.813 171.162C236.891 171.445 237.037 171.68 237.249 171.87C237.466 172.06 237.745 172.185 238.085 172.245C238.385 172.298 238.63 172.283 238.82 172.199C239.011 172.11 239.123 171.972 239.156 171.785C239.177 171.667 239.156 171.552 239.094 171.442C239.038 171.327 238.906 171.228 238.699 171.144L237.717 170.752C237.319 170.594 237.046 170.4 236.9 170.17C236.759 169.941 236.715 169.679 236.767 169.384C236.808 169.152 236.91 168.951 237.075 168.782C237.245 168.613 237.461 168.494 237.725 168.423C237.995 168.348 238.297 168.34 238.631 168.399C239.051 168.473 239.39 168.618 239.65 168.833C239.91 169.048 240.084 169.318 240.173 169.643L239.538 169.917C239.485 169.651 239.361 169.442 239.166 169.291C238.972 169.134 238.759 169.035 238.527 168.994C238.323 168.958 238.142 168.955 237.985 168.986C237.833 169.018 237.709 169.078 237.612 169.165C237.521 169.249 237.465 169.353 237.443 169.477C237.421 169.602 237.443 169.726 237.509 169.848C237.576 169.965 237.721 170.067 237.945 170.153L238.969 170.561C239.351 170.71 239.606 170.89 239.732 171.099C239.859 171.308 239.899 171.543 239.853 171.803C239.806 172.07 239.694 172.292 239.517 172.471C239.34 172.644 239.115 172.762 238.841 172.825C238.567 172.888 238.263 172.89 237.929 172.831Z" fill="#383838"/>
</g>
</g>
<rect x="33.272" y="0.416418" width="265.281" height="154.568" rx="16.8946" transform="rotate(10 33.272 0.416418)" stroke="url(#paint0_linear_4969_11708)" stroke-width="0.718919"/>
</g>
<defs>
<filter id="filter0_ddd_4969_11708" x="-2.72956" y="0" width="306.414" height="219.925" filterUnits="userSpaceOnUse" color-interpolation-filters="sRGB">
<feFlood flood-opacity="0" result="BackgroundImageFix"/>
<feColorMatrix in="SourceAlpha" type="matrix" values="0 0 0 0 0 0 0 0 0 0 0 0 0 0 0 0 0 0 127 0" result="hardAlpha"/>
<feMorphology radius="1.10571" operator="erode" in="SourceAlpha" result="effect1_dropShadow_4969_11708"/>
<feOffset dy="0.726377"/>
<feGaussianBlur stdDeviation="0.363189"/>
<feComposite in2="hardAlpha" operator="out"/>
<feColorMatrix type="matrix" values="0 0 0 0 0 0 0 0 0 0 0 0 0 0 0 0 0 0 0.1 0"/>
<feBlend mode="normal" in2="BackgroundImageFix" result="effect1_dropShadow_4969_11708"/>
<feColorMatrix in="SourceAlpha" type="matrix" values="0 0 0 0 0 0 0 0 0 0 0 0 0 0 0 0 0 0 127 0" result="hardAlpha"/>
<feMorphology radius="2.21142" operator="erode" in="SourceAlpha" result="effect2_dropShadow_4969_11708"/>
<feOffset dy="2.7605"/>
<feGaussianBlur stdDeviation="1.38025"/>
<feComposite in2="hardAlpha" operator="out"/>
<feColorMatrix type="matrix" values="0 0 0 0 0 0 0 0 0 0 0 0 0 0 0 0 0 0 0.09 0"/>
<feBlend mode="normal" in2="effect1_dropShadow_4969_11708" result="effect2_dropShadow_4969_11708"/>
<feColorMatrix in="SourceAlpha" type="matrix" values="0 0 0 0 0 0 0 0 0 0 0 0 0 0 0 0 0 0 127 0" result="hardAlpha"/>
<feMorphology radius="3.31714" operator="erode" in="SourceAlpha" result="effect3_dropShadow_4969_11708"/>
<feOffset dy="12.0623"/>
<feGaussianBlur stdDeviation="6.03116"/>
<feComposite in2="hardAlpha" operator="out"/>
<feColorMatrix type="matrix" values="0 0 0 0 0 0 0 0 0 0 0 0 0 0 0 0 0 0 0.06 0"/>
<feBlend mode="normal" in2="effect2_dropShadow_4969_11708" result="effect3_dropShadow_4969_11708"/>
<feBlend mode="normal" in="SourceGraphic" in2="effect3_dropShadow_4969_11708" result="shape"/>
</filter>
<linearGradient id="paint0_linear_4969_11708" x1="165.98" y1="0" x2="165.98" y2="155.286" gradientUnits="userSpaceOnUse">
<stop stop-color="white"/>
<stop offset="1" stop-color="white"/>
</linearGradient>
<clipPath id="clip0_4969_11708">
<rect x="32.9805" width="266" height="155.286" rx="17.2541" transform="rotate(10 32.9805 0)" fill="white"/>
</clipPath>
<clipPath id="clip1_4969_11708">
<rect x="102.883" y="64.8865" width="34.0054" height="92.0216" rx="14.3784" transform="rotate(10 102.883 64.8865)" fill="white"/>
</clipPath>
<clipPath id="clip2_4969_11708">
<rect x="140.619" y="71.5405" width="76.3784" height="92.0216" rx="14.3784" transform="rotate(10 140.619 71.5405)" fill="white"/>
</clipPath>
<clipPath id="clip3_4969_11708">
<rect x="220.086" y="85.5525" width="55.3784" height="92.0216" rx="14.3784" transform="rotate(10 220.086 85.5525)" fill="white"/>
</clipPath>
</defs>
</svg>
