<svg width="300" height="100" viewBox="0 0 300 100" fill="none" xmlns="http://www.w3.org/2000/svg">
<g filter="url(#filter0_ddd_4969_11569)">
<rect x="4.95898" y="27.8196" width="285" height="58.0165" rx="20.3571" transform="rotate(-5.60172 4.95898 27.8196)" fill="white" shape-rendering="crispEdges"/>
<g clip-path="url(#clip0_4969_11569)">
<rect x="13.5156" y="34.8475" width="269.341" height="42.3571" rx="15.6593" transform="rotate(-5.60172 13.5156 34.8475)" fill="#1ECE83"/>
<path d="M26.1296 51.3073L24.8147 51.4363L26.5418 44.4009L28.0626 44.2518L31.1271 50.8172L29.8121 50.9461L27.4656 45.7184L27.4124 45.7236L26.1296 51.3073ZM25.9113 48.6367L29.4975 48.2849L29.5945 49.2745L26.0083 49.6262L25.9113 48.6367ZM32.3177 43.8344L32.9847 50.635L31.7827 50.7529L31.1157 43.9523L32.3177 43.8344ZM36.7989 46.9017L36.8959 47.8912L33.8344 48.1915L33.7373 47.2019L36.7989 46.9017ZM38.2557 50.118L37.5886 43.3175L41.9452 42.8902L42.0465 43.9229L38.9219 44.2293L39.1029 46.0756L41.9288 45.7984L42.03 46.8311L39.2042 47.1083L39.4876 49.9972L38.2557 50.118ZM44.9266 49.5676C44.6034 49.5993 44.3066 49.5703 44.0363 49.4806C43.768 49.3885 43.5474 49.2358 43.3745 49.0225C43.2039 48.8091 43.1021 48.5352 43.0693 48.2009C43.0411 47.9131 43.0709 47.67 43.1587 47.4714C43.2465 47.2728 43.3767 47.108 43.5494 46.9771C43.7221 46.8462 43.9207 46.7407 44.1453 46.6605C44.3719 46.578 44.6078 46.5112 44.8531 46.4603C45.149 46.4 45.3886 46.3486 45.5722 46.306C45.7556 46.2612 45.8867 46.2081 45.9656 46.1467C46.0465 46.0829 46.0813 45.9935 46.07 45.8783L46.0681 45.8584C46.0435 45.6083 45.9504 45.4218 45.7886 45.2991C45.6268 45.1764 45.4065 45.1288 45.1275 45.1561C44.8331 45.185 44.6059 45.2721 44.4458 45.4174C44.2879 45.5626 44.1877 45.7255 44.1451 45.9062L43.0071 45.8569C43.0652 45.5383 43.1859 45.265 43.3692 45.0369C43.5522 44.8066 43.7858 44.625 44.0701 44.4921C44.3541 44.357 44.6743 44.2719 45.0307 44.237C45.2764 44.2129 45.5238 44.2177 45.773 44.2513C46.0221 44.285 46.254 44.3584 46.4684 44.4714C46.6827 44.5823 46.8618 44.7446 47.0057 44.9585C47.1518 45.1721 47.2415 45.4483 47.2747 45.787L47.6095 49.2006L46.4539 49.3139L46.3852 48.6133L46.3453 48.6172C46.2862 48.766 46.1963 48.9089 46.0756 49.0459C45.957 49.1805 45.8017 49.2952 45.6098 49.39C45.42 49.4824 45.1922 49.5416 44.9266 49.5676ZM45.1521 48.6537C45.3934 48.6301 45.5979 48.562 45.7657 48.4494C45.9332 48.3346 46.0568 48.1929 46.1363 48.0242C46.2181 47.8552 46.2498 47.6767 46.2313 47.4885L46.1723 46.8875C46.1378 46.9222 46.0764 46.9572 45.9882 46.9927C45.9023 47.0279 45.8049 47.061 45.6962 47.0917C45.5875 47.1225 45.4796 47.151 45.3727 47.1771C45.2657 47.2032 45.173 47.2258 45.0943 47.2446C44.9174 47.2866 44.7608 47.3422 44.6246 47.4114C44.4883 47.4806 44.3841 47.5691 44.312 47.6767C44.2396 47.7822 44.2111 47.9124 44.2263 48.0673C44.248 48.2887 44.3452 48.4479 44.5179 48.545C44.6905 48.642 44.9019 48.6783 45.1521 48.6537ZM50.1089 49.0593C49.7857 49.091 49.489 49.062 49.2187 48.9723C48.9504 48.8802 48.7298 48.7275 48.5569 48.5142C48.3862 48.3008 48.2845 48.0269 48.2517 47.6926C48.2235 47.4049 48.2533 47.1617 48.3411 46.9631C48.4289 46.7645 48.5591 46.5997 48.7318 46.4688C48.9044 46.3379 49.1031 46.2324 49.3276 46.1522C49.5542 46.0697 49.7902 46.0029 50.0355 45.9521C50.3313 45.8918 50.571 45.8403 50.7546 45.7977C50.9379 45.7529 51.069 45.6998 51.1479 45.6384C51.2289 45.5746 51.2637 45.4852 51.2524 45.3701L51.2504 45.3501C51.2259 45.1 51.1327 44.9136 50.9709 44.7909C50.8092 44.6681 50.5888 44.6205 50.3099 44.6478C50.0155 44.6767 49.7882 44.7638 49.6281 44.9091C49.4703 45.0543 49.37 45.2172 49.3274 45.3979L48.1894 45.3486C48.2476 45.03 48.3683 44.7567 48.5515 44.5286C48.7346 44.2983 48.9682 44.1167 49.2524 43.9838C49.5364 43.8487 49.8566 43.7636 50.213 43.7287C50.4587 43.7046 50.7062 43.7094 50.9553 43.743C51.2045 43.7767 51.4363 43.8501 51.6508 43.9632C51.865 44.074 52.0441 44.2364 52.188 44.4502C52.3341 44.6639 52.4238 44.94 52.457 45.2787L52.7918 48.6923L51.6363 48.8056L51.5675 48.105L51.5277 48.1089C51.4685 48.2577 51.3786 48.4006 51.258 48.5376C51.1393 48.6722 50.984 48.7869 50.7922 48.8817C50.6023 48.9741 50.3746 49.0333 50.1089 49.0593ZM50.3344 48.1455C50.5757 48.1218 50.7803 48.0537 50.948 47.9411C51.1156 47.8263 51.2391 47.6846 51.3187 47.5159C51.4004 47.3469 51.4321 47.1684 51.4136 46.9802L51.3547 46.3792C51.3201 46.4139 51.2587 46.4489 51.1706 46.4844C51.0846 46.5197 50.9873 46.5527 50.8786 46.5835C50.7698 46.6142 50.662 46.6427 50.555 46.6688C50.4481 46.695 50.3553 46.7175 50.2767 46.7364C50.0998 46.7783 49.9432 46.8339 49.8069 46.9031C49.6707 46.9724 49.5665 47.0608 49.4944 47.1685C49.422 47.2739 49.3934 47.4041 49.4086 47.559C49.4303 47.7804 49.5275 47.9396 49.7002 48.0367C49.8729 48.1337 50.0843 48.17 50.3344 48.1455ZM55.8601 43.2419L55.9513 44.1716L53.0193 44.4592L52.9281 43.5294L55.8601 43.2419ZM53.5321 42.2365L54.7341 42.1186L55.2038 46.9068C55.2196 47.0684 55.2561 47.19 55.3133 47.2716C55.3725 47.3507 55.4445 47.4018 55.5295 47.4247C55.6144 47.4477 55.7067 47.4543 55.8063 47.4445C55.8816 47.4371 55.9497 47.4248 56.0106 47.4077C56.0737 47.3903 56.1214 47.3756 56.1538 47.3635L56.4485 48.2833C56.3864 48.3118 56.297 48.3451 56.18 48.3834C56.0653 48.4215 55.9229 48.4511 55.7529 48.4722C55.4527 48.5106 55.1771 48.4918 54.926 48.4159C54.6747 48.3377 54.4678 48.1993 54.3053 48.0007C54.145 47.8019 54.0503 47.543 54.0213 47.224L53.5321 42.2365ZM57.1787 48.262L56.6784 43.1616L57.8805 43.0437L58.3807 48.1441L57.1787 48.262ZM57.2118 42.3784C57.0214 42.3971 56.8514 42.3501 56.7018 42.2374C56.5519 42.1224 56.4682 41.9753 56.4506 41.796C56.4328 41.6145 56.4863 41.4539 56.6112 41.3143C56.7359 41.1724 56.8934 41.0921 57.0838 41.0735C57.2764 41.0546 57.4465 41.1027 57.5941 41.2178C57.7437 41.3306 57.8274 41.4777 57.8453 41.6592C57.8628 41.8385 57.8093 41.9991 57.6846 42.141C57.562 42.2804 57.4044 42.3596 57.2118 42.3784ZM60.3387 44.9348L60.6318 47.9233L59.4298 48.0412L58.7628 41.2407L59.9383 41.1254L60.19 43.6922L60.2498 43.6863C60.3411 43.3868 60.5037 43.1418 60.7376 42.9512C60.9734 42.7582 61.2862 42.6426 61.6758 42.6044C62.03 42.5697 62.3461 42.6135 62.624 42.736C62.902 42.8585 63.127 43.0555 63.2989 43.3269C63.473 43.5982 63.5802 43.9397 63.6206 44.3514L63.9391 47.5989L62.7371 47.7168L62.4368 44.6553C62.4031 44.3121 62.2884 44.0541 62.0927 43.8811C61.8989 43.7056 61.6437 43.6334 61.3272 43.6645C61.1146 43.6853 60.9288 43.7505 60.7697 43.86C60.6126 43.967 60.4949 44.1115 60.4166 44.2935C60.3406 44.4753 60.3146 44.6891 60.3387 44.9348ZM66.4552 47.4561C66.132 47.4878 65.8352 47.4588 65.565 47.3691C65.2967 47.2769 65.0761 47.1242 64.9032 46.911C64.7325 46.6975 64.6307 46.4236 64.598 46.0894C64.5697 45.8016 64.5995 45.5584 64.6873 45.3598C64.7751 45.1612 64.9054 44.9965 65.078 44.8656C65.2507 44.7346 65.4493 44.6291 65.6739 44.549C65.9005 44.4664 66.1364 44.3997 66.3818 44.3488C66.6776 44.2885 66.9173 44.237 67.1008 44.1945C67.2842 44.1497 67.4153 44.0966 67.4942 44.0352C67.5751 43.9714 67.6099 43.8819 67.5986 43.7668L67.5967 43.7469C67.5721 43.4967 67.479 43.3103 67.3172 43.1876C67.1554 43.0649 66.9351 43.0172 66.6561 43.0446C66.3617 43.0735 66.1345 43.1606 65.9744 43.3059C65.8165 43.451 65.7163 43.6139 65.6737 43.7947L64.5357 43.7454C64.5938 43.4268 64.7145 43.1534 64.8978 42.9254C65.0808 42.6951 65.3144 42.5135 65.5987 42.3806C65.8827 42.2454 66.2029 42.1604 66.5593 42.1254C66.805 42.1013 67.0524 42.1061 67.3016 42.1398C67.5508 42.1735 67.7826 42.2468 67.997 42.3599C68.2113 42.4707 68.3904 42.6331 68.5343 42.847C68.6804 43.0606 68.7701 43.3368 68.8033 43.6755L69.1381 47.089L67.9825 47.2024L67.9138 46.5017L67.874 46.5056C67.8148 46.6545 67.7249 46.7974 67.6042 46.9344C67.4856 47.0689 67.3303 47.1836 67.1384 47.2784C66.9486 47.3708 66.7208 47.43 66.4552 47.4561ZM66.6807 46.5422C66.922 46.5185 67.1265 46.4504 67.2943 46.3379C67.4618 46.2231 67.5854 46.0813 67.6649 45.9126C67.7467 45.7437 67.7784 45.5651 67.7599 45.3769L67.701 44.7759C67.6664 44.8106 67.605 44.8457 67.5168 44.8811C67.4309 44.9164 67.3336 44.9494 67.2248 44.9802C67.1161 45.011 67.0082 45.0394 66.9013 45.0656C66.7943 45.0917 66.7016 45.1142 66.623 45.1331C66.446 45.175 66.2894 45.2306 66.1532 45.2999C66.0169 45.3691 65.9128 45.4575 65.8406 45.5652C65.7683 45.6706 65.7397 45.8008 65.7549 45.9558C65.7766 46.1772 65.8738 46.3364 66.0465 46.4334C66.2191 46.5305 66.4305 46.5667 66.6807 46.5422Z" fill="white"/>
<path d="M77.2591 45.032C76.9912 45.0583 76.7402 45.017 76.506 44.9081C76.2716 44.7969 76.0771 44.6372 75.9226 44.4289C75.7703 44.2203 75.681 43.9821 75.6547 43.7142C75.6282 43.4442 75.6695 43.1931 75.7786 42.9612C75.8897 42.7268 76.0496 42.5334 76.2581 42.3811C76.4665 42.2266 76.7046 42.1362 76.9724 42.1099C77.2425 42.0834 77.4937 42.1258 77.7258 42.2371C77.96 42.346 78.1533 42.5048 78.3056 42.7133C78.4599 42.9195 78.5503 43.1576 78.5768 43.4276C78.6031 43.6955 78.5607 43.9466 78.4495 44.181C78.3406 44.4152 78.182 44.6096 77.9737 44.7641C77.7673 44.9162 77.5291 45.0055 77.2591 45.032Z" fill="white"/>
<path d="M88.2722 45.3062C87.8295 45.3497 87.4251 45.3055 87.0591 45.1738C86.6928 45.0399 86.3924 44.8369 86.1578 44.5649C85.9255 44.2926 85.7843 43.969 85.7341 43.594L86.9295 43.4767C86.979 43.7535 87.122 43.9697 87.3585 44.1253C87.5948 44.2786 87.8668 44.3402 88.1745 44.3101C88.4158 44.2864 88.6251 44.21 88.8024 44.0809C88.9798 43.9517 89.113 43.7833 89.2021 43.5757C89.2913 43.368 89.3224 43.1381 89.2954 42.8859C89.2724 42.6289 89.1958 42.4062 89.0656 42.2179C88.9354 42.0295 88.7684 41.8883 88.5648 41.7943C88.3609 41.6981 88.1339 41.6622 87.8837 41.6868C87.6798 41.7045 87.4832 41.7618 87.2938 41.8586C87.1043 41.9554 86.9583 42.0725 86.8555 42.21L85.7252 42.1365L85.7366 38.5951L89.6814 38.2082L89.7824 39.2376L86.857 39.5245L86.8379 41.3468L86.8778 41.3429C86.9894 41.1822 87.1555 41.0419 87.3762 40.9219C87.5967 40.7997 87.8442 40.7251 88.1187 40.6982C88.5304 40.6578 88.9074 40.7192 89.2497 40.8823C89.5918 41.0432 89.8725 41.2838 90.0916 41.6043C90.3108 41.9248 90.4418 42.303 90.4846 42.7391C90.5286 43.1885 90.4639 43.5994 90.2903 43.9718C90.1188 44.3418 89.8591 44.6455 89.5114 44.883C89.1657 45.118 88.7526 45.2591 88.2722 45.3062ZM94.4075 41.2514L94.5046 42.2409L91.443 42.5412L91.346 41.5517L94.4075 41.2514ZM97.2889 44.4319C96.9657 44.4636 96.669 44.4346 96.3987 44.3449C96.1304 44.2528 95.9098 44.1001 95.7369 43.8868C95.5662 43.6734 95.4645 43.3995 95.4317 43.0652C95.4035 42.7774 95.4333 42.5343 95.5211 42.3357C95.6089 42.1371 95.7391 41.9723 95.9118 41.8414C96.0844 41.7105 96.2831 41.605 96.5076 41.5248C96.7342 41.4423 96.9702 41.3755 97.2155 41.3246C97.5113 41.2643 97.751 41.2129 97.9346 41.1703C98.1179 41.1255 98.249 41.0724 98.328 41.011C98.4089 40.9472 98.4437 40.8578 98.4324 40.7426L98.4304 40.7227C98.4059 40.4726 98.3127 40.2861 98.1509 40.1634C97.9892 40.0407 97.7688 39.9931 97.4899 40.0204C97.1955 40.0493 96.9682 40.1364 96.8081 40.2817C96.6503 40.4269 96.55 40.5898 96.5074 40.7705L95.3694 40.7212C95.4276 40.4026 95.5483 40.1293 95.7315 39.9012C95.9146 39.6709 96.1482 39.4893 96.4324 39.3564C96.7164 39.2213 97.0366 39.1362 97.393 39.1013C97.6388 39.0772 97.8862 39.082 98.1353 39.1156C98.3845 39.1493 98.6163 39.2227 98.8308 39.3357C99.045 39.4466 99.2241 39.6089 99.368 39.8228C99.5141 40.0364 99.6038 40.3126 99.637 40.6513L99.9718 44.0649L98.8163 44.1782L98.7476 43.4776L98.7077 43.4815C98.6485 43.6303 98.5586 43.7732 98.438 43.9102C98.3193 44.0448 98.164 44.1595 97.9722 44.2543C97.7823 44.3467 97.5546 44.4059 97.2889 44.4319ZM97.5144 43.518C97.7557 43.4944 97.9603 43.4263 98.128 43.3137C98.2956 43.1989 98.4191 43.0572 98.4987 42.8885C98.5805 42.7195 98.6121 42.541 98.5937 42.3528L98.5347 41.7518C98.5001 41.7865 98.4387 41.8215 98.3506 41.857C98.2646 41.8922 98.1673 41.9253 98.0586 41.956C97.9498 41.9868 97.842 42.0153 97.735 42.0414C97.6281 42.0676 97.5353 42.0901 97.4567 42.1089C97.2798 42.1509 97.1232 42.2065 96.9869 42.2757C96.8507 42.3449 96.7465 42.4334 96.6744 42.541C96.602 42.6465 96.5734 42.7767 96.5886 42.9316C96.6103 43.153 96.7075 43.3122 96.8802 43.4093C97.0529 43.5063 97.2643 43.5426 97.5144 43.518ZM101.746 45.8219C101.582 45.838 101.429 45.8396 101.287 45.8267C101.147 45.8158 101.035 45.7978 100.95 45.7726L101.137 44.8089C101.317 44.8426 101.475 44.8517 101.612 44.836C101.749 44.8203 101.865 44.7653 101.961 44.671C102.059 44.5787 102.136 44.4326 102.19 44.2329L102.266 43.9472L99.9055 38.9219L101.181 38.7968L102.734 42.5334L102.787 42.5282L103.588 38.5607L104.866 38.4353L103.385 44.3537C103.316 44.6331 103.213 44.8768 103.075 45.0848C102.937 45.295 102.759 45.4622 102.541 45.5864C102.325 45.7126 102.06 45.7911 101.746 45.8219ZM107.343 43.4458C107.02 43.4775 106.723 43.4485 106.453 43.3588C106.185 43.2666 105.964 43.114 105.791 42.9007C105.62 42.6872 105.519 42.4134 105.486 42.0791C105.458 41.7913 105.487 41.5481 105.575 41.3495C105.663 41.151 105.793 40.9862 105.966 40.8553C106.139 40.7244 106.337 40.6188 106.562 40.5387C106.788 40.4561 107.024 40.3894 107.27 40.3385C107.566 40.2782 107.805 40.2268 107.989 40.1842C108.172 40.1394 108.303 40.0863 108.382 40.0249C108.463 39.9611 108.498 39.8716 108.487 39.7565L108.485 39.7366C108.46 39.4864 108.367 39.3 108.205 39.1773C108.043 39.0546 107.823 39.0069 107.544 39.0343C107.25 39.0632 107.022 39.1503 106.862 39.2956C106.705 39.4407 106.604 39.6037 106.562 39.7844L105.424 39.7351C105.482 39.4165 105.603 39.1432 105.786 38.9151C105.969 38.6848 106.202 38.5032 106.487 38.3703C106.771 38.2352 107.091 38.1501 107.447 38.1151C107.693 38.091 107.94 38.0958 108.19 38.1295C108.439 38.1632 108.671 38.2365 108.885 38.3496C109.099 38.4605 109.278 38.6228 109.422 38.8367C109.568 39.0503 109.658 39.3265 109.691 39.6652L110.026 43.0787L108.871 43.1921L108.802 42.4914L108.762 42.4953C108.703 42.6442 108.613 42.7871 108.492 42.9241C108.374 43.0587 108.218 43.1733 108.026 43.2682C107.837 43.3605 107.609 43.4197 107.343 43.4458ZM107.569 42.5319C107.81 42.5082 108.015 42.4401 108.182 42.3276C108.35 42.2128 108.473 42.0711 108.553 41.9023C108.635 41.7334 108.666 41.5548 108.648 41.3667L108.589 40.7656C108.554 40.8003 108.493 40.8354 108.405 40.8709C108.319 40.9061 108.222 40.9391 108.113 40.9699C108.004 41.0007 107.896 41.0292 107.789 41.0553C107.682 41.0814 107.59 41.1039 107.511 41.1228C107.334 41.1648 107.177 41.2203 107.041 41.2896C106.905 41.3588 106.801 41.4473 106.729 41.5549C106.656 41.6604 106.628 41.7906 106.643 41.9455C106.665 42.1669 106.762 42.3261 106.934 42.4231C107.107 42.5202 107.319 42.5564 107.569 42.5319ZM111.957 39.8721L112.25 42.8606L111.048 42.9785L110.381 36.178L111.556 36.0627L111.808 38.6295L111.868 38.6236C111.959 38.3241 112.122 38.0791 112.356 37.8885C112.591 37.6955 112.904 37.5799 113.294 37.5417C113.648 37.507 113.964 37.5508 114.242 37.6733C114.52 37.7958 114.745 37.9928 114.917 38.2642C115.091 38.5355 115.198 38.877 115.239 39.2887L115.557 42.5362L114.355 42.6541L114.055 39.5926C114.021 39.2494 113.906 38.9914 113.711 38.8184C113.517 38.6429 113.262 38.5707 112.945 38.6018C112.733 38.6226 112.547 38.6878 112.388 38.7973C112.231 38.9043 112.113 39.0488 112.035 39.2308C111.959 39.4126 111.933 39.6264 111.957 39.8721Z" fill="white"/>
<path d="M25.5365 58.6992L26.4796 58.6067L28.677 61.5962L28.7567 61.5884L30.3314 58.229L31.2745 58.1365L29.2094 62.3754L29.4843 65.178L28.6608 65.2588L28.3859 62.4562L25.5365 58.6992ZM33.5593 64.899C33.2361 64.9307 32.9368 64.8986 32.6614 64.8027C32.3858 64.7046 32.1592 64.5469 31.9814 64.3296C31.8034 64.1102 31.6982 63.8344 31.6656 63.5024C31.6369 63.2101 31.6713 62.9676 31.7686 62.7748C31.8657 62.5798 32.0054 62.4208 32.1878 62.2979C32.3702 62.1749 32.5751 62.0766 32.8025 62.0029C33.032 61.9268 33.2636 61.8616 33.4975 61.8073C33.8035 61.7371 34.0518 61.6826 34.2424 61.6438C34.4351 61.6025 34.5732 61.5521 34.6567 61.4925C34.7425 61.4327 34.7792 61.3397 34.7668 61.2135L34.7642 61.1869C34.7321 60.8593 34.6174 60.6135 34.4203 60.4496C34.2254 60.2854 33.9476 60.221 33.5867 60.2564C33.2126 60.2931 32.9273 60.4038 32.7309 60.5885C32.5344 60.7731 32.4021 60.9627 32.334 61.1571L31.5642 60.9644C31.6666 60.6414 31.82 60.3828 32.0245 60.1884C32.2309 59.9916 32.4625 59.8459 32.7192 59.7515C32.9779 59.6546 33.2356 59.5935 33.4924 59.5684C33.6562 59.5523 33.8463 59.5538 34.0628 59.5728C34.2812 59.5893 34.4959 59.6476 34.7068 59.7476C34.92 59.8474 35.1048 60.0114 35.2613 60.2397C35.4178 60.468 35.5159 60.7847 35.5557 61.1898L35.8853 64.5502L35.1016 64.627L35.0339 63.9364L34.994 63.9403C34.9517 64.0562 34.8748 64.1833 34.7632 64.3216C34.6516 64.46 34.4972 64.5835 34.3 64.6923C34.1029 64.801 33.8559 64.8699 33.5593 64.899ZM33.6098 64.1833C33.9197 64.1529 34.175 64.0664 34.3755 63.9238C34.5783 63.781 34.7245 63.608 34.8141 63.4048C34.9059 63.2013 34.9414 62.9933 34.9205 62.7808L34.8502 62.0636C34.8209 62.1067 34.7514 62.1504 34.6418 62.1946C34.5341 62.2365 34.4084 62.2767 34.2647 62.3154C34.123 62.3517 33.9844 62.3854 33.8489 62.4166C33.7154 62.4453 33.6071 62.4693 33.524 62.4887C33.323 62.5352 33.1368 62.597 32.9656 62.6742C32.7964 62.7489 32.6633 62.8502 32.5663 62.9782C32.4713 63.1037 32.4336 63.2661 32.4532 63.4653C32.4799 63.7376 32.6008 63.9336 32.8159 64.0533C33.033 64.1706 33.2977 64.2139 33.6098 64.1833ZM40.3532 60.1158L39.6687 60.384C39.613 60.2711 39.5365 60.1635 39.4393 60.0612C39.3441 59.9566 39.2198 59.8749 39.0666 59.8162C38.9133 59.7575 38.7227 59.7393 38.4947 59.7616C38.1825 59.7923 37.9295 59.8897 37.7355 60.054C37.5435 60.2159 37.4583 60.4064 37.4798 60.6256C37.4989 60.8204 37.5848 60.9673 37.7375 61.0663C37.8903 61.1653 38.1209 61.2377 38.4293 61.2834L39.2047 61.3951C39.6716 61.461 40.028 61.5971 40.2739 61.8031C40.5197 62.007 40.66 62.2872 40.695 62.6436C40.7236 62.9358 40.6651 63.2052 40.5195 63.452C40.376 63.6985 40.1614 63.9028 39.8755 64.0649C39.5897 64.2271 39.2487 64.3276 38.8524 64.3664C38.3322 64.4175 37.8906 64.3468 37.5275 64.1544C37.1644 63.9621 36.9163 63.6534 36.7829 63.2284L37.5085 62.9695C37.6063 63.2371 37.7604 63.4298 37.9709 63.5477C38.1836 63.6654 38.4504 63.7085 38.7714 63.6771C39.1367 63.6412 39.4191 63.5353 39.6186 63.3593C39.8201 63.1808 39.9101 62.982 39.8886 62.7629C39.8713 62.5858 39.7947 62.4435 39.659 62.3362C39.5231 62.2266 39.3239 62.1545 39.0612 62.1199L38.1916 62.004C37.7136 61.9392 37.3537 61.8013 37.1117 61.5903C36.8718 61.3769 36.7345 61.0943 36.7 60.7423C36.6718 60.4545 36.7276 60.192 36.8675 59.9548C37.0096 59.7173 37.215 59.5217 37.4838 59.368C37.7548 59.214 38.0696 59.1194 38.4282 59.0843C38.9329 59.0347 39.3401 59.1066 39.6495 59.2997C39.9613 59.4926 40.1958 59.7647 40.3532 60.1158ZM45.0515 59.6549L44.3671 59.9232C44.3113 59.8102 44.2348 59.7026 44.1377 59.6004C44.0425 59.4958 43.9182 59.4141 43.765 59.3554C43.6117 59.2966 43.421 59.2785 43.193 59.3008C42.8809 59.3314 42.6278 59.4289 42.4339 59.5932C42.2419 59.7551 42.1566 59.9456 42.1781 60.1647C42.1972 60.3595 42.2832 60.5065 42.4359 60.6055C42.5887 60.7045 42.8193 60.7768 43.1277 60.8226L43.9031 60.9343C44.3699 61.0002 44.7264 61.1362 44.9723 61.3423C45.218 61.5462 45.3584 61.8263 45.3933 62.1827C45.422 62.475 45.3635 62.7444 45.2178 62.9912C45.0744 63.2377 44.8597 63.442 44.5739 63.6041C44.2881 63.7663 43.9471 63.8668 43.5508 63.9056C43.0306 63.9566 42.5889 63.886 42.2259 63.6936C41.8628 63.5013 41.6146 63.1926 41.4813 62.7676L42.2069 62.5087C42.3046 62.7762 42.4588 62.969 42.6693 63.0869C42.8819 63.2046 43.1488 63.2477 43.4698 63.2162C43.835 63.1804 44.1174 63.0745 44.317 62.8985C44.5185 62.72 44.6085 62.5212 44.587 62.3021C44.5697 62.125 44.4931 61.9827 44.3574 61.8753C44.2215 61.7657 44.0222 61.6937 43.7596 61.6591L42.89 61.5432C42.412 61.4783 42.0521 61.3404 41.8101 61.1295C41.5702 60.9161 41.4329 60.6334 41.3984 60.2814C41.3702 59.9937 41.426 59.7312 41.5659 59.4939C41.708 59.2565 41.9134 59.0609 42.1822 58.9071C42.4532 58.7532 42.768 58.6586 43.1266 58.6234C43.6313 58.5739 44.0384 58.6457 44.3479 58.8389C44.6596 59.0318 44.8942 59.3038 45.0515 59.6549ZM48.6742 63.4031C48.1828 63.4513 47.7482 63.3844 47.3705 63.2024C46.9948 63.018 46.6915 62.7393 46.4605 62.3664C46.2314 61.991 46.0913 61.5421 46.04 61.0197C45.9888 60.4973 46.0388 60.0275 46.1901 59.6103C46.3434 59.1907 46.5807 58.8523 46.9019 58.5951C47.2251 58.3354 47.6169 58.183 48.0773 58.1379C48.343 58.1118 48.6097 58.1303 48.8773 58.1935C49.145 58.2566 49.3949 58.3774 49.627 58.5558C49.8588 58.732 50.0538 58.9766 50.2119 59.2896C50.37 59.6027 50.4724 59.9972 50.519 60.4731L50.5516 60.8052L46.6201 61.1908L46.5536 60.5134L49.6882 60.2059C49.66 59.9181 49.5773 59.667 49.44 59.4525C49.305 59.2378 49.1259 59.0754 48.9028 58.9654C48.6819 58.8552 48.4297 58.814 48.1464 58.8418C47.8342 58.8724 47.5718 58.9764 47.359 59.1537C47.1481 59.3286 46.9939 59.5449 46.8963 59.8026C46.7986 60.0602 46.7636 60.3296 46.7911 60.6108L46.8354 61.0624C46.8732 61.4476 46.9716 61.7676 47.1307 62.0224C47.2918 62.2748 47.4988 62.459 47.7515 62.575C48.0041 62.6888 48.2886 62.7302 48.6052 62.6991C48.811 62.679 48.9942 62.6319 49.1546 62.5581C49.3169 62.4818 49.4533 62.3791 49.5635 62.2498C49.6735 62.1183 49.7531 61.9608 49.8021 61.7771L50.58 61.9154C50.5255 62.18 50.4138 62.4189 50.2447 62.6322C50.0754 62.8433 49.8577 63.0166 49.5917 63.1522C49.3254 63.2856 49.0196 63.3692 48.6742 63.4031ZM51.7808 62.9911L51.2805 57.8907L52.0376 57.8165L52.1131 58.5869L52.1663 58.5816C52.2345 58.3202 52.3827 58.0989 52.6108 57.9178C52.8388 57.7368 53.1056 57.6313 53.4111 57.6013C53.4687 57.5957 53.5407 57.5897 53.6273 57.5835C53.7138 57.5772 53.7795 57.5741 53.8242 57.5742L53.9024 58.3711C53.8751 58.3671 53.8133 58.3631 53.7168 58.3592C53.6223 58.3528 53.523 58.3547 53.419 58.3649C53.171 58.3892 52.9548 58.463 52.7702 58.5861C52.5876 58.7068 52.4487 58.8635 52.3536 59.0561C52.2605 59.2463 52.2253 59.4565 52.2478 59.6867L52.5644 62.9143L51.7808 62.9911ZM59.0284 62.401C58.7052 62.4327 58.4059 62.4006 58.1305 62.3046C57.8549 62.2065 57.6282 62.0488 57.4505 61.8316C57.2725 61.6121 57.1672 61.3364 57.1347 61.0043C57.106 60.7121 57.1403 60.4696 57.2376 60.2768C57.3347 60.0818 57.4745 59.9228 57.6569 59.7998C57.8393 59.6769 58.0442 59.5786 58.2716 59.5049C58.5011 59.4287 58.7327 59.3635 58.9665 59.3093C59.2725 59.2391 59.5209 59.1845 59.7115 59.1457C59.9041 59.1045 60.0422 59.0541 60.1258 58.9945C60.2116 58.9346 60.2482 58.8416 60.2359 58.7155L60.2333 58.6889C60.2011 58.3613 60.0865 58.1155 59.8894 57.9515C59.6945 57.7874 59.4166 57.723 59.0558 57.7584C58.6817 57.7951 58.3964 57.9058 58.1999 58.0904C58.0035 58.2751 57.8712 58.4646 57.8031 58.659L57.0333 58.4664C57.1357 58.1434 57.2891 57.8847 57.4935 57.6904C57.7 57.4935 57.9315 57.3479 58.1882 57.2534C58.4469 57.1566 58.7047 57.0955 58.9615 57.0703C59.1253 57.0543 59.3154 57.0557 59.5318 57.0747C59.7503 57.0913 59.965 57.1496 60.1759 57.2496C60.3891 57.3494 60.5739 57.5134 60.7304 57.7417C60.8869 57.9699 60.985 58.2866 61.0247 58.6917L61.3543 62.0521L60.5707 62.129L60.5029 61.4383L60.4631 61.4422C60.4208 61.5581 60.3439 61.6853 60.2323 61.8236C60.1207 61.9619 59.9663 62.0855 59.7691 62.1942C59.5719 62.303 59.325 62.3719 59.0284 62.401ZM59.0789 61.6853C59.3888 61.6549 59.644 61.5684 59.8446 61.4258C60.0474 61.283 60.1936 61.11 60.2832 60.9067C60.375 60.7033 60.4104 60.4953 60.3896 60.2828L60.3192 59.5655C60.29 59.6086 60.2205 59.6523 60.1108 59.6966C60.0032 59.7384 59.8775 59.7787 59.7338 59.8174C59.5921 59.8536 59.4535 59.8874 59.3179 59.9185C59.1844 59.9473 59.0762 59.9713 58.9931 59.9906C58.7921 60.0372 58.6059 60.099 58.4347 60.1761C58.2654 60.2508 58.1323 60.3522 58.0354 60.4802C57.9404 60.6057 57.9027 60.7681 57.9222 60.9673C57.9489 61.2396 58.0699 61.4356 58.285 61.5553C58.5021 61.6726 58.7667 61.7159 59.0789 61.6853ZM64.534 61.8476C64.109 61.8893 63.7232 61.8187 63.3767 61.6359C63.03 61.4508 62.7455 61.1703 62.5231 60.7943C62.3005 60.4161 62.1627 59.9569 62.1097 59.4167C62.0572 58.881 62.1035 58.4071 62.2486 57.9951C62.3937 57.583 62.6195 57.2535 62.9261 57.0067C63.2326 56.7598 63.6006 56.6153 64.0301 56.5732C64.3622 56.5406 64.6299 56.5702 64.8334 56.662C65.0388 56.7514 65.1993 56.8608 65.3148 56.9903C65.4323 57.1173 65.5242 57.2223 65.5904 57.3052L65.6568 57.2987L65.4106 54.7883L66.1943 54.7115L66.8613 61.512L66.1042 61.5863L66.0273 60.8026L65.9343 60.8117C65.8859 60.9104 65.8155 61.0357 65.7231 61.1878C65.6306 61.3377 65.4912 61.4777 65.305 61.6077C65.1186 61.7355 64.8616 61.8154 64.534 61.8476ZM64.5712 61.1332C64.8856 61.1023 65.1432 60.9944 65.3441 60.8093C65.5447 60.622 65.6872 60.3767 65.7714 60.0734C65.8554 59.7679 65.8786 59.4226 65.8408 59.0374C65.8034 58.6566 65.7154 58.3289 65.5767 58.0542C65.4378 57.7772 65.2521 57.5697 65.0195 57.4316C64.7867 57.2913 64.5109 57.2368 64.1921 57.268C63.8601 57.3006 63.5917 57.413 63.3871 57.6051C63.1844 57.7949 63.042 58.0402 62.9597 58.341C62.8795 58.6394 62.8569 58.968 62.8921 59.3266C62.9277 59.6896 63.0154 60.0141 63.1552 60.2998C63.297 60.5832 63.486 60.8016 63.7223 60.9549C63.9606 61.1059 64.2436 61.1653 64.5712 61.1332ZM70.8187 57.8116L70.8903 58.5421L67.9151 58.8339L67.8434 58.1034L70.8187 57.8116ZM74.5371 60.7592L72.4385 60.965L71.7715 54.1645L73.9631 53.9495C74.6228 53.8848 75.2007 53.9656 75.6967 54.1918C76.1925 54.4159 76.5903 54.7691 76.8902 55.2515C77.1898 55.7317 77.3742 56.3238 77.4432 57.0277C77.5127 57.7361 77.4463 58.3584 77.2441 58.8945C77.0417 59.4284 76.7127 59.8563 76.257 60.1781C75.8011 60.4977 75.2278 60.6914 74.5371 60.7592ZM73.1904 60.1537L74.4124 60.0338C74.9746 59.9787 75.43 59.8245 75.7784 59.5713C76.1268 59.3181 76.3721 58.9823 76.5144 58.5638C76.6566 58.1453 76.7006 57.6593 76.6463 57.1059C76.5924 56.5569 76.4564 56.0931 76.2382 55.7144C76.0199 55.3335 75.722 55.0543 75.3448 54.8767C74.9673 54.697 74.5129 54.6331 73.9816 54.6852L72.6667 54.8142L73.1904 60.1537ZM81.8759 57.934L81.5802 54.9189L82.3638 54.842L82.8641 59.9424L82.0804 60.0193L81.9957 59.156L81.9426 59.1612C81.8485 59.4319 81.6841 59.6704 81.4496 59.8767C81.2148 60.0807 80.9048 60.2017 80.5196 60.2394C80.2009 60.2707 79.9107 60.2288 79.649 60.1136C79.3872 59.9963 79.1716 59.8029 79.0021 59.5334C78.8324 59.2617 78.7263 58.9089 78.6837 58.4751L78.3659 55.2342L79.1495 55.1573L79.4622 58.3451C79.4986 58.717 79.6318 59.0034 79.8616 59.2044C80.0936 59.4051 80.3723 59.4895 80.6977 59.4576C80.8925 59.4385 81.0858 59.3693 81.2775 59.2499C81.4714 59.1303 81.6268 58.9608 81.7439 58.7415C81.8632 58.5219 81.9072 58.2528 81.8759 57.934ZM87.337 55.5075L86.6525 55.7758C86.5968 55.6628 86.5203 55.5552 86.4231 55.453C86.3279 55.3484 86.2036 55.2667 86.0504 55.208C85.8971 55.1492 85.7065 55.1311 85.4785 55.1534C85.1663 55.184 84.9133 55.2815 84.7193 55.4458C84.5273 55.6077 84.4421 55.7982 84.4636 56.0173C84.4827 56.2121 84.5686 56.3591 84.7213 56.4581C84.8741 56.5571 85.1047 56.6294 85.4131 56.6752L86.1885 56.7869C86.6554 56.8528 87.0118 56.9888 87.2577 57.1949C87.5035 57.3988 87.6438 57.6789 87.6788 58.0353C87.7074 58.3276 87.6489 58.597 87.5033 58.8438C87.3598 59.0903 87.1452 59.2946 86.8593 59.4567C86.5735 59.6189 86.2325 59.7194 85.8362 59.7582C85.316 59.8092 84.8744 59.7386 84.5113 59.5462C84.1482 59.3538 83.9001 59.0452 83.7667 58.6202L84.4923 58.3613C84.5901 58.6288 84.7442 58.8216 84.9547 58.9395C85.1674 59.0572 85.4342 59.1003 85.7552 59.0688C86.1205 59.033 86.4029 58.9271 86.6024 58.7511C86.8039 58.5726 86.8939 58.3738 86.8724 58.1547C86.8551 57.9776 86.7785 57.8353 86.6428 57.7279C86.5069 57.6183 86.3077 57.5463 86.045 57.5117L85.1754 57.3958C84.6974 57.3309 84.3375 57.193 84.0955 56.9821C83.8556 56.7687 83.7183 56.486 83.6838 56.134C83.6556 55.8463 83.7114 55.5838 83.8513 55.3465C83.9934 55.1091 84.1988 54.9135 84.4676 54.7597C84.7386 54.6058 85.0534 54.5112 85.412 54.476C85.9167 54.4265 86.3239 54.4983 86.6333 54.6915C86.9451 54.8844 87.1796 55.1564 87.337 55.5075ZM92.0353 55.0467L91.3509 55.315C91.2951 55.202 91.2186 55.0944 91.1215 54.9922C91.0263 54.8875 90.902 54.8059 90.7488 54.7471C90.5955 54.6884 90.4048 54.6702 90.1768 54.6926C89.8647 54.7232 89.6116 54.8207 89.4177 54.985C89.2257 55.1468 89.1404 55.3374 89.1619 55.5565C89.181 55.7513 89.267 55.8982 89.4197 55.9972C89.5725 56.0962 89.8031 56.1686 90.1115 56.2143L90.8869 56.326C91.3537 56.392 91.7102 56.528 91.9561 56.7341C92.2018 56.938 92.3422 57.2181 92.3771 57.5745C92.4058 57.8667 92.3473 58.1362 92.2016 58.3829C92.0582 58.6294 91.8435 58.8338 91.5577 58.9959C91.2719 59.158 90.9309 59.2585 90.5346 59.2974C90.0144 59.3484 89.5727 59.2778 89.2097 59.0854C88.8466 58.893 88.5984 58.5844 88.4651 58.1594L89.1907 57.9005C89.2884 58.168 89.4426 58.3608 89.6531 58.4787C89.8657 58.5964 90.1326 58.6395 90.4536 58.608C90.8188 58.5722 91.1012 58.4663 91.3008 58.2903C91.5023 58.1118 91.5923 57.913 91.5708 57.6938C91.5535 57.5167 91.4769 57.3745 91.3412 57.2671C91.2053 57.1575 91.006 57.0854 90.7434 57.0508L89.8738 56.935C89.3958 56.8701 89.0359 56.7322 88.7939 56.5213C88.554 56.3079 88.4167 56.0252 88.3822 55.6732C88.354 55.3854 88.4098 55.1229 88.5497 54.8857C88.6918 54.6483 88.8972 54.4527 89.166 54.2989C89.437 54.145 89.7518 54.0504 90.1104 54.0152C90.6151 53.9657 91.0222 54.0375 91.3317 54.2307C91.6434 54.4236 91.878 54.6956 92.0353 55.0467ZM95.0218 58.8707C94.6986 58.9024 94.3993 58.8703 94.1239 58.7744C93.8483 58.6762 93.6216 58.5186 93.4439 58.3013C93.2659 58.0819 93.1606 57.8061 93.1281 57.474C93.0994 57.1818 93.1337 56.9393 93.231 56.7465C93.3281 56.5515 93.4679 56.3925 93.6503 56.2696C93.8326 56.1466 94.0376 56.0483 94.265 55.9746C94.4945 55.8984 94.7261 55.8333 94.9599 55.779C95.2659 55.7088 95.5143 55.6543 95.7049 55.6155C95.8975 55.5742 96.0356 55.5238 96.1192 55.4642C96.2049 55.4044 96.2416 55.3114 96.2293 55.1852L96.2267 55.1586C96.1945 54.831 96.0799 54.5852 95.8828 54.4213C95.6879 54.2571 95.41 54.1927 95.0492 54.2281C94.6751 54.2648 94.3898 54.3755 94.1933 54.5602C93.9969 54.7448 93.8646 54.9344 93.7965 55.1288L93.0267 54.9361C93.1291 54.6131 93.2825 54.3545 93.4869 54.1601C93.6934 53.9633 93.9249 53.8176 94.1816 53.7232C94.4403 53.6263 94.6981 53.5652 94.9549 53.5401C95.1187 53.524 95.3088 53.5255 95.5252 53.5445C95.7437 53.561 95.9583 53.6193 96.1693 53.7193C96.3825 53.8191 96.5673 53.9831 96.7238 54.2114C96.8803 54.4397 96.9784 54.7563 97.0181 55.1615L97.3477 58.5219L96.5641 58.5987L96.4963 57.9081L96.4565 57.912C96.4142 58.0279 96.3373 58.155 96.2257 58.2933C96.1141 58.4317 95.9597 58.5552 95.7625 58.6639C95.5653 58.7727 95.3184 58.8416 95.0218 58.8707ZM95.0723 58.155C95.3822 58.1246 95.6374 58.0381 95.838 57.8955C96.0408 57.7527 96.187 57.5797 96.2766 57.3764C96.3684 57.173 96.4038 56.965 96.383 56.7525L96.3126 56.0353C96.2833 56.0784 96.2139 56.1221 96.1042 56.1663C95.9966 56.2082 95.8709 56.2484 95.7272 56.2871C95.5855 56.3234 95.4469 56.3571 95.3113 56.3883C95.1778 56.417 95.0695 56.441 94.9865 56.4603C94.7855 56.5069 94.5993 56.5687 94.4281 56.6459C94.2588 56.7206 94.1257 56.8219 94.0288 56.9499C93.9338 57.0754 93.8961 57.2378 93.9156 57.437C93.9423 57.7093 94.0633 57.9053 94.2784 58.025C94.4955 58.1423 94.7601 58.1856 95.0723 58.155ZM98.5911 58.3999L98.0908 53.2995L98.8479 53.2253L98.9235 53.9956L98.9766 53.9904C99.0448 53.729 99.193 53.5077 99.4211 53.3266C99.6491 53.1456 99.9159 53.0401 100.221 53.0101C100.279 53.0044 100.351 52.9985 100.438 52.9922C100.524 52.986 100.59 52.9829 100.634 52.983L100.713 53.7799C100.685 53.7759 100.624 53.7719 100.527 53.768C100.433 53.7616 100.333 53.7635 100.229 53.7737C99.9813 53.798 99.7651 53.8718 99.5805 53.9949C99.3979 54.1156 99.259 54.2723 99.1639 54.4649C99.0708 54.655 99.0356 54.8652 99.0581 55.0955L99.3747 58.3231L98.5911 58.3999ZM102.731 59.925C102.598 59.938 102.478 59.9385 102.372 59.9266C102.266 59.9169 102.192 59.904 102.15 59.888L102.282 59.1778C102.477 59.2078 102.647 59.209 102.792 59.1814C102.937 59.1538 103.06 59.0758 103.161 58.9474C103.265 58.821 103.352 58.6236 103.422 58.3553L103.529 57.9425L101.14 53.0005L101.99 52.9171L103.796 56.8434L103.849 56.8382L104.859 52.6357L105.709 52.5523L104.117 58.6089C104.045 58.8819 103.946 59.1118 103.819 59.2986C103.692 59.4876 103.538 59.6334 103.356 59.7362C103.176 59.8388 102.968 59.9017 102.731 59.925Z" fill="white"/>
<g opacity="0.5">
<path d="M148.244 41.3247L155.241 36.1952C156.523 35.2555 158.239 36.271 158.416 38.0738L159.232 46.3935C159.409 48.1963 157.922 49.5259 156.482 48.8531L148.622 45.1809C147.203 44.518 146.981 42.2506 148.244 41.3247Z" fill="white"/>
<path d="M139.387 42.2639L146.384 37.1345C147.665 36.1947 149.382 37.2102 149.558 39.013L150.374 47.3327C150.551 49.1355 149.065 50.4651 147.625 49.7923L139.765 46.1201C138.346 45.4572 138.123 43.1898 139.387 42.2639Z" fill="white"/>
</g>
<path d="M180.728 37.6553L171.126 33.8673C169.367 33.1734 167.518 34.6148 167.707 36.5339L168.575 45.3902C168.764 47.3093 170.857 48.3642 172.447 47.3417L181.131 41.7602C182.698 40.7527 182.461 38.3391 180.728 37.6553Z" fill="white"/>
<path d="M201.678 35.2965L193.818 31.6249C192.378 30.9522 190.891 32.2817 191.068 34.0842L191.884 42.4028C192.061 44.2053 193.777 45.2207 195.059 44.2811L202.056 39.1522C203.319 38.2264 203.097 35.9593 201.678 35.2965Z" fill="white"/>
<path d="M210.549 34.5001L202.689 30.8285C201.249 30.1558 199.763 31.4853 199.939 33.2878L200.755 41.6064C200.932 43.409 202.648 44.4243 203.93 43.4847L210.927 38.3558C212.19 37.43 211.968 35.1629 210.549 34.5001Z" fill="white"/>
<path d="M237.734 27.2254C237.49 27.0233 237.131 27.0586 236.931 27.3041C236.731 27.5497 236.767 27.9126 237.011 28.1146L237.609 28.6111L234.126 28.9527C232.835 29.0792 232.047 29.1564 231.411 29.4362C230.129 30.0008 229.192 31.1514 228.893 32.5313C228.745 33.2151 228.823 34.0108 228.951 35.3146L228.975 35.5619C229.103 36.8658 229.181 37.6614 229.459 38.3034C229.586 38.5949 229.922 38.7283 230.211 38.6012C230.499 38.4742 230.631 38.1348 230.504 37.8433C230.308 37.3906 230.243 36.7938 230.099 35.3269C229.955 33.86 229.903 33.2618 230.008 32.7796C230.229 31.7597 230.921 30.9092 231.869 30.4919C232.317 30.2946 232.908 30.2295 234.361 30.087L237.524 29.7767L237.067 30.245C236.846 30.4713 236.849 30.8358 237.073 31.0593C237.298 31.2828 237.659 31.2805 237.88 31.0543L238.858 30.0526C239.125 29.7794 239.251 29.4205 239.24 29.0686C239.228 28.6974 239.064 28.3287 238.754 28.071L237.734 27.2254Z" fill="white"/>
<path d="M241.714 31.2738C241.588 30.9823 241.251 30.849 240.962 30.976C240.674 31.1031 240.542 31.4424 240.669 31.7339C240.865 32.1866 240.931 32.7835 241.075 34.2504C241.218 35.7173 241.27 36.3155 241.165 36.7977C240.944 37.8176 240.252 38.668 239.304 39.0853C238.856 39.2826 238.265 39.3478 236.812 39.4903L235.298 39.6388C234.566 39.7106 234.052 39.7592 233.661 39.7761L234.132 39.198C234.331 38.9524 234.296 38.5895 234.052 38.3875C233.808 38.1854 233.449 38.2206 233.249 38.4662L232.413 39.4938C232.23 39.7187 232.132 39.9865 232.114 40.256C232.085 40.7117 232.287 41.1774 232.695 41.458L233.85 42.2505C234.111 42.4295 234.465 42.3615 234.642 42.0987C234.819 41.8359 234.751 41.4777 234.49 41.2987L233.932 40.9154C234.319 40.8922 234.764 40.8485 235.293 40.7966L237.047 40.6245C238.339 40.498 239.127 40.4208 239.762 40.141C241.045 39.5765 241.981 38.4258 242.28 37.0459C242.428 36.3621 242.35 35.5665 242.222 34.2627L242.198 34.0153C242.07 32.7115 241.992 31.9158 241.714 31.2738Z" fill="white"/>
<path d="M268.202 26.4276L259.769 36.6955" stroke="white" stroke-width="1.56593" stroke-linecap="round" stroke-linejoin="round"/>
<path d="M258.852 27.3448L269.119 35.7784" stroke="white" stroke-width="1.56593" stroke-linecap="round" stroke-linejoin="round"/>
</g>
</g>
<defs>
<filter id="filter0_ddd_4969_11569" x="-1.8882" y="4.40553e-05" width="302.997" height="101.851" filterUnits="userSpaceOnUse" color-interpolation-filters="sRGB">
<feFlood flood-opacity="0" result="BackgroundImageFix"/>
<feColorMatrix in="SourceAlpha" type="matrix" values="0 0 0 0 0 0 0 0 0 0 0 0 0 0 0 0 0 0 127 0" result="hardAlpha"/>
<feMorphology radius="2.59721" operator="erode" in="SourceAlpha" result="effect1_dropShadow_4969_11569"/>
<feOffset dy="9.4444"/>
<feGaussianBlur stdDeviation="4.7222"/>
<feComposite in2="hardAlpha" operator="out"/>
<feColorMatrix type="matrix" values="0 0 0 0 0 0 0 0 0 0 0 0 0 0 0 0 0 0 0.06 0"/>
<feBlend mode="normal" in2="BackgroundImageFix" result="effect1_dropShadow_4969_11569"/>
<feColorMatrix in="SourceAlpha" type="matrix" values="0 0 0 0 0 0 0 0 0 0 0 0 0 0 0 0 0 0 127 0" result="hardAlpha"/>
<feMorphology radius="1.73147" operator="erode" in="SourceAlpha" result="effect2_dropShadow_4969_11569"/>
<feOffset dy="2.16138"/>
<feGaussianBlur stdDeviation="1.08069"/>
<feComposite in2="hardAlpha" operator="out"/>
<feColorMatrix type="matrix" values="0 0 0 0 0 0 0 0 0 0 0 0 0 0 0 0 0 0 0.09 0"/>
<feBlend mode="normal" in2="effect1_dropShadow_4969_11569" result="effect2_dropShadow_4969_11569"/>
<feColorMatrix in="SourceAlpha" type="matrix" values="0 0 0 0 0 0 0 0 0 0 0 0 0 0 0 0 0 0 127 0" result="hardAlpha"/>
<feMorphology radius="0.865737" operator="erode" in="SourceAlpha" result="effect3_dropShadow_4969_11569"/>
<feOffset dy="0.568729"/>
<feGaussianBlur stdDeviation="0.284365"/>
<feComposite in2="hardAlpha" operator="out"/>
<feColorMatrix type="matrix" values="0 0 0 0 0 0 0 0 0 0 0 0 0 0 0 0 0 0 0.1 0"/>
<feBlend mode="normal" in2="effect2_dropShadow_4969_11569" result="effect3_dropShadow_4969_11569"/>
<feBlend mode="normal" in="SourceGraphic" in2="effect3_dropShadow_4969_11569" result="shape"/>
</filter>
<clipPath id="clip0_4969_11569">
<rect x="13.5156" y="34.8475" width="269.341" height="42.3571" rx="15.6593" transform="rotate(-5.60172 13.5156 34.8475)" fill="white"/>
</clipPath>
</defs>
</svg>
