<svg width="70" height="70" viewBox="0 0 70 70" fill="none" xmlns="http://www.w3.org/2000/svg">
<rect width="70" height="70" rx="17.5" fill="#22C37A"/>
<path d="M34.47 17.7759C34.5503 17.3457 34.7785 16.9573 35.1151 16.6777C35.4517 16.3981 35.8755 16.2451 36.3131 16.2451C36.7506 16.2451 37.1744 16.3981 37.511 16.6777C37.8476 16.9573 38.0759 17.3457 38.1562 17.7759L40.1268 28.1971C40.2668 28.938 40.6269 29.6195 41.16 30.1527C41.6932 30.6858 42.3747 31.0459 43.1156 31.1859L53.5368 33.1565C53.967 33.2368 54.3554 33.4651 54.635 33.8017C54.9145 34.1383 55.0676 34.562 55.0676 34.9996C55.0676 35.4372 54.9145 35.8609 54.635 36.1975C54.3554 36.5342 53.967 36.7624 53.5368 36.8427L43.1156 38.8134C42.3747 38.9533 41.6932 39.3134 41.16 39.8465C40.6269 40.3797 40.2668 41.0612 40.1268 41.8021L38.1562 52.2234C38.0759 52.6535 37.8476 53.042 37.511 53.3215C37.1744 53.6011 36.7506 53.7541 36.3131 53.7541C35.8755 53.7541 35.4517 53.6011 35.1151 53.3215C34.7785 53.042 34.5503 52.6535 34.47 52.2234L32.4993 41.8021C32.3594 41.0612 31.9993 40.3797 31.4662 39.8465C30.933 39.3134 30.2515 38.9533 29.5106 38.8134L19.0893 36.8427C18.6592 36.7624 18.2707 36.5342 17.9912 36.1975C17.7116 35.8609 17.5586 35.4372 17.5586 34.9996C17.5586 34.562 17.7116 34.1383 17.9912 33.8017C18.2707 33.4651 18.6592 33.2368 19.0893 33.1565L29.5106 31.1859C30.2515 31.0459 30.933 30.6858 31.4662 30.1527C31.9993 29.6195 32.3594 28.938 32.4993 28.1971L34.47 17.7759Z" fill="white" stroke="white" stroke-width="3.75" stroke-linecap="round" stroke-linejoin="round"/>
<path d="M51.3008 16.25V23.75V16.25Z" fill="white"/>
<path d="M51.3008 16.25V23.75" stroke="white" stroke-width="3.75" stroke-linecap="round" stroke-linejoin="round"/>
<path d="M55.0508 19.9998H47.5508H55.0508Z" fill="white"/>
<path d="M55.0508 19.9998H47.5508" stroke="white" stroke-width="3.75" stroke-linecap="round" stroke-linejoin="round"/>
<path d="M21.3086 53.7498C23.3797 53.7498 25.0586 52.0708 25.0586 49.9998C25.0586 47.9287 23.3797 46.2498 21.3086 46.2498C19.2375 46.2498 17.5586 47.9287 17.5586 49.9998C17.5586 52.0708 19.2375 53.7498 21.3086 53.7498Z" fill="white" stroke="white" stroke-width="3.75" stroke-linecap="round" stroke-linejoin="round"/>
</svg>
