<svg width="1364" height="185" viewBox="0 0 1364 185" fill="none" xmlns="http://www.w3.org/2000/svg">
<path d="M0.000470579 196.82V3.1203H24.7005L133.38 153.14L121.68 154.96V3.1203H152.1V196.82H127.4L19.5005 45.7603L30.6805 43.6803V196.82H0.000470579ZM246.808 199.94C233.288 199.94 220.894 196.734 209.628 190.32C198.534 183.907 189.694 175.154 183.108 164.06C176.521 152.967 173.228 140.4 173.228 126.36C173.228 112.147 176.521 99.5803 183.108 88.6603C189.694 77.567 198.534 68.9003 209.628 62.6603C220.721 56.247 233.114 53.0403 246.808 53.0403C260.674 53.0403 273.068 56.247 283.988 62.6603C295.081 68.9003 303.834 77.567 310.248 88.6603C316.834 99.5803 320.128 112.147 320.128 126.36C320.128 140.574 316.834 153.227 310.248 164.32C303.661 175.414 294.821 184.167 283.728 190.58C272.634 196.82 260.328 199.94 246.808 199.94ZM246.808 172.64C255.128 172.64 262.494 170.647 268.908 166.66C275.321 162.674 280.348 157.214 283.988 150.28C287.801 143.174 289.708 135.2 289.708 126.36C289.708 117.52 287.801 109.634 283.988 102.7C280.348 95.767 275.321 90.307 268.908 86.3203C262.494 82.3336 255.128 80.3403 246.808 80.3403C238.661 80.3403 231.294 82.3336 224.708 86.3203C218.294 90.307 213.181 95.767 209.368 102.7C205.728 109.634 203.908 117.52 203.908 126.36C203.908 135.2 205.728 143.174 209.368 150.28C213.181 157.214 218.294 162.674 224.708 166.66C231.294 170.647 238.661 172.64 246.808 172.64ZM406.271 199.94C392.751 199.94 380.357 196.734 369.091 190.32C357.997 183.907 349.157 175.154 342.571 164.06C335.984 152.967 332.691 140.4 332.691 126.36C332.691 112.147 335.984 99.5803 342.571 88.6603C349.157 77.567 357.997 68.9003 369.091 62.6603C380.184 56.247 392.577 53.0403 406.271 53.0403C420.137 53.0403 432.531 56.247 443.451 62.6603C454.544 68.9003 463.297 77.567 469.711 88.6603C476.297 99.5803 479.591 112.147 479.591 126.36C479.591 140.574 476.297 153.227 469.711 164.32C463.124 175.414 454.284 184.167 443.191 190.58C432.097 196.82 419.791 199.94 406.271 199.94ZM406.271 172.64C414.591 172.64 421.957 170.647 428.371 166.66C434.784 162.674 439.811 157.214 443.451 150.28C447.264 143.174 449.171 135.2 449.171 126.36C449.171 117.52 447.264 109.634 443.451 102.7C439.811 95.767 434.784 90.307 428.371 86.3203C421.957 82.3336 414.591 80.3403 406.271 80.3403C398.124 80.3403 390.757 82.3336 384.171 86.3203C377.757 90.307 372.644 95.767 368.831 102.7C365.191 109.634 363.371 117.52 363.371 126.36C363.371 135.2 365.191 143.174 368.831 150.28C372.644 157.214 377.757 162.674 384.171 166.66C390.757 170.647 398.124 172.64 406.271 172.64ZM497.874 196.82V56.1603H525.954V84.5003L523.354 80.3403C526.474 71.1536 531.501 64.567 538.434 60.5803C545.367 56.4203 553.687 54.3403 563.394 54.3403H571.974V81.1203H559.754C550.047 81.1203 542.161 84.1536 536.094 90.2203C530.201 96.1136 527.254 104.607 527.254 115.7V196.82H497.874ZM710.323 199.94C696.629 199.94 683.889 197.427 672.103 192.4C660.489 187.374 650.263 180.44 641.423 171.6C632.756 162.587 625.996 152.014 621.143 139.88C616.289 127.747 613.863 114.4 613.863 99.8403C613.863 85.4536 616.203 72.1936 620.883 60.0603C625.736 47.7536 632.496 37.1803 641.163 28.3403C649.829 19.327 659.969 12.3936 671.583 7.5403C683.196 2.51364 695.936 0.000304937 709.803 0.000304937C723.496 0.000304937 735.716 2.34031 746.462 7.02031C757.383 11.7003 766.569 17.8536 774.023 25.4803C781.476 32.9336 786.849 41.0803 790.143 49.9203L762.843 63.1803C758.856 52.607 752.269 44.1136 743.083 37.7003C733.896 31.1136 722.803 27.8203 709.803 27.8203C696.976 27.8203 685.623 30.8536 675.743 36.9203C665.863 42.987 658.149 51.3936 652.603 62.1403C647.229 72.887 644.543 85.4536 644.543 99.8403C644.543 114.227 647.316 126.88 652.863 137.8C658.583 148.547 666.383 156.954 676.263 163.02C686.143 168.914 697.496 171.86 710.323 171.86C721.069 171.86 730.863 169.694 739.703 165.36C748.716 160.854 755.909 154.614 761.283 146.64C766.656 138.494 769.343 129.047 769.343 118.3V105.04L783.123 117.52H709.803V91.5203H799.763V109.72C799.763 123.934 797.336 136.674 792.483 147.94C787.629 159.034 781.043 168.48 772.723 176.28C764.403 184.08 754.869 189.974 744.123 193.96C733.376 197.947 722.109 199.94 710.323 199.94ZM817.826 196.82V0.000304937H847.206V196.82H817.826ZM939.017 199.94C925.497 199.94 913.104 196.734 901.837 190.32C890.744 183.907 881.904 175.154 875.317 164.06C868.73 152.967 865.437 140.4 865.437 126.36C865.437 112.147 868.73 99.5803 875.317 88.6603C881.904 77.567 890.744 68.9003 901.837 62.6603C912.93 56.247 925.324 53.0403 939.017 53.0403C952.884 53.0403 965.277 56.247 976.197 62.6603C987.29 68.9003 996.044 77.567 1002.46 88.6603C1009.04 99.5803 1012.34 112.147 1012.34 126.36C1012.34 140.574 1009.04 153.227 1002.46 164.32C995.87 175.414 987.03 184.167 975.937 190.58C964.844 196.82 952.537 199.94 939.017 199.94ZM939.017 172.64C947.337 172.64 954.704 170.647 961.117 166.66C967.53 162.674 972.557 157.214 976.197 150.28C980.01 143.174 981.917 135.2 981.917 126.36C981.917 117.52 980.01 109.634 976.197 102.7C972.557 95.767 967.53 90.307 961.117 86.3203C954.704 82.3336 947.337 80.3403 939.017 80.3403C930.87 80.3403 923.504 82.3336 916.917 86.3203C910.504 90.307 905.39 95.767 901.577 102.7C897.937 109.634 896.117 117.52 896.117 126.36C896.117 135.2 897.937 143.174 901.577 150.28C905.39 157.214 910.504 162.674 916.917 166.66C923.504 170.647 930.87 172.64 939.017 172.64ZM1105.76 199.94C1094.84 199.94 1084.87 197.687 1075.86 193.18C1067.02 188.674 1060.17 182.174 1055.32 173.68L1058.7 168.22V196.82H1030.62V0.000304937H1060V85.2803L1055.32 78.5203C1060.52 70.547 1067.45 64.307 1076.12 59.8003C1084.79 55.2936 1094.67 53.0403 1105.76 53.0403C1119.11 53.0403 1131.07 56.247 1141.64 62.6603C1152.39 69.0736 1160.79 77.827 1166.86 88.9203C1173.1 100.014 1176.22 112.494 1176.22 126.36C1176.22 140.227 1173.1 152.707 1166.86 163.8C1160.79 174.894 1152.47 183.734 1141.9 190.32C1131.33 196.734 1119.28 199.94 1105.76 199.94ZM1102.9 172.64C1111.22 172.64 1118.59 170.647 1125 166.66C1131.41 162.674 1136.44 157.214 1140.08 150.28C1143.89 143.174 1145.8 135.2 1145.8 126.36C1145.8 117.52 1143.89 109.634 1140.08 102.7C1136.44 95.767 1131.41 90.307 1125 86.3203C1118.59 82.3336 1111.22 80.3403 1102.9 80.3403C1094.75 80.3403 1087.39 82.3336 1080.8 86.3203C1074.39 90.307 1069.27 95.767 1065.46 102.7C1061.82 109.634 1060 117.52 1060 126.36C1060 135.2 1061.82 143.174 1065.46 150.28C1069.27 157.214 1074.39 162.674 1080.8 166.66C1087.39 170.647 1094.75 172.64 1102.9 172.64ZM1236.52 199.94C1226.99 199.94 1218.58 198.294 1211.3 195C1204.19 191.534 1198.65 186.854 1194.66 180.96C1190.67 174.894 1188.68 167.787 1188.68 159.64C1188.68 152.014 1190.33 145.167 1193.62 139.1C1197.09 133.034 1202.37 127.92 1209.48 123.76C1216.59 119.6 1225.51 116.654 1236.26 114.92L1285.14 106.86V130L1241.98 137.54C1234.18 138.927 1228.46 141.44 1224.82 145.08C1221.18 148.547 1219.36 153.054 1219.36 158.6C1219.36 163.974 1221.35 168.394 1225.34 171.86C1229.5 175.154 1234.79 176.8 1241.2 176.8C1249.17 176.8 1256.11 175.067 1262 171.6C1268.07 168.134 1272.75 163.54 1276.04 157.82C1279.33 151.927 1280.98 145.427 1280.98 138.32V102.18C1280.98 95.247 1278.38 89.6136 1273.18 85.2803C1268.15 80.7736 1261.39 78.5203 1252.9 78.5203C1245.1 78.5203 1238.25 80.6003 1232.36 84.7603C1226.64 88.747 1222.39 93.947 1219.62 100.36L1195.18 88.1403C1197.78 81.207 1202.03 75.1403 1207.92 69.9403C1213.81 64.567 1220.66 60.407 1228.46 57.4603C1236.43 54.5136 1244.84 53.0403 1253.68 53.0403C1264.77 53.0403 1274.57 55.1203 1283.06 59.2803C1291.73 63.4403 1298.4 69.247 1303.08 76.7003C1307.93 83.9803 1310.36 92.4736 1310.36 102.18V196.82H1282.28V171.34L1288.26 172.12C1284.97 177.84 1280.72 182.78 1275.52 186.94C1270.49 191.1 1264.69 194.307 1258.1 196.56C1251.69 198.814 1244.49 199.94 1236.52 199.94ZM1334.31 196.82V0.000304937H1363.69V196.82H1334.31Z" fill="url(#paint0_linear_1566_42558)"/>
<defs>
<linearGradient id="paint0_linear_1566_42558" x1="680.48" y1="220.82" x2="680.48" y2="-39.1797" gradientUnits="userSpaceOnUse">
<stop stop-color="white"/>
<stop offset="0.655" stop-color="#707070"/>
<stop offset="1" stop-opacity="0.08"/>
</linearGradient>
</defs>
</svg>
