<svg width="189" height="130" viewBox="0 0 189 130" fill="none" xmlns="http://www.w3.org/2000/svg">
<g filter="url(#filter0_dd_1564_42148)">
<rect x="29.9375" y="4.98926" width="69.8532" height="69.8532" rx="17.4633" fill="#22C37A"/>
<path d="M64.3359 22.7277C64.416 22.2985 64.6438 21.9108 64.9797 21.6319C65.3156 21.3529 65.7385 21.2002 66.1751 21.2002C66.6118 21.2002 67.0347 21.3529 67.3706 21.6319C67.7065 21.9108 67.9342 22.2985 68.0144 22.7277L69.9809 33.1271C70.1206 33.8665 70.4799 34.5466 71.0119 35.0786C71.5439 35.6106 72.224 35.9699 72.9634 36.1096L83.3628 38.0761C83.792 38.1563 84.1796 38.384 84.4586 38.7199C84.7376 39.0558 84.8903 39.4787 84.8903 39.9154C84.8903 40.352 84.7376 40.7749 84.4586 41.1108C84.1796 41.4467 83.792 41.6745 83.3628 41.7546L72.9634 43.7211C72.224 43.8608 71.5439 44.2201 71.0119 44.7521C70.4799 45.2842 70.1206 45.9643 69.9809 46.7036L68.0144 57.103C67.9342 57.5322 67.7065 57.9199 67.3706 58.1989C67.0347 58.4778 66.6118 58.6305 66.1751 58.6305C65.7385 58.6305 65.3156 58.4778 64.9797 58.1989C64.6438 57.9199 64.416 57.5322 64.3359 57.103L62.3694 46.7036C62.2297 45.9643 61.8704 45.2842 61.3384 44.7521C60.8063 44.2201 60.1262 43.8608 59.3869 43.7211L48.9875 41.7546C48.5583 41.6745 48.1706 41.4467 47.8916 41.1108C47.6127 40.7749 47.46 40.352 47.46 39.9154C47.46 39.4787 47.6127 39.0558 47.8916 38.7199C48.1706 38.384 48.5583 38.1563 48.9875 38.0761L59.3869 36.1096C60.1262 35.9699 60.8063 35.6106 61.3384 35.0786C61.8704 34.5466 62.2297 33.8665 62.3694 33.1271L64.3359 22.7277Z" fill="white" stroke="white" stroke-width="3.74214" stroke-linecap="round" stroke-linejoin="round"/>
<path d="M81.1309 21.2051V28.6894V21.2051Z" fill="white"/>
<path d="M81.1309 21.2051V28.6894" stroke="white" stroke-width="3.74214" stroke-linecap="round" stroke-linejoin="round"/>
<path d="M84.8729 24.9463H77.3887H84.8729Z" fill="white"/>
<path d="M84.8729 24.9463H77.3887" stroke="white" stroke-width="3.74214" stroke-linecap="round" stroke-linejoin="round"/>
<path d="M51.2021 58.6259C53.2688 58.6259 54.9442 56.9505 54.9442 54.8837C54.9442 52.817 53.2688 51.1416 51.2021 51.1416C49.1354 51.1416 47.46 52.817 47.46 54.8837C47.46 56.9505 49.1354 58.6259 51.2021 58.6259Z" fill="white" stroke="white" stroke-width="3.74214" stroke-linecap="round" stroke-linejoin="round"/>
</g>
<path d="M130.51 35.4082H126.313L118.704 23.8086C118.258 23.1306 117.949 22.6199 117.777 22.2766H117.726C117.795 22.9289 117.829 23.9245 117.829 25.2634V35.4082H113.902V16.9467H118.383L125.708 28.1858C126.043 28.6922 126.352 29.1943 126.635 29.6921H126.686C126.618 29.263 126.583 28.4176 126.583 27.1559V16.9467H130.51V35.4082ZM139.958 35.7301C137.761 35.7301 136.031 35.1164 134.769 33.8891C133.516 32.6531 132.89 30.9795 132.89 28.8682C132.89 26.6881 133.542 24.9845 134.847 23.7571C136.151 22.5212 137.915 21.9033 140.138 21.9033C142.327 21.9033 144.043 22.5212 145.288 23.7571C146.532 24.9845 147.154 26.6109 147.154 28.6364C147.154 30.825 146.511 32.5544 145.223 33.8247C143.944 35.0949 142.189 35.7301 139.958 35.7301ZM140.061 25.0188C139.099 25.0188 138.353 25.3492 137.821 26.0101C137.289 26.671 137.022 27.6065 137.022 28.8167C137.022 31.3486 138.044 32.6145 140.086 32.6145C142.035 32.6145 143.009 31.3142 143.009 28.7137C143.009 26.2504 142.026 25.0188 140.061 25.0188ZM155.418 35.7301C153.221 35.7301 151.491 35.1164 150.229 33.8891C148.976 32.6531 148.35 30.9795 148.35 28.8682C148.35 26.6881 149.002 24.9845 150.307 23.7571C151.611 22.5212 153.375 21.9033 155.598 21.9033C157.787 21.9033 159.503 22.5212 160.748 23.7571C161.992 24.9845 162.614 26.6109 162.614 28.6364C162.614 30.825 161.971 32.5544 160.683 33.8247C159.404 35.0949 157.649 35.7301 155.418 35.7301ZM155.521 25.0188C154.559 25.0188 153.813 25.3492 153.281 26.0101C152.749 26.671 152.482 27.6065 152.482 28.8167C152.482 31.3486 153.504 32.6145 155.546 32.6145C157.495 32.6145 158.469 31.3142 158.469 28.7137C158.469 26.2504 157.486 25.0188 155.521 25.0188ZM173.195 25.8942C172.706 25.6282 172.135 25.4951 171.483 25.4951C170.599 25.4951 169.908 25.8213 169.41 26.4736C168.912 27.1173 168.663 27.997 168.663 29.1128V35.4082H164.595V22.2251H168.663V24.6712H168.715C169.359 22.886 170.517 21.9934 172.191 21.9934C172.62 21.9934 172.955 22.0449 173.195 22.1479V25.8942Z" fill="white"/>
<path d="M129.055 64.1869C127.253 65.2254 125.013 65.7447 122.335 65.7447C119.365 65.7447 117.022 64.9251 115.306 63.2857C113.598 61.6379 112.744 59.372 112.744 56.4882C112.744 53.5873 113.679 51.2227 115.55 49.3946C117.421 47.5665 119.91 46.6524 123.017 46.6524C124.974 46.6524 126.699 46.9228 128.193 47.4635V51.3643C126.768 50.5404 125.026 50.1284 122.966 50.1284C121.241 50.1284 119.833 50.6906 118.743 51.8149C117.662 52.9307 117.121 54.4241 117.121 56.2951C117.121 58.1919 117.606 59.6595 118.576 60.6981C119.554 61.7366 120.872 62.2558 122.528 62.2558C123.524 62.2558 124.313 62.1142 124.897 61.831V58.2262H121.202V54.9047H129.055V64.1869ZM135.658 65.4229H131.59V45.9057H135.658V65.4229ZM144.706 65.7447C142.509 65.7447 140.78 65.131 139.518 63.9037C138.265 62.6678 137.639 60.9942 137.639 58.8828C137.639 56.7028 138.291 54.9991 139.595 53.7718C140.9 52.5359 142.664 51.9179 144.887 51.9179C147.075 51.9179 148.792 52.5359 150.036 53.7718C151.281 54.9991 151.903 56.6255 151.903 58.6511C151.903 60.8397 151.259 62.5691 149.972 63.8393C148.693 65.1096 146.938 65.7447 144.706 65.7447ZM144.809 55.0334C143.848 55.0334 143.102 55.3639 142.569 56.0248C142.037 56.6856 141.771 57.6211 141.771 58.8313C141.771 61.3632 142.793 62.6292 144.835 62.6292C146.783 62.6292 147.758 61.3289 147.758 58.7283C147.758 56.2651 146.775 55.0334 144.809 55.0334ZM158.004 63.8908H157.952V65.4229H153.884V45.9057H157.952V54.2224H158.004C159.008 52.6861 160.437 51.9179 162.291 51.9179C163.99 51.9179 165.299 52.5015 166.217 53.6688C167.136 54.836 167.595 56.4324 167.595 58.458C167.595 60.6551 167.058 62.4189 165.986 63.7492C164.913 65.0795 163.479 65.7447 161.686 65.7447C160.063 65.7447 158.836 65.1267 158.004 63.8908ZM157.888 58.3292V59.681C157.888 60.5307 158.132 61.2345 158.622 61.7924C159.111 62.3502 159.737 62.6292 160.501 62.6292C161.428 62.6292 162.145 62.273 162.651 61.5606C163.166 60.8397 163.424 59.8226 163.424 58.5095C163.424 57.4194 163.188 56.5698 162.716 55.9604C162.252 55.3424 161.587 55.0334 160.72 55.0334C159.905 55.0334 159.227 55.3381 158.686 55.9475C158.154 56.5569 157.888 57.3508 157.888 58.3292ZM180.287 65.4229H176.438V63.5304H176.386C175.502 65.0066 174.193 65.7447 172.459 65.7447C171.181 65.7447 170.172 65.3842 169.434 64.6633C168.704 63.9337 168.34 62.9639 168.34 61.7537C168.34 59.1961 169.855 57.7198 172.884 57.325L176.463 56.8487C176.463 55.4068 175.682 54.6858 174.12 54.6858C172.55 54.6858 171.056 55.1536 169.64 56.0891V53.0251C170.206 52.7333 170.979 52.4758 171.957 52.2526C172.944 52.0295 173.841 51.9179 174.648 51.9179C178.407 51.9179 180.287 53.7932 180.287 57.5439V65.4229ZM176.463 60.0672V59.1789L174.069 59.4879C172.747 59.6595 172.086 60.256 172.086 61.2774C172.086 61.7409 172.245 62.1228 172.562 62.4232C172.889 62.715 173.326 62.8609 173.876 62.8609C174.639 62.8609 175.262 62.5991 175.742 62.0756C176.223 61.5435 176.463 60.874 176.463 60.0672ZM186.915 65.4229H182.847V45.9057H186.915V65.4229Z" fill="#22C37A"/>
<defs>
<filter id="filter0_dd_1564_42148" x="0.000389576" y="-0.000266552" width="129.728" height="129.728" filterUnits="userSpaceOnUse" color-interpolation-filters="sRGB">
<feFlood flood-opacity="0" result="BackgroundImageFix"/>
<feColorMatrix in="SourceAlpha" type="matrix" values="0 0 0 0 0 0 0 0 0 0 0 0 0 0 0 0 0 0 127 0" result="hardAlpha"/>
<feMorphology radius="9.97903" operator="erode" in="SourceAlpha" result="effect1_dropShadow_1564_42148"/>
<feOffset dy="9.97903"/>
<feGaussianBlur stdDeviation="7.48428"/>
<feComposite in2="hardAlpha" operator="out"/>
<feColorMatrix type="matrix" values="0 0 0 0 0.133333 0 0 0 0 0.764706 0 0 0 0 0.478431 0 0 0 0.2 0"/>
<feBlend mode="normal" in2="BackgroundImageFix" result="effect1_dropShadow_1564_42148"/>
<feColorMatrix in="SourceAlpha" type="matrix" values="0 0 0 0 0 0 0 0 0 0 0 0 0 0 0 0 0 0 127 0" result="hardAlpha"/>
<feMorphology radius="7.48428" operator="erode" in="SourceAlpha" result="effect2_dropShadow_1564_42148"/>
<feOffset dy="24.9476"/>
<feGaussianBlur stdDeviation="18.7107"/>
<feComposite in2="hardAlpha" operator="out"/>
<feColorMatrix type="matrix" values="0 0 0 0 0.133333 0 0 0 0 0.764706 0 0 0 0 0.478431 0 0 0 0.2 0"/>
<feBlend mode="normal" in2="effect1_dropShadow_1564_42148" result="effect2_dropShadow_1564_42148"/>
<feBlend mode="normal" in="SourceGraphic" in2="effect2_dropShadow_1564_42148" result="shape"/>
</filter>
</defs>
</svg>
