<svg width="57" height="57" viewBox="0 0 57 57" fill="none" xmlns="http://www.w3.org/2000/svg">
<rect width="56.8924" height="56.8924" rx="28.4462" fill="white"/>
<g clip-path="url(#clip0_1529_41114)">
<g clip-path="url(#clip1_1529_41114)">
<g clip-path="url(#clip2_1529_41114)">
<path d="M34.7735 23.8043L16.4968 13.8102C16.2653 13.6821 15.9938 13.6469 15.7373 13.7117L30.3882 28.0618L34.7735 23.8043Z" fill="#0AE577" stroke="white" stroke-width="1.08051"/>
<path d="M29.6135 28.8147L14.9698 14.4724C14.9479 14.5584 14.9367 14.6467 14.9365 14.7354V43.0623L29.6122 28.8147H29.6135Z" fill="#40C3FF" stroke="white" stroke-width="1.08051"/>
<path d="M42.485 29.8665C42.6453 29.7789 42.78 29.6512 42.876 29.4959C42.972 29.3406 43.026 29.163 43.0326 28.9805C43.0393 28.7981 42.9984 28.617 42.9139 28.4551C42.8295 28.2932 42.7044 28.1561 42.5509 28.0571L42.485 28.018L35.7657 24.3464L31.1592 28.8179L35.9027 33.4636L42.485 29.8665Z" fill="#FFC826" stroke="white" stroke-width="1.08051"/>
<path d="M15.46 44.0602C15.6164 44.1522 15.7941 44.2019 15.9756 44.2043C16.157 44.2067 16.336 44.1618 16.4948 44.0739L34.9112 34.0061L30.3829 29.5718L15.46 44.0602Z" fill="#FF3945" stroke="white" stroke-width="1.08051"/>
</g>
</g>
</g>
<rect x="0.557769" y="0.557769" width="55.7769" height="55.7769" rx="27.8884" stroke="#BFBFBF" stroke-width="1.11554"/>
<defs>
<clipPath id="clip0_1529_41114">
<rect width="34.5817" height="34.5817" fill="white" transform="translate(11.1553 11.1553)"/>
</clipPath>
<clipPath id="clip1_1529_41114">
<rect width="34.5817" height="34.5817" fill="white" transform="translate(11.1553 11.1553)"/>
</clipPath>
<clipPath id="clip2_1529_41114">
<rect width="34.5817" height="34.5817" fill="white" transform="translate(11.1553 11.1553)"/>
</clipPath>
</defs>
</svg>
