<svg width="40" height="40" viewBox="0 0 40 40" fill="none" xmlns="http://www.w3.org/2000/svg">
<rect width="40" height="40" rx="8" fill="#F8F8F8"/>
<rect x="2" y="2" width="36" height="36" rx="6" fill="white"/>
<path d="M20.5 25.1111C21.8807 25.1111 23 26.2055 23 27.5556C23 28.9056 21.8807 30 20.5 30C19.1193 30 18 28.9056 18 27.5556C18 26.2055 19.1193 25.1111 20.5 25.1111Z" fill="#333333"/>
<path d="M20.5 17.5556C21.8807 17.5556 23 18.65 23 20C23 21.35 21.8807 22.4444 20.5 22.4444C19.1193 22.4444 18 21.35 18 20C18 18.65 19.1193 17.5556 20.5 17.5556Z" fill="#333333"/>
<path d="M20.5 10C21.8807 10 23 11.0944 23 12.4444C23 13.7945 21.8807 14.8889 20.5 14.8889C19.1193 14.8889 18 13.7945 18 12.4444C18 11.0944 19.1193 10 20.5 10Z" fill="#333333"/>
</svg>
