<svg width="280" height="343" viewBox="0 0 280 343" fill="none" xmlns="http://www.w3.org/2000/svg">
<g filter="url(#filter0_ddddddd_1529_40312)">
<g clip-path="url(#clip0_1529_40312)">
<rect x="15.6172" width="248.765" height="257.645" rx="26.7729" fill="white" fill-opacity="0.01" shape-rendering="crispEdges"/>
<g clip-path="url(#clip1_1529_40312)">
<rect x="14" y="2.82227" width="252" height="252" rx="5.21379" fill="#F0F1F3"/>
<path d="M266 2.82227H14V254.822H266V2.82227Z" fill="#F0F1F3"/>
<mask id="mask0_1529_40312" style="mask-type:luminance" maskUnits="userSpaceOnUse" x="42" y="30" width="197" height="198">
<path d="M105.246 32.5725L110.746 31.0012L112.317 36.5007L106.817 38.072L105.246 32.5725Z" fill="white"/>
<path d="M113.338 30.9229L113.023 37.8365L119.937 38.1508L120.251 31.2371L113.338 30.9229Z" fill="white"/>
<path d="M121.197 30.9229L120.883 37.8365L127.797 38.1508L128.111 31.2371L121.197 30.9229Z" fill="white"/>
<path d="M129.049 30.9229L128.734 37.8365L135.648 38.1508L135.962 31.2371L129.049 30.9229Z" fill="white"/>
<path d="M136.908 30.9229L136.594 37.8365L143.507 38.1508L143.822 31.2371L136.908 30.9229Z" fill="white"/>
<path d="M144.763 30.9229L144.449 37.8365L151.363 38.1508L151.677 31.2371L144.763 30.9229Z" fill="white"/>
<path d="M153.168 31.0012L152.383 37.2864L158.668 38.072L159.454 31.7869L153.168 31.0012Z" fill="white"/>
<path d="M113.338 38.7798L113.023 45.6935L119.937 46.0077L120.251 39.094L113.338 38.7798Z" fill="white"/>
<path d="M136.908 38.7798L136.594 45.6935L143.507 46.0077L143.822 39.094L136.908 38.7798Z" fill="white"/>
<path d="M105.246 48.2864L110.746 46.7151L112.317 52.2146L106.817 53.7859L105.246 48.2864Z" fill="white"/>
<path d="M112.711 47.6569L119.232 46.3213L120.567 52.8422L114.047 54.1778L112.711 47.6569Z" fill="white"/>
<path d="M128.421 47.2638L135.335 46.321L136.277 53.2347L129.364 54.1775L128.421 47.2638Z" fill="white"/>
<path d="M136.908 46.636L136.594 53.5497L143.507 53.8639L143.822 46.9502L136.908 46.636Z" fill="white"/>
<path d="M145.861 46.3213L144.133 52.4493L150.261 54.1778L151.989 48.0497L145.861 46.3213Z" fill="white"/>
<path d="M167.703 47.4998L174.381 46.3213L175.56 52.9993L168.882 54.1778L167.703 47.4998Z" fill="white"/>
<path d="M120.961 56.1426L126.46 54.5713L128.032 60.0708L122.532 61.6421L120.961 56.1426Z" fill="white"/>
<path d="M129.049 54.4927L128.734 61.4064L135.648 61.7206L135.962 54.8069L129.049 54.4927Z" fill="white"/>
<path d="M145.154 54.1785L144.133 61.0136L150.968 62.0349L151.989 55.1998L145.154 54.1785Z" fill="white"/>
<path d="M153.722 54.1782L151.993 60.3063L158.121 62.0347L159.85 55.9066L153.722 54.1782Z" fill="white"/>
<path d="M112.711 62.4285L120.175 62.0356L120.567 69.4993L113.104 69.8921L112.711 62.4285Z" fill="white"/>
<path d="M129.049 62.3496L128.734 69.2633L135.648 69.5776L135.962 62.6639L129.049 62.3496Z" fill="white"/>
<path d="M152.619 62.3496L152.305 69.2633L159.218 69.5776L159.533 62.6639L152.619 62.3496Z" fill="white"/>
<path d="M104.855 70.8341L111.769 69.8914L112.712 76.805L105.798 77.7478L104.855 70.8341Z" fill="white"/>
<path d="M113.338 70.2058L113.023 77.1195L119.937 77.4338L120.251 70.5201L113.338 70.2058Z" fill="white"/>
<path d="M121.197 70.2058L120.883 77.1195L127.797 77.4338L128.111 70.5201L121.197 70.2058Z" fill="white"/>
<path d="M129.049 70.2058L128.734 77.1195L135.648 77.4338L135.962 70.5201L129.049 70.2058Z" fill="white"/>
<path d="M138.01 69.8914L136.281 76.0194L142.409 77.7478L144.138 71.6198L138.01 69.8914Z" fill="white"/>
<path d="M152.619 70.2058L152.305 77.1195L159.218 77.4338L159.533 70.5201L152.619 70.2058Z" fill="white"/>
<path d="M167.703 70.2842L175.167 69.8914L175.56 77.355L168.096 77.7478L167.703 70.2842Z" fill="white"/>
<path d="M104.855 78.5342L111.926 77.7485L112.712 84.8194L105.641 85.605L104.855 78.5342Z" fill="white"/>
<path d="M120.566 78.5342L127.637 77.7485L128.423 84.8194L121.352 85.605L120.566 78.5342Z" fill="white"/>
<path d="M136.908 78.062L136.594 84.9757L143.507 85.29L143.822 78.3763L136.908 78.062Z" fill="white"/>
<path d="M151.993 78.5342L159.064 77.7485L159.85 84.8194L152.779 85.605L151.993 78.5342Z" fill="white"/>
<path d="M168.334 78.062L168.02 84.9757L174.933 85.29L175.247 78.3763L168.334 78.062Z" fill="white"/>
<path d="M112.711 85.9963L120.175 85.6035L120.567 93.0672L113.104 93.46L112.711 85.9963Z" fill="white"/>
<path d="M136.281 86.3892L143.352 85.6035L144.138 92.6743L137.067 93.46L136.281 86.3892Z" fill="white"/>
<path d="M160.242 87.5684L165.742 85.9971L167.313 91.4966L161.813 93.0679L160.242 87.5684Z" fill="white"/>
<path d="M168.334 85.918L168.02 92.8317L174.933 93.1459L175.247 86.2322L168.334 85.918Z" fill="white"/>
<path d="M42 93.8535L49.4636 93.4607L49.8565 100.924L42.3928 101.317L42 93.8535Z" fill="white"/>
<path d="M57.7148 94.6392L64.3928 93.4607L65.5713 100.139L58.8933 101.317L57.7148 94.6392Z" fill="white"/>
<path d="M89.5352 95.4248L95.0347 93.8535L96.606 99.353L91.1064 100.924L89.5352 95.4248Z" fill="white"/>
<path d="M98.1724 93.8535L97.3867 100.139L103.672 100.924L104.458 94.6392L98.1724 93.8535Z" fill="white"/>
<path d="M112.711 94.2463L119.782 93.4607L120.567 100.532L113.497 101.317L112.711 94.2463Z" fill="white"/>
<path d="M128.421 93.8535L135.885 93.4607L136.277 100.924L128.814 101.317L128.421 93.8535Z" fill="white"/>
<path d="M151.993 94.6392L158.671 93.4607L159.85 100.139L153.172 101.317L151.993 94.6392Z" fill="white"/>
<path d="M168.334 93.7749L168.02 100.689L174.933 101.003L175.247 94.0892L168.334 93.7749Z" fill="white"/>
<path d="M191.277 93.8535L198.741 93.4607L199.134 100.924L191.67 101.317L191.277 93.8535Z" fill="white"/>
<path d="M214.844 94.6392L221.522 93.4607L222.7 100.139L216.022 101.317L214.844 94.6392Z" fill="white"/>
<path d="M230.555 93.8535L238.018 93.4607L238.411 100.924L230.948 101.317L230.555 93.8535Z" fill="white"/>
<path d="M42.6307 101.632L42.3164 108.546L49.2301 108.86L49.5444 101.946L42.6307 101.632Z" fill="white"/>
<path d="M51.5878 101.316L49.8594 107.444L55.9874 109.173L57.7158 103.045L51.5878 101.316Z" fill="white"/>
<path d="M65.5703 101.709L73.034 101.316L73.4268 108.78L65.9631 109.173L65.5703 101.709Z" fill="white"/>
<path d="M129.049 101.632L128.734 108.546L135.648 108.86L135.962 101.946L129.049 101.632Z" fill="white"/>
<path d="M144.133 102.495L150.811 101.316L151.989 107.994L145.311 109.173L144.133 102.495Z" fill="white"/>
<path d="M159.848 102.259L166.761 101.316L167.704 108.23L160.79 109.173L159.848 102.259Z" fill="white"/>
<path d="M168.334 101.632L168.02 108.546L174.933 108.86L175.247 101.946L168.334 101.632Z" fill="white"/>
<path d="M183.809 103.281L189.308 101.71L190.879 107.21L185.38 108.781L183.809 103.281Z" fill="white"/>
<path d="M191.904 101.632L191.59 108.546L198.504 108.86L198.818 101.946L191.904 101.632Z" fill="white"/>
<path d="M206.988 101.709L214.452 101.317L214.845 108.78L207.381 109.173L206.988 101.709Z" fill="white"/>
<path d="M223.094 103.281L228.593 101.71L230.165 107.21L224.665 108.781L223.094 103.281Z" fill="white"/>
<path d="M231.185 101.632L230.871 108.546L237.785 108.86L238.099 101.946L231.185 101.632Z" fill="white"/>
<path d="M42.6307 109.488L42.3164 116.402L49.2301 116.716L49.5444 109.802L42.6307 109.488Z" fill="white"/>
<path d="M50.4861 109.488L50.1719 116.402L57.0856 116.716L57.3998 109.802L50.4861 109.488Z" fill="white"/>
<path d="M66.201 109.488L65.8867 116.402L72.8004 116.716L73.1147 109.802L66.201 109.488Z" fill="white"/>
<path d="M74.0564 109.488L73.7422 116.402L80.6559 116.716L80.9701 109.802L74.0564 109.488Z" fill="white"/>
<path d="M81.9119 109.488L81.5977 116.402L88.5113 116.716L88.8256 109.802L81.9119 109.488Z" fill="white"/>
<path d="M90.3208 109.567L89.5352 115.852L95.8203 116.637L96.606 110.352L90.3208 109.567Z" fill="white"/>
<path d="M113.102 111.138L118.601 109.567L120.172 115.066L114.673 116.637L113.102 111.138Z" fill="white"/>
<path d="M121.197 109.488L120.883 116.402L127.797 116.716L128.111 109.802L121.197 109.488Z" fill="white"/>
<path d="M129.049 109.488L128.734 116.402L135.648 116.716L135.962 109.802L129.049 109.488Z" fill="white"/>
<path d="M137.458 109.567L136.672 115.852L142.957 116.637L143.743 110.352L137.458 109.567Z" fill="white"/>
<path d="M160.869 109.174L159.848 116.009L166.683 117.03L167.704 110.195L160.869 109.174Z" fill="white"/>
<path d="M168.334 109.488L168.02 116.402L174.933 116.716L175.247 109.802L168.334 109.488Z" fill="white"/>
<path d="M191.904 109.488L191.59 116.402L198.504 116.716L198.818 109.802L191.904 109.488Z" fill="white"/>
<path d="M207.615 109.488L207.301 116.402L214.214 116.716L214.529 109.802L207.615 109.488Z" fill="white"/>
<path d="M216.021 109.566L215.235 115.852L221.521 116.637L222.306 110.352L216.021 109.566Z" fill="white"/>
<path d="M230.555 109.959L237.626 109.174L238.411 116.244L231.34 117.03L230.555 109.959Z" fill="white"/>
<path d="M43.0213 117.031L42 123.866L48.8351 124.887L49.8565 118.052L43.0213 117.031Z" fill="white"/>
<path d="M50.4861 117.345L50.1719 124.259L57.0856 124.573L57.3998 117.659L50.4861 117.345Z" fill="white"/>
<path d="M66.201 117.344L65.8867 124.258L72.8004 124.572L73.1147 117.659L66.201 117.344Z" fill="white"/>
<path d="M81.9119 117.345L81.5977 124.259L88.5113 124.573L88.8256 117.659L81.9119 117.345Z" fill="white"/>
<path d="M97.3867 118.994L102.886 117.423L104.458 122.922L98.958 124.494L97.3867 118.994Z" fill="white"/>
<path d="M106.032 117.423L105.246 123.708L111.531 124.494L112.317 118.208L106.032 117.423Z" fill="white"/>
<path d="M120.566 117.816L127.637 117.031L128.423 124.102L121.352 124.887L120.566 117.816Z" fill="white"/>
<path d="M151.993 117.424L159.457 117.031L159.85 124.495L152.386 124.887L151.993 117.424Z" fill="white"/>
<path d="M168.334 117.345L168.02 124.259L174.933 124.573L175.247 117.659L168.334 117.345Z" fill="white"/>
<path d="M176.193 117.345L175.879 124.259L182.793 124.573L183.107 117.659L176.193 117.345Z" fill="white"/>
<path d="M184.045 117.345L183.73 124.259L190.644 124.573L190.958 117.659L184.045 117.345Z" fill="white"/>
<path d="M191.904 117.345L191.59 124.259L198.504 124.573L198.818 117.659L191.904 117.345Z" fill="white"/>
<path d="M199.76 117.345L199.445 124.259L206.359 124.573L206.673 117.659L199.76 117.345Z" fill="white"/>
<path d="M206.988 118.366L213.509 117.031L214.845 123.552L208.324 124.887L206.988 118.366Z" fill="white"/>
<path d="M49.8594 125.672L56.9302 124.887L57.7158 131.958L50.645 132.743L49.8594 125.672Z" fill="white"/>
<path d="M66.5917 124.887L65.5703 131.722L72.4054 132.743L73.4268 125.908L66.5917 124.887Z" fill="white"/>
<path d="M74.0564 125.2L73.7422 132.114L80.6559 132.428L80.9701 125.515L74.0564 125.2Z" fill="white"/>
<path d="M81.9119 125.2L81.5977 132.114L88.5113 132.428L88.8256 125.515L81.9119 125.2Z" fill="white"/>
<path d="M90.3208 125.279L89.5352 131.564L95.8203 132.35L96.606 126.065L90.3208 125.279Z" fill="white"/>
<path d="M112.711 126.065L119.389 124.887L120.567 131.565L113.889 132.743L112.711 126.065Z" fill="white"/>
<path d="M144.133 125.829L151.047 124.887L151.989 131.8L145.076 132.743L144.133 125.829Z" fill="white"/>
<path d="M151.993 126.222L158.514 124.887L159.85 131.408L153.329 132.743L151.993 126.222Z" fill="white"/>
<path d="M168.334 125.2L168.02 132.114L174.933 132.428L175.247 125.515L168.334 125.2Z" fill="white"/>
<path d="M184.045 125.2L183.73 132.114L190.644 132.428L190.958 125.515L184.045 125.2Z" fill="white"/>
<path d="M191.904 125.2L191.59 132.114L198.504 132.428L198.818 125.515L191.904 125.2Z" fill="white"/>
<path d="M230.555 125.28L238.018 124.887L238.411 132.35L230.948 132.743L230.555 125.28Z" fill="white"/>
<path d="M74.4481 132.743L73.4268 139.578L80.2619 140.599L81.2832 133.764L74.4481 132.743Z" fill="white"/>
<path d="M81.2852 134.079L87.806 132.743L89.1416 139.264L82.6208 140.599L81.2852 134.079Z" fill="white"/>
<path d="M120.566 133.921L127.244 132.743L128.423 139.421L121.745 140.599L120.566 133.921Z" fill="white"/>
<path d="M144.133 133.529L151.204 132.743L151.989 139.814L144.918 140.599L144.133 133.529Z" fill="white"/>
<path d="M159.848 133.686L166.761 132.743L167.704 139.657L160.79 140.599L159.848 133.686Z" fill="white"/>
<path d="M167.703 134.079L174.224 132.743L175.56 139.264L169.039 140.599L167.703 134.079Z" fill="white"/>
<path d="M184.439 132.743L183.418 139.578L190.253 140.599L191.274 133.764L184.439 132.743Z" fill="white"/>
<path d="M191.277 134.079L197.798 132.743L199.134 139.264L192.613 140.599L191.277 134.079Z" fill="white"/>
<path d="M223.094 134.707L228.593 133.136L230.165 138.636L224.665 140.207L223.094 134.707Z" fill="white"/>
<path d="M231.185 133.057L230.871 139.971L237.785 140.285L238.099 133.372L231.185 133.057Z" fill="white"/>
<path d="M42.3945 142.564L47.8941 140.993L49.4653 146.492L43.9658 148.064L42.3945 142.564Z" fill="white"/>
<path d="M50.4861 140.913L50.1719 147.827L57.0856 148.141L57.3998 141.228L50.4861 140.913Z" fill="white"/>
<path d="M59.4433 140.599L57.7148 146.727L63.8429 148.455L65.5713 142.327L59.4433 140.599Z" fill="white"/>
<path d="M89.5352 142.564L95.0347 140.993L96.606 146.492L91.1064 148.064L89.5352 142.564Z" fill="white"/>
<path d="M97.6268 140.913L97.3125 147.827L104.226 148.141L104.54 141.228L97.6268 140.913Z" fill="white"/>
<path d="M106.584 140.599L104.855 146.727L110.984 148.455L112.712 142.327L106.584 140.599Z" fill="white"/>
<path d="M128.421 141.777L135.099 140.599L136.277 147.277L129.599 148.455L128.421 141.777Z" fill="white"/>
<path d="M160.474 140.913L160.16 147.827L167.074 148.141L167.388 141.228L160.474 140.913Z" fill="white"/>
<path d="M206.988 141.542L213.902 140.599L214.845 147.513L207.931 148.455L206.988 141.542Z" fill="white"/>
<path d="M216.021 140.993L215.235 147.279L221.521 148.064L222.306 141.779L216.021 140.993Z" fill="white"/>
<path d="M230.555 141.385L237.626 140.599L238.411 147.67L231.34 148.455L230.555 141.385Z" fill="white"/>
<path d="M58.3416 148.77L58.0273 155.684L64.941 155.998L65.2553 149.085L58.3416 148.77Z" fill="white"/>
<path d="M98.0174 148.456L96.9961 155.291L103.831 156.313L104.853 149.477L98.0174 148.456Z" fill="white"/>
<path d="M105.482 148.77L105.168 155.684L112.082 155.998L112.396 149.085L105.482 148.77Z" fill="white"/>
<path d="M113.887 148.849L113.102 155.134L119.387 155.92L120.172 149.635L113.887 148.849Z" fill="white"/>
<path d="M144.133 148.849L151.596 148.456L151.989 155.92L144.526 156.313L144.133 148.849Z" fill="white"/>
<path d="M160.474 148.77L160.16 155.684L167.074 155.998L167.388 149.085L160.474 148.77Z" fill="white"/>
<path d="M168.334 148.77L168.02 155.684L174.933 155.998L175.247 149.085L168.334 148.77Z" fill="white"/>
<path d="M176.193 148.77L175.879 155.684L182.793 155.998L183.107 149.085L176.193 148.77Z" fill="white"/>
<path d="M184.045 148.77L183.73 155.684L190.644 155.998L190.958 149.085L184.045 148.77Z" fill="white"/>
<path d="M191.904 148.77L191.59 155.684L198.504 155.998L198.818 149.085L191.904 148.77Z" fill="white"/>
<path d="M199.76 148.77L199.445 155.684L206.359 155.998L206.673 149.085L199.76 148.77Z" fill="white"/>
<path d="M206.988 149.792L213.509 148.456L214.845 154.977L208.324 156.313L206.988 149.792Z" fill="white"/>
<path d="M42.3945 158.277L47.8941 156.706L49.4653 162.205L43.9658 163.776L42.3945 158.277Z" fill="white"/>
<path d="M50.4861 156.627L50.1719 163.541L57.0856 163.855L57.3998 156.941L50.4861 156.627Z" fill="white"/>
<path d="M57.7148 157.649L64.2357 156.313L65.5713 162.834L59.0504 164.17L57.7148 157.649Z" fill="white"/>
<path d="M89.1367 157.492L95.8147 156.313L96.9932 162.991L90.3152 164.17L89.1367 157.492Z" fill="white"/>
<path d="M120.961 158.277L126.46 156.706L128.032 162.205L122.532 163.776L120.961 158.277Z" fill="white"/>
<path d="M129.049 156.627L128.734 163.541L135.648 163.855L135.962 156.941L129.049 156.627Z" fill="white"/>
<path d="M136.908 156.627L136.594 163.541L143.507 163.855L143.822 156.941L136.908 156.627Z" fill="white"/>
<path d="M144.133 157.649L150.654 156.313L151.989 162.834L145.468 164.17L144.133 157.649Z" fill="white"/>
<path d="M160.869 156.313L159.848 163.148L166.683 164.17L167.704 157.335L160.869 156.313Z" fill="white"/>
<path d="M168.334 156.627L168.02 163.541L174.933 163.855L175.247 156.941L168.334 156.627Z" fill="white"/>
<path d="M176.193 156.627L175.879 163.541L182.793 163.855L183.107 156.941L176.193 156.627Z" fill="white"/>
<path d="M184.045 156.627L183.73 163.541L190.644 163.855L190.958 156.941L184.045 156.627Z" fill="white"/>
<path d="M191.904 156.627L191.59 163.541L198.504 163.855L198.818 156.941L191.904 156.627Z" fill="white"/>
<path d="M199.76 156.627L199.445 163.541L206.359 163.855L206.673 156.941L199.76 156.627Z" fill="white"/>
<path d="M222.699 157.492L229.377 156.313L230.556 162.991L223.878 164.17L222.699 157.492Z" fill="white"/>
<path d="M104.855 165.112L111.769 164.169L112.712 171.083L105.798 172.025L104.855 165.112Z" fill="white"/>
<path d="M113.887 164.561L113.102 170.846L119.387 171.632L120.172 165.347L113.887 164.561Z" fill="white"/>
<path d="M136.908 164.483L136.594 171.397L143.507 171.711L143.822 164.797L136.908 164.483Z" fill="white"/>
<path d="M168.334 164.483L168.02 171.397L174.933 171.711L175.247 164.797L168.334 164.483Z" fill="white"/>
<path d="M199.76 164.483L199.445 171.397L206.359 171.711L206.673 164.797L199.76 164.483Z" fill="white"/>
<path d="M230.555 164.562L238.018 164.169L238.411 171.633L230.948 172.025L230.555 164.562Z" fill="white"/>
<path d="M104.855 172.812L111.926 172.026L112.712 179.097L105.641 179.883L104.855 172.812Z" fill="white"/>
<path d="M120.566 173.205L127.244 172.026L128.423 178.704L121.745 179.883L120.566 173.205Z" fill="white"/>
<path d="M136.908 172.34L136.594 179.253L143.507 179.568L143.822 172.654L136.908 172.34Z" fill="white"/>
<path d="M144.763 172.34L144.449 179.253L151.363 179.568L151.677 172.654L144.763 172.34Z" fill="white"/>
<path d="M153.722 172.026L151.993 178.154L158.121 179.883L159.85 173.755L153.722 172.026Z" fill="white"/>
<path d="M168.334 172.34L168.02 179.253L174.933 179.568L175.247 172.654L168.334 172.34Z" fill="white"/>
<path d="M183.418 173.205L190.096 172.026L191.274 178.704L184.596 179.883L183.418 173.205Z" fill="white"/>
<path d="M199.76 172.34L199.445 179.253L206.359 179.568L206.673 172.654L199.76 172.34Z" fill="white"/>
<path d="M230.555 172.812L237.626 172.026L238.411 179.097L231.34 179.883L230.555 172.812Z" fill="white"/>
<path d="M128.812 181.846L134.312 180.275L135.883 185.774L130.384 187.345L128.812 181.846Z" fill="white"/>
<path d="M136.281 181.217L142.802 179.881L144.138 186.402L137.617 187.738L136.281 181.217Z" fill="white"/>
<path d="M152.619 180.196L152.305 187.109L159.218 187.424L159.533 180.51L152.619 180.196Z" fill="white"/>
<path d="M160.474 180.196L160.16 187.109L167.074 187.424L167.388 180.51L160.474 180.196Z" fill="white"/>
<path d="M168.334 180.196L168.02 187.109L174.933 187.424L175.247 180.51L168.334 180.196Z" fill="white"/>
<path d="M199.76 180.196L199.445 187.109L206.359 187.424L206.673 180.51L199.76 180.196Z" fill="white"/>
<path d="M120.566 188.917L127.244 187.738L128.423 194.416L121.745 195.595L120.566 188.917Z" fill="white"/>
<path d="M144.133 188.681L151.047 187.738L151.989 194.652L145.076 195.595L144.133 188.681Z" fill="white"/>
<path d="M152.619 188.052L152.305 194.966L159.218 195.28L159.533 188.367L152.619 188.052Z" fill="white"/>
<path d="M160.474 188.052L160.16 194.966L167.074 195.28L167.388 188.367L160.474 188.052Z" fill="white"/>
<path d="M168.334 188.052L168.02 194.966L174.933 195.28L175.247 188.367L168.334 188.052Z" fill="white"/>
<path d="M176.193 188.052L175.879 194.966L182.793 195.28L183.107 188.367L176.193 188.052Z" fill="white"/>
<path d="M184.045 188.052L183.73 194.966L190.644 195.28L190.958 188.367L184.045 188.052Z" fill="white"/>
<path d="M191.904 188.052L191.59 194.966L198.504 195.28L198.818 188.367L191.904 188.052Z" fill="white"/>
<path d="M199.76 188.052L199.445 194.966L206.359 195.28L206.673 188.367L199.76 188.052Z" fill="white"/>
<path d="M230.555 188.917L237.233 187.739L238.411 194.417L231.733 195.595L230.555 188.917Z" fill="white"/>
<path d="M112.711 195.987L120.175 195.594L120.567 203.058L113.104 203.45L112.711 195.987Z" fill="white"/>
<path d="M145.154 195.594L144.133 202.429L150.968 203.45L151.989 196.615L145.154 195.594Z" fill="white"/>
<path d="M151.993 196.93L158.514 195.594L159.85 202.115L153.329 203.451L151.993 196.93Z" fill="white"/>
<path d="M168.724 195.594L167.703 202.429L174.538 203.45L175.56 196.615L168.724 195.594Z" fill="white"/>
<path d="M175.559 196.93L182.079 195.594L183.415 202.115L176.894 203.45L175.559 196.93Z" fill="white"/>
<path d="M199.76 195.909L199.445 202.823L206.359 203.137L206.673 196.224L199.76 195.909Z" fill="white"/>
<path d="M215.235 197.56L220.735 195.989L222.306 201.488L216.807 203.059L215.235 197.56Z" fill="white"/>
<path d="M224.428 195.594L222.699 201.722L228.827 203.45L230.556 197.322L224.428 195.594Z" fill="white"/>
<path d="M105.246 205.415L110.746 203.844L112.317 209.344L106.817 210.915L105.246 205.415Z" fill="white"/>
<path d="M113.338 203.766L113.023 210.679L119.937 210.994L120.251 204.08L113.338 203.766Z" fill="white"/>
<path d="M128.421 204.63L135.099 203.452L136.277 210.13L129.599 211.308L128.421 204.63Z" fill="white"/>
<path d="M191.277 204.394L198.191 203.451L199.134 210.365L192.22 211.308L191.277 204.394Z" fill="white"/>
<path d="M199.76 203.766L199.445 210.679L206.359 210.994L206.673 204.08L199.76 203.766Z" fill="white"/>
<path d="M208.165 203.844L207.379 210.129L213.664 210.914L214.45 204.629L208.165 203.844Z" fill="white"/>
<path d="M223.721 203.451L222.699 210.286L229.534 211.308L230.556 204.473L223.721 203.451Z" fill="white"/>
<path d="M231.735 203.844L230.949 210.129L237.234 210.915L238.02 204.63L231.735 203.844Z" fill="white"/>
<path d="M112.711 212.094L119.782 211.308L120.567 218.379L113.497 219.165L112.711 212.094Z" fill="white"/>
<path d="M144.133 211.701L151.596 211.308L151.989 218.772L144.526 219.165L144.133 211.701Z" fill="white"/>
<path d="M167.703 211.701L175.167 211.308L175.56 218.772L168.096 219.165L167.703 211.701Z" fill="white"/>
<path d="M192.299 211.308L191.277 218.143L198.112 219.165L199.134 212.33L192.299 211.308Z" fill="white"/>
<path d="M199.129 212.644L205.65 211.308L206.985 217.829L200.465 219.165L199.129 212.644Z" fill="white"/>
<path d="M104.855 220.343L111.533 219.164L112.712 225.842L106.034 227.021L104.855 220.343Z" fill="white"/>
<path d="M120.961 221.128L126.46 219.556L128.032 225.056L122.532 226.627L120.961 221.128Z" fill="white"/>
<path d="M129.049 219.478L128.734 226.392L135.648 226.706L135.962 219.793L129.049 219.478Z" fill="white"/>
<path d="M136.908 219.478L136.594 226.392L143.507 226.706L143.822 219.793L136.908 219.478Z" fill="white"/>
<path d="M144.133 220.5L150.654 219.164L151.989 225.685L145.468 227.021L144.133 220.5Z" fill="white"/>
<path d="M160.242 221.127L165.742 219.556L167.313 225.056L161.813 226.627L160.242 221.127Z" fill="white"/>
<path d="M168.334 219.478L168.02 226.392L174.933 226.706L175.247 219.793L168.334 219.478Z" fill="white"/>
<path d="M176.739 219.556L175.953 225.842L182.238 226.627L183.024 220.342L176.739 219.556Z" fill="white"/>
<path d="M206.988 220.343L213.666 219.164L214.845 225.842L208.167 227.021L206.988 220.343Z" fill="white"/>
<path d="M230.555 220.343L237.233 219.164L238.411 225.842L231.733 227.021L230.555 220.343Z" fill="white"/>
<path d="M78.2193 30.6135H60.7759C52.2748 30.6135 45.0726 36.2302 42.7699 43.907C42.5318 44.7011 42.3459 45.5172 42.2167 46.3515C42.0742 47.2721 42 48.2148 42 49.1744V67.0319C42 77.2715 50.4253 85.5983 60.7759 85.5983L69.4976 85.6L78.2193 85.5978C88.5694 85.5978 96.9952 77.2709 96.9952 67.0314V49.1744C96.9952 38.9398 88.57 30.6135 78.2193 30.6135ZM88.746 67.0319C88.746 72.7206 84.0241 77.349 78.2171 77.349L69.4976 77.3507L60.7781 77.3485C54.9712 77.3485 50.2493 72.7201 50.2493 67.0319V49.1744C50.2493 47.3975 50.7101 45.7246 51.5213 44.2628C52.3023 42.8566 53.4071 41.6472 54.7374 40.7316C56.4478 39.5541 58.5305 38.8628 60.7754 38.8628H78.2193C84.0241 38.8628 88.746 43.4885 88.746 49.1744V67.0319Z" fill="white"/>
<path d="M219.637 30.6135H202.194C193.693 30.6135 186.491 36.2302 184.188 43.907C183.95 44.7011 183.764 45.5172 183.635 46.3515C183.492 47.2721 183.418 48.2148 183.418 49.1744V67.0319C183.418 77.2715 191.843 85.5983 202.194 85.5983L210.916 85.6L219.637 85.5978C229.987 85.5978 238.413 77.2709 238.413 67.0314V49.1744C238.413 38.9398 229.988 30.6135 219.637 30.6135ZM230.164 67.0319C230.164 72.7206 225.442 77.349 219.635 77.349L210.916 77.3507L202.196 77.3485C196.389 77.3485 191.667 72.7201 191.667 67.0319V49.1744C191.667 47.3975 192.128 45.7246 192.939 44.2628C193.72 42.8566 194.825 41.6472 196.155 40.7316C197.866 39.5541 199.948 38.8628 202.193 38.8628H219.637C225.442 38.8628 230.164 43.4885 230.164 49.1744V67.0319Z" fill="white"/>
<path d="M78.2193 172.03H60.7759C52.2748 172.03 45.0726 177.647 42.7699 185.323C42.5318 186.118 42.3459 186.934 42.2167 187.768C42.0742 188.689 42 189.631 42 190.591V208.448C42 218.688 50.4253 227.015 60.7759 227.015L69.4976 227.016L78.2193 227.014C88.5694 227.014 96.9952 218.687 96.9952 208.448V190.591C96.9952 180.356 88.57 172.03 78.2193 172.03ZM88.746 208.448C88.746 214.137 84.0241 218.766 78.2171 218.766L69.4976 218.767L60.7781 218.765C54.9712 218.765 50.2493 214.137 50.2493 208.448V190.591C50.2493 188.814 50.7101 187.141 51.5213 185.679C52.3023 184.273 53.4071 183.064 54.7374 182.148C56.4478 180.971 58.5305 180.279 60.7754 180.279H78.2193C84.0241 180.279 88.746 184.905 88.746 190.591V208.448Z" fill="white"/>
<path d="M81.2842 46.3215H57.7148V69.8909H81.2842V46.3215Z" fill="white"/>
<path d="M222.698 46.3215H199.129V69.8909H222.698V46.3215Z" fill="white"/>
<path d="M81.2842 187.738H57.7148V211.308H81.2842V187.738Z" fill="white"/>
</mask>
<g mask="url(#mask0_1529_40312)">
<path d="M238.412 30.6089H42V227.02H238.412V30.6089Z" fill="url(#paint0_linear_1529_40312)"/>
</g>
</g>
<rect x="18.406" y="2.78884" width="243.187" height="252.067" rx="23.9841" stroke="white" stroke-width="5.57769"/>
</g>
</g>
<defs>
<filter id="filter0_ddddddd_1529_40312" x="-24.8211" y="0" width="329.641" height="342.704" filterUnits="userSpaceOnUse" color-interpolation-filters="sRGB">
<feFlood flood-opacity="0" result="BackgroundImageFix"/>
<feColorMatrix in="SourceAlpha" type="matrix" values="0 0 0 0 0 0 0 0 0 0 0 0 0 0 0 0 0 0 127 0" result="hardAlpha"/>
<feMorphology radius="4.18327" operator="erode" in="SourceAlpha" result="effect1_dropShadow_1529_40312"/>
<feOffset dy="44.6215"/>
<feGaussianBlur stdDeviation="22.3108"/>
<feComposite in2="hardAlpha" operator="out"/>
<feColorMatrix type="matrix" values="0 0 0 0 0 0 0 0 0 0 0 0 0 0 0 0 0 0 0.02 0"/>
<feBlend mode="normal" in2="BackgroundImageFix" result="effect1_dropShadow_1529_40312"/>
<feColorMatrix in="SourceAlpha" type="matrix" values="0 0 0 0 0 0 0 0 0 0 0 0 0 0 0 0 0 0 127 0" result="hardAlpha"/>
<feMorphology radius="3.58566" operator="erode" in="SourceAlpha" result="effect2_dropShadow_1529_40312"/>
<feOffset dy="22.5816"/>
<feGaussianBlur stdDeviation="11.2908"/>
<feComposite in2="hardAlpha" operator="out"/>
<feColorMatrix type="matrix" values="0 0 0 0 0 0 0 0 0 0 0 0 0 0 0 0 0 0 0.03 0"/>
<feBlend mode="normal" in2="effect1_dropShadow_1529_40312" result="effect2_dropShadow_1529_40312"/>
<feColorMatrix in="SourceAlpha" type="matrix" values="0 0 0 0 0 0 0 0 0 0 0 0 0 0 0 0 0 0 127 0" result="hardAlpha"/>
<feMorphology radius="2.98805" operator="erode" in="SourceAlpha" result="effect3_dropShadow_1529_40312"/>
<feOffset dy="12.3288"/>
<feGaussianBlur stdDeviation="6.16441"/>
<feComposite in2="hardAlpha" operator="out"/>
<feColorMatrix type="matrix" values="0 0 0 0 0 0 0 0 0 0 0 0 0 0 0 0 0 0 0.04 0"/>
<feBlend mode="normal" in2="effect2_dropShadow_1529_40312" result="effect3_dropShadow_1529_40312"/>
<feColorMatrix in="SourceAlpha" type="matrix" values="0 0 0 0 0 0 0 0 0 0 0 0 0 0 0 0 0 0 127 0" result="hardAlpha"/>
<feMorphology radius="2.39044" operator="erode" in="SourceAlpha" result="effect4_dropShadow_1529_40312"/>
<feOffset dy="7.08371"/>
<feGaussianBlur stdDeviation="3.54186"/>
<feComposite in2="hardAlpha" operator="out"/>
<feColorMatrix type="matrix" values="0 0 0 0 0 0 0 0 0 0 0 0 0 0 0 0 0 0 0.04 0"/>
<feBlend mode="normal" in2="effect3_dropShadow_1529_40312" result="effect4_dropShadow_1529_40312"/>
<feColorMatrix in="SourceAlpha" type="matrix" values="0 0 0 0 0 0 0 0 0 0 0 0 0 0 0 0 0 0 127 0" result="hardAlpha"/>
<feMorphology radius="1.79283" operator="erode" in="SourceAlpha" result="effect5_dropShadow_1529_40312"/>
<feOffset dy="4.05771"/>
<feGaussianBlur stdDeviation="2.02886"/>
<feComposite in2="hardAlpha" operator="out"/>
<feColorMatrix type="matrix" values="0 0 0 0 0 0 0 0 0 0 0 0 0 0 0 0 0 0 0.04 0"/>
<feBlend mode="normal" in2="effect4_dropShadow_1529_40312" result="effect5_dropShadow_1529_40312"/>
<feColorMatrix in="SourceAlpha" type="matrix" values="0 0 0 0 0 0 0 0 0 0 0 0 0 0 0 0 0 0 127 0" result="hardAlpha"/>
<feMorphology radius="1.19522" operator="erode" in="SourceAlpha" result="effect6_dropShadow_1529_40312"/>
<feOffset dy="2.14144"/>
<feGaussianBlur stdDeviation="1.07072"/>
<feComposite in2="hardAlpha" operator="out"/>
<feColorMatrix type="matrix" values="0 0 0 0 0 0 0 0 0 0 0 0 0 0 0 0 0 0 0.04 0"/>
<feBlend mode="normal" in2="effect5_dropShadow_1529_40312" result="effect6_dropShadow_1529_40312"/>
<feColorMatrix in="SourceAlpha" type="matrix" values="0 0 0 0 0 0 0 0 0 0 0 0 0 0 0 0 0 0 127 0" result="hardAlpha"/>
<feMorphology radius="0.597609" operator="erode" in="SourceAlpha" result="effect7_dropShadow_1529_40312"/>
<feOffset dy="0.874169"/>
<feGaussianBlur stdDeviation="0.437084"/>
<feComposite in2="hardAlpha" operator="out"/>
<feColorMatrix type="matrix" values="0 0 0 0 0 0 0 0 0 0 0 0 0 0 0 0 0 0 0.04 0"/>
<feBlend mode="normal" in2="effect6_dropShadow_1529_40312" result="effect7_dropShadow_1529_40312"/>
<feBlend mode="normal" in="SourceGraphic" in2="effect7_dropShadow_1529_40312" result="shape"/>
</filter>
<linearGradient id="paint0_linear_1529_40312" x1="42" y1="30.6089" x2="42" y2="227.02" gradientUnits="userSpaceOnUse">
<stop offset="0.05" stop-color="#1ECE83"/>
<stop offset="0.95" stop-color="#108E58"/>
</linearGradient>
<clipPath id="clip0_1529_40312">
<rect x="15.6172" width="248.765" height="257.645" rx="26.7729" fill="white"/>
</clipPath>
<clipPath id="clip1_1529_40312">
<rect x="14" y="2.82227" width="252" height="252" rx="5.21379" fill="white"/>
</clipPath>
</defs>
</svg>
