<svg width="197" height="197" viewBox="0 0 197 197" fill="none" xmlns="http://www.w3.org/2000/svg">
<mask id="mask0_1529_40315" style="mask-type:luminance" maskUnits="userSpaceOnUse" x="0" y="0" width="197" height="197">
<path d="M63.2461 1.95899L68.7456 0.387695L70.3169 5.88722L64.8174 7.45851L63.2461 1.95899Z" fill="white"/>
<path d="M71.3377 0.309326L71.0234 7.22301L77.9371 7.53727L78.2514 0.623585L71.3377 0.309326Z" fill="white"/>
<path d="M79.1971 0.309326L78.8828 7.22301L85.7965 7.53727L86.1108 0.623585L79.1971 0.309326Z" fill="white"/>
<path d="M87.0486 0.309326L86.7344 7.22301L93.6481 7.53727L93.9623 0.623585L87.0486 0.309326Z" fill="white"/>
<path d="M94.908 0.309326L94.5938 7.22301L101.507 7.53727L101.822 0.623585L94.908 0.309326Z" fill="white"/>
<path d="M102.763 0.309326L102.449 7.22301L109.363 7.53727L109.677 0.623585L102.763 0.309326Z" fill="white"/>
<path d="M111.168 0.387695L110.383 6.67287L116.668 7.45851L117.454 1.17334L111.168 0.387695Z" fill="white"/>
<path d="M71.3377 8.16626L71.0234 15.0799L77.9371 15.3942L78.2514 8.48052L71.3377 8.16626Z" fill="white"/>
<path d="M94.908 8.16626L94.5938 15.0799L101.507 15.3942L101.822 8.48052L94.908 8.16626Z" fill="white"/>
<path d="M63.2461 17.6729L68.7456 16.1016L70.3169 21.6011L64.8174 23.1724L63.2461 17.6729Z" fill="white"/>
<path d="M70.7109 17.0434L77.2318 15.7078L78.5674 22.2286L72.0465 23.5642L70.7109 17.0434Z" fill="white"/>
<path d="M86.4209 16.6503L93.3346 15.7075L94.2774 22.6212L87.3637 23.564L86.4209 16.6503Z" fill="white"/>
<path d="M94.908 16.0225L94.5938 22.9361L101.507 23.2504L101.822 16.3367L94.908 16.0225Z" fill="white"/>
<path d="M103.861 15.7078L102.133 21.8358L108.261 23.5642L109.989 17.4362L103.861 15.7078Z" fill="white"/>
<path d="M125.703 16.8862L132.381 15.7078L133.56 22.3858L126.882 23.5642L125.703 16.8862Z" fill="white"/>
<path d="M78.9609 25.5291L84.4605 23.9578L86.0318 29.4573L80.5322 31.0286L78.9609 25.5291Z" fill="white"/>
<path d="M87.0486 23.8792L86.7344 30.7928L93.6481 31.1071L93.9623 24.1934L87.0486 23.8792Z" fill="white"/>
<path d="M103.154 23.5649L102.133 30.4001L108.968 31.4214L109.989 24.5863L103.154 23.5649Z" fill="white"/>
<path d="M111.722 23.5647L109.993 29.6927L116.121 31.4212L117.85 25.2931L111.722 23.5647Z" fill="white"/>
<path d="M70.7109 31.8149L78.1746 31.4221L78.5674 38.8858L71.1038 39.2786L70.7109 31.8149Z" fill="white"/>
<path d="M87.0486 31.7361L86.7344 38.6498L93.6481 38.964L93.9623 32.0503L87.0486 31.7361Z" fill="white"/>
<path d="M110.619 31.7361L110.305 38.6498L117.218 38.964L117.533 32.0503L110.619 31.7361Z" fill="white"/>
<path d="M62.8555 40.2206L69.7692 39.2778L70.7119 46.1915L63.7982 47.1343L62.8555 40.2206Z" fill="white"/>
<path d="M71.3377 39.5923L71.0234 46.506L77.9371 46.8202L78.2514 39.9065L71.3377 39.5923Z" fill="white"/>
<path d="M79.1971 39.5923L78.8828 46.506L85.7965 46.8202L86.1108 39.9065L79.1971 39.5923Z" fill="white"/>
<path d="M87.0486 39.5923L86.7344 46.506L93.6481 46.8202L93.9623 39.9065L87.0486 39.5923Z" fill="white"/>
<path d="M96.0097 39.2778L94.2812 45.4059L100.409 47.1343L102.138 41.0063L96.0097 39.2778Z" fill="white"/>
<path d="M110.619 39.5923L110.305 46.506L117.218 46.8202L117.533 39.9065L110.619 39.5923Z" fill="white"/>
<path d="M125.703 39.6707L133.167 39.2778L133.56 46.7415L126.096 47.1343L125.703 39.6707Z" fill="white"/>
<path d="M62.8555 47.9207L69.9263 47.135L70.7119 54.2058L63.6411 54.9915L62.8555 47.9207Z" fill="white"/>
<path d="M78.5664 47.9207L85.6372 47.135L86.4229 54.2058L79.3521 54.9915L78.5664 47.9207Z" fill="white"/>
<path d="M94.908 47.4485L94.5938 54.3622L101.507 54.6764L101.822 47.7627L94.908 47.4485Z" fill="white"/>
<path d="M109.993 47.9207L117.064 47.135L117.85 54.2058L110.779 54.9915L109.993 47.9207Z" fill="white"/>
<path d="M126.334 47.4485L126.02 54.3622L132.933 54.6764L133.247 47.7627L126.334 47.4485Z" fill="white"/>
<path d="M70.7109 55.3828L78.1746 54.99L78.5674 62.4536L71.1038 62.8465L70.7109 55.3828Z" fill="white"/>
<path d="M94.2812 55.7756L101.352 54.99L102.138 62.0608L95.0669 62.8465L94.2812 55.7756Z" fill="white"/>
<path d="M118.242 56.9548L123.742 55.3835L125.313 60.8831L119.813 62.4544L118.242 56.9548Z" fill="white"/>
<path d="M126.334 55.3044L126.02 62.2181L132.933 62.5324L133.247 55.6187L126.334 55.3044Z" fill="white"/>
<path d="M0 63.24L7.46364 62.8472L7.85646 70.3108L0.392823 70.7036L0 63.24Z" fill="white"/>
<path d="M15.7148 64.0256L22.3928 62.8472L23.5713 69.5252L16.8933 70.7036L15.7148 64.0256Z" fill="white"/>
<path d="M47.5352 64.8113L53.0347 63.24L54.606 68.7395L49.1064 70.3108L47.5352 64.8113Z" fill="white"/>
<path d="M56.1724 63.24L55.3867 69.5252L61.6719 70.3108L62.4575 64.0256L56.1724 63.24Z" fill="white"/>
<path d="M70.7109 63.6328L77.7818 62.8472L78.5674 69.918L71.4966 70.7036L70.7109 63.6328Z" fill="white"/>
<path d="M86.4209 63.24L93.8845 62.8472L94.2774 70.3108L86.8137 70.7036L86.4209 63.24Z" fill="white"/>
<path d="M109.993 64.0256L116.671 62.8472L117.85 69.5252L111.172 70.7036L109.993 64.0256Z" fill="white"/>
<path d="M126.334 63.1614L126.02 70.0751L132.933 70.3893L133.247 63.4756L126.334 63.1614Z" fill="white"/>
<path d="M149.277 63.24L156.741 62.8472L157.134 70.3108L149.67 70.7036L149.277 63.24Z" fill="white"/>
<path d="M172.844 64.0256L179.522 62.8472L180.7 69.5252L174.022 70.7036L172.844 64.0256Z" fill="white"/>
<path d="M188.555 63.24L196.018 62.8472L196.411 70.3108L188.948 70.7036L188.555 63.24Z" fill="white"/>
<path d="M0.630665 71.0183L0.316406 77.932L7.23009 78.2463L7.54435 71.3326L0.630665 71.0183Z" fill="white"/>
<path d="M9.5878 70.7029L7.85938 76.8309L13.9874 78.5593L15.7158 72.4313L9.5878 70.7029Z" fill="white"/>
<path d="M23.5703 71.0957L31.034 70.7029L31.4268 78.1665L23.9631 78.5593L23.5703 71.0957Z" fill="white"/>
<path d="M87.0486 71.0183L86.7344 77.932L93.6481 78.2463L93.9623 71.3326L87.0486 71.0183Z" fill="white"/>
<path d="M102.133 71.8814L108.811 70.7029L109.989 77.3809L103.311 78.5593L102.133 71.8814Z" fill="white"/>
<path d="M117.848 71.6457L124.761 70.7029L125.704 77.6166L118.79 78.5593L117.848 71.6457Z" fill="white"/>
<path d="M126.334 71.0183L126.02 77.932L132.933 78.2463L133.247 71.3326L126.334 71.0183Z" fill="white"/>
<path d="M141.809 72.668L147.308 71.0967L148.879 76.5962L143.38 78.1675L141.809 72.668Z" fill="white"/>
<path d="M149.904 71.0183L149.59 77.932L156.504 78.2463L156.818 71.3326L149.904 71.0183Z" fill="white"/>
<path d="M164.988 71.0959L172.452 70.7031L172.845 78.1668L165.381 78.5596L164.988 71.0959Z" fill="white"/>
<path d="M181.094 72.668L186.593 71.0967L188.165 76.5962L182.665 78.1675L181.094 72.668Z" fill="white"/>
<path d="M189.185 71.0183L188.871 77.932L195.785 78.2463L196.099 71.3326L189.185 71.0183Z" fill="white"/>
<path d="M0.630665 78.8745L0.316406 85.7882L7.23009 86.1025L7.54435 79.1888L0.630665 78.8745Z" fill="white"/>
<path d="M8.48613 78.8745L8.17188 85.7882L15.0856 86.1025L15.3998 79.1888L8.48613 78.8745Z" fill="white"/>
<path d="M24.201 78.8745L23.8867 85.7882L30.8004 86.1025L31.1147 79.1888L24.201 78.8745Z" fill="white"/>
<path d="M32.0564 78.8745L31.7422 85.7882L38.6559 86.1025L38.9701 79.1888L32.0564 78.8745Z" fill="white"/>
<path d="M39.9119 78.8745L39.5977 85.7882L46.5113 86.1025L46.8256 79.1888L39.9119 78.8745Z" fill="white"/>
<path d="M48.3208 78.9531L47.5352 85.2383L53.8203 86.0239L54.606 79.7388L48.3208 78.9531Z" fill="white"/>
<path d="M71.1016 80.5244L76.6011 78.9531L78.1724 84.4526L72.6729 86.0239L71.1016 80.5244Z" fill="white"/>
<path d="M79.1971 78.8745L78.8828 85.7882L85.7965 86.1025L86.1108 79.1888L79.1971 78.8745Z" fill="white"/>
<path d="M87.0486 78.8745L86.7344 85.7882L93.6481 86.1025L93.9623 79.1888L87.0486 78.8745Z" fill="white"/>
<path d="M95.4575 78.9531L94.6719 85.2383L100.957 86.0239L101.743 79.7388L95.4575 78.9531Z" fill="white"/>
<path d="M118.869 78.5601L117.848 85.3952L124.683 86.4165L125.704 79.5814L118.869 78.5601Z" fill="white"/>
<path d="M126.334 78.8745L126.02 85.7882L132.933 86.1025L133.247 79.1888L126.334 78.8745Z" fill="white"/>
<path d="M149.904 78.8745L149.59 85.7882L156.504 86.1025L156.818 79.1888L149.904 78.8745Z" fill="white"/>
<path d="M165.615 78.8745L165.301 85.7882L172.214 86.1025L172.529 79.1888L165.615 78.8745Z" fill="white"/>
<path d="M174.021 78.9529L173.235 85.2381L179.521 86.0237L180.306 79.7385L174.021 78.9529Z" fill="white"/>
<path d="M188.555 79.3457L195.626 78.5601L196.411 85.6309L189.34 86.4165L188.555 79.3457Z" fill="white"/>
<path d="M1.02134 86.4172L0 93.2524L6.83512 94.2737L7.85646 87.4386L1.02134 86.4172Z" fill="white"/>
<path d="M8.48613 86.7314L8.17188 93.6451L15.0856 93.9594L15.3998 87.0457L8.48613 86.7314Z" fill="white"/>
<path d="M24.201 86.731L23.8867 93.6446L30.8004 93.9589L31.1147 87.0452L24.201 86.731Z" fill="white"/>
<path d="M39.9119 86.7314L39.5977 93.6451L46.5113 93.9594L46.8256 87.0457L39.9119 86.7314Z" fill="white"/>
<path d="M55.3867 88.3806L60.8862 86.8093L62.4575 92.3089L56.958 93.8801L55.3867 88.3806Z" fill="white"/>
<path d="M64.0317 86.8093L63.2461 93.0945L69.5313 93.8801L70.3169 87.595L64.0317 86.8093Z" fill="white"/>
<path d="M78.5664 87.2029L85.6372 86.4172L86.4229 93.4881L79.3521 94.2737L78.5664 87.2029Z" fill="white"/>
<path d="M109.993 86.8103L117.457 86.4175L117.85 93.8811L110.386 94.2739L109.993 86.8103Z" fill="white"/>
<path d="M126.334 86.7314L126.02 93.6451L132.933 93.9594L133.247 87.0457L126.334 86.7314Z" fill="white"/>
<path d="M134.193 86.7314L133.879 93.6451L140.793 93.9594L141.107 87.0457L134.193 86.7314Z" fill="white"/>
<path d="M142.045 86.7314L141.73 93.6451L148.644 93.9594L148.958 87.0457L142.045 86.7314Z" fill="white"/>
<path d="M149.904 86.7314L149.59 93.6451L156.504 93.9594L156.818 87.0457L149.904 86.7314Z" fill="white"/>
<path d="M157.76 86.7314L157.445 93.6451L164.359 93.9594L164.673 87.0457L157.76 86.7314Z" fill="white"/>
<path d="M164.988 87.7528L171.509 86.4172L172.845 92.9381L166.324 94.2737L164.988 87.7528Z" fill="white"/>
<path d="M7.85938 95.0588L14.9302 94.2732L15.7158 101.344L8.64502 102.13L7.85938 95.0588Z" fill="white"/>
<path d="M24.5917 94.2732L23.5703 101.108L30.4054 102.13L31.4268 95.2945L24.5917 94.2732Z" fill="white"/>
<path d="M32.0564 94.5869L31.7422 101.501L38.6559 101.815L38.9701 94.9012L32.0564 94.5869Z" fill="white"/>
<path d="M39.9119 94.5869L39.5977 101.501L46.5113 101.815L46.8256 94.9012L39.9119 94.5869Z" fill="white"/>
<path d="M48.3208 94.6655L47.5352 100.951L53.8203 101.736L54.606 95.4512L48.3208 94.6655Z" fill="white"/>
<path d="M70.7109 95.4517L77.3889 94.2732L78.5674 100.951L71.8894 102.13L70.7109 95.4517Z" fill="white"/>
<path d="M102.133 95.216L109.047 94.2732L109.989 101.187L103.076 102.13L102.133 95.216Z" fill="white"/>
<path d="M109.993 95.6088L116.514 94.2732L117.85 100.794L111.329 102.13L109.993 95.6088Z" fill="white"/>
<path d="M126.334 94.5869L126.02 101.501L132.933 101.815L133.247 94.9012L126.334 94.5869Z" fill="white"/>
<path d="M142.045 94.5869L141.73 101.501L148.644 101.815L148.958 94.9012L142.045 94.5869Z" fill="white"/>
<path d="M149.904 94.5869L149.59 101.501L156.504 101.815L156.818 94.9012L149.904 94.5869Z" fill="white"/>
<path d="M188.555 94.666L196.018 94.2732L196.411 101.737L188.948 102.13L188.555 94.666Z" fill="white"/>
<path d="M32.4481 102.129L31.4268 108.965L38.2619 109.986L39.2832 103.151L32.4481 102.129Z" fill="white"/>
<path d="M39.2852 103.465L45.806 102.129L47.1416 108.65L40.6208 109.986L39.2852 103.465Z" fill="white"/>
<path d="M78.5664 103.308L85.2444 102.129L86.4229 108.807L79.7449 109.986L78.5664 103.308Z" fill="white"/>
<path d="M102.133 102.915L109.204 102.129L109.989 109.2L102.918 109.986L102.133 102.915Z" fill="white"/>
<path d="M117.848 103.072L124.761 102.129L125.704 109.043L118.79 109.986L117.848 103.072Z" fill="white"/>
<path d="M125.703 103.465L132.224 102.129L133.56 108.65L127.039 109.986L125.703 103.465Z" fill="white"/>
<path d="M142.439 102.129L141.418 108.965L148.253 109.986L149.274 103.151L142.439 102.129Z" fill="white"/>
<path d="M149.277 103.465L155.798 102.129L157.134 108.65L150.613 109.986L149.277 103.465Z" fill="white"/>
<path d="M181.094 104.094L186.593 102.522L188.165 108.022L182.665 109.593L181.094 104.094Z" fill="white"/>
<path d="M189.185 102.444L188.871 109.358L195.785 109.672L196.099 102.758L189.185 102.444Z" fill="white"/>
<path d="M0.394531 111.951L5.89406 110.379L7.46535 115.879L1.96582 117.45L0.394531 111.951Z" fill="white"/>
<path d="M8.48613 110.3L8.17188 117.213L15.0856 117.528L15.3998 110.614L8.48613 110.3Z" fill="white"/>
<path d="M17.4433 109.985L15.7148 116.113L21.8429 117.842L23.5713 111.714L17.4433 109.985Z" fill="white"/>
<path d="M47.5352 111.951L53.0347 110.379L54.606 115.879L49.1064 117.45L47.5352 111.951Z" fill="white"/>
<path d="M55.6268 110.3L55.3125 117.213L62.2262 117.528L62.5404 110.614L55.6268 110.3Z" fill="white"/>
<path d="M64.5839 109.985L62.8555 116.113L68.9835 117.842L70.7119 111.714L64.5839 109.985Z" fill="white"/>
<path d="M86.4209 111.164L93.0989 109.985L94.2774 116.663L87.5994 117.842L86.4209 111.164Z" fill="white"/>
<path d="M118.474 110.3L118.16 117.213L125.074 117.528L125.388 110.614L118.474 110.3Z" fill="white"/>
<path d="M164.988 110.928L171.902 109.985L172.845 116.899L165.931 117.842L164.988 110.928Z" fill="white"/>
<path d="M174.021 110.38L173.235 116.665L179.521 117.451L180.306 111.166L174.021 110.38Z" fill="white"/>
<path d="M188.555 110.771L195.626 109.985L196.411 117.056L189.34 117.842L188.555 110.771Z" fill="white"/>
<path d="M16.3416 118.157L16.0273 125.07L22.941 125.385L23.2553 118.471L16.3416 118.157Z" fill="white"/>
<path d="M56.0174 117.843L54.9961 124.678L61.8312 125.699L62.8526 118.864L56.0174 117.843Z" fill="white"/>
<path d="M63.4822 118.157L63.168 125.07L70.0817 125.385L70.3959 118.471L63.4822 118.157Z" fill="white"/>
<path d="M71.8872 118.235L71.1016 124.521L77.3867 125.306L78.1724 119.021L71.8872 118.235Z" fill="white"/>
<path d="M102.133 118.235L109.596 117.843L109.989 125.306L102.526 125.699L102.133 118.235Z" fill="white"/>
<path d="M118.474 118.157L118.16 125.07L125.074 125.385L125.388 118.471L118.474 118.157Z" fill="white"/>
<path d="M126.334 118.157L126.02 125.07L132.933 125.385L133.247 118.471L126.334 118.157Z" fill="white"/>
<path d="M134.193 118.157L133.879 125.07L140.793 125.385L141.107 118.471L134.193 118.157Z" fill="white"/>
<path d="M142.045 118.157L141.73 125.07L148.644 125.385L148.958 118.471L142.045 118.157Z" fill="white"/>
<path d="M149.904 118.157L149.59 125.07L156.504 125.385L156.818 118.471L149.904 118.157Z" fill="white"/>
<path d="M157.76 118.157L157.445 125.07L164.359 125.385L164.673 118.471L157.76 118.157Z" fill="white"/>
<path d="M164.988 119.178L171.509 117.843L172.845 124.363L166.324 125.699L164.988 119.178Z" fill="white"/>
<path d="M0.394531 127.663L5.89406 126.092L7.46535 131.592L1.96582 133.163L0.394531 127.663Z" fill="white"/>
<path d="M8.48613 126.014L8.17188 132.927L15.0856 133.242L15.3998 126.328L8.48613 126.014Z" fill="white"/>
<path d="M15.7148 127.035L22.2357 125.7L23.5713 132.221L17.0504 133.556L15.7148 127.035Z" fill="white"/>
<path d="M47.1367 126.878L53.8147 125.7L54.9932 132.378L48.3152 133.556L47.1367 126.878Z" fill="white"/>
<path d="M78.9609 127.663L84.4605 126.092L86.0318 131.592L80.5322 133.163L78.9609 127.663Z" fill="white"/>
<path d="M87.0486 126.014L86.7344 132.927L93.6481 133.242L93.9623 126.328L87.0486 126.014Z" fill="white"/>
<path d="M94.908 126.014L94.5938 132.927L101.507 133.242L101.822 126.328L94.908 126.014Z" fill="white"/>
<path d="M102.133 127.035L108.654 125.7L109.989 132.221L103.468 133.556L102.133 127.035Z" fill="white"/>
<path d="M118.869 125.7L117.848 132.535L124.683 133.556L125.704 126.721L118.869 125.7Z" fill="white"/>
<path d="M126.334 126.014L126.02 132.927L132.933 133.242L133.247 126.328L126.334 126.014Z" fill="white"/>
<path d="M134.193 126.014L133.879 132.927L140.793 133.242L141.107 126.328L134.193 126.014Z" fill="white"/>
<path d="M142.045 126.014L141.73 132.927L148.644 133.242L148.958 126.328L142.045 126.014Z" fill="white"/>
<path d="M149.904 126.014L149.59 132.927L156.504 133.242L156.818 126.328L149.904 126.014Z" fill="white"/>
<path d="M157.76 126.014L157.445 132.927L164.359 133.242L164.673 126.328L157.76 126.014Z" fill="white"/>
<path d="M180.699 126.878L187.377 125.7L188.556 132.378L181.878 133.556L180.699 126.878Z" fill="white"/>
<path d="M62.8555 134.498L69.7692 133.555L70.7119 140.469L63.7982 141.412L62.8555 134.498Z" fill="white"/>
<path d="M71.8872 133.948L71.1016 140.233L77.3867 141.018L78.1724 134.733L71.8872 133.948Z" fill="white"/>
<path d="M94.908 133.87L94.5938 140.783L101.507 141.098L101.822 134.184L94.908 133.87Z" fill="white"/>
<path d="M126.334 133.87L126.02 140.783L132.933 141.098L133.247 134.184L126.334 133.87Z" fill="white"/>
<path d="M157.76 133.87L157.445 140.783L164.359 141.098L164.673 134.184L157.76 133.87Z" fill="white"/>
<path d="M188.555 133.948L196.018 133.555L196.411 141.019L188.948 141.412L188.555 133.948Z" fill="white"/>
<path d="M62.8555 142.198L69.9263 141.413L70.7119 148.483L63.6411 149.269L62.8555 142.198Z" fill="white"/>
<path d="M78.5664 142.591L85.2444 141.413L86.4229 148.091L79.7449 149.269L78.5664 142.591Z" fill="white"/>
<path d="M94.908 141.726L94.5938 148.64L101.507 148.954L101.822 142.04L94.908 141.726Z" fill="white"/>
<path d="M102.763 141.726L102.449 148.64L109.363 148.954L109.677 142.04L102.763 141.726Z" fill="white"/>
<path d="M111.722 141.413L109.993 147.541L116.121 149.269L117.85 143.141L111.722 141.413Z" fill="white"/>
<path d="M126.334 141.726L126.02 148.64L132.933 148.954L133.247 142.04L126.334 141.726Z" fill="white"/>
<path d="M141.418 142.591L148.096 141.413L149.274 148.091L142.596 149.269L141.418 142.591Z" fill="white"/>
<path d="M157.76 141.726L157.445 148.64L164.359 148.954L164.673 142.04L157.76 141.726Z" fill="white"/>
<path d="M188.555 142.198L195.626 141.413L196.411 148.483L189.34 149.269L188.555 142.198Z" fill="white"/>
<path d="M86.8125 151.232L92.312 149.661L93.8833 155.161L88.3838 156.732L86.8125 151.232Z" fill="white"/>
<path d="M94.2812 150.603L100.802 149.268L102.138 155.788L95.6168 157.124L94.2812 150.603Z" fill="white"/>
<path d="M110.619 149.582L110.305 156.496L117.218 156.81L117.533 149.896L110.619 149.582Z" fill="white"/>
<path d="M118.474 149.582L118.16 156.496L125.074 156.81L125.388 149.896L118.474 149.582Z" fill="white"/>
<path d="M126.334 149.582L126.02 156.496L132.933 156.81L133.247 149.896L126.334 149.582Z" fill="white"/>
<path d="M157.76 149.582L157.445 156.496L164.359 156.81L164.673 149.896L157.76 149.582Z" fill="white"/>
<path d="M78.5664 158.303L85.2444 157.125L86.4229 163.803L79.7449 164.981L78.5664 158.303Z" fill="white"/>
<path d="M102.133 158.068L109.047 157.125L109.989 164.038L103.076 164.981L102.133 158.068Z" fill="white"/>
<path d="M110.619 157.439L110.305 164.353L117.218 164.667L117.533 157.753L110.619 157.439Z" fill="white"/>
<path d="M118.474 157.439L118.16 164.353L125.074 164.667L125.388 157.753L118.474 157.439Z" fill="white"/>
<path d="M126.334 157.439L126.02 164.353L132.933 164.667L133.247 157.753L126.334 157.439Z" fill="white"/>
<path d="M134.193 157.439L133.879 164.353L140.793 164.667L141.107 157.753L134.193 157.439Z" fill="white"/>
<path d="M142.045 157.439L141.73 164.353L148.644 164.667L148.958 157.753L142.045 157.439Z" fill="white"/>
<path d="M149.904 157.439L149.59 164.353L156.504 164.667L156.818 157.753L149.904 157.439Z" fill="white"/>
<path d="M157.76 157.439L157.445 164.353L164.359 164.667L164.673 157.753L157.76 157.439Z" fill="white"/>
<path d="M188.555 158.303L195.233 157.125L196.411 163.803L189.733 164.981L188.555 158.303Z" fill="white"/>
<path d="M70.7109 165.373L78.1746 164.98L78.5674 172.444L71.1038 172.837L70.7109 165.373Z" fill="white"/>
<path d="M103.154 164.98L102.133 171.816L108.968 172.837L109.989 166.002L103.154 164.98Z" fill="white"/>
<path d="M109.993 166.317L116.514 164.981L117.85 171.502L111.329 172.837L109.993 166.317Z" fill="white"/>
<path d="M126.724 164.98L125.703 171.816L132.538 172.837L133.56 166.002L126.724 164.98Z" fill="white"/>
<path d="M133.559 166.316L140.079 164.98L141.415 171.501L134.894 172.837L133.559 166.316Z" fill="white"/>
<path d="M157.76 165.296L157.445 172.21L164.359 172.524L164.673 165.61L157.76 165.296Z" fill="white"/>
<path d="M173.235 166.946L178.735 165.375L180.306 170.875L174.807 172.446L173.235 166.946Z" fill="white"/>
<path d="M182.428 164.98L180.699 171.109L186.827 172.837L188.556 166.709L182.428 164.98Z" fill="white"/>
<path d="M63.2461 174.802L68.7456 173.23L70.3169 178.73L64.8174 180.301L63.2461 174.802Z" fill="white"/>
<path d="M71.3377 173.152L71.0234 180.066L77.9371 180.38L78.2514 173.466L71.3377 173.152Z" fill="white"/>
<path d="M86.4209 174.017L93.0989 172.838L94.2774 179.516L87.5994 180.695L86.4209 174.017Z" fill="white"/>
<path d="M149.277 173.78L156.191 172.838L157.134 179.751L150.22 180.694L149.277 173.78Z" fill="white"/>
<path d="M157.76 173.152L157.445 180.066L164.359 180.38L164.673 173.466L157.76 173.152Z" fill="white"/>
<path d="M166.165 173.23L165.379 179.515L171.664 180.301L172.45 174.016L166.165 173.23Z" fill="white"/>
<path d="M181.721 172.838L180.699 179.673L187.534 180.694L188.556 173.859L181.721 172.838Z" fill="white"/>
<path d="M189.735 173.23L188.949 179.516L195.234 180.301L196.02 174.016L189.735 173.23Z" fill="white"/>
<path d="M70.7109 181.48L77.7818 180.695L78.5674 187.766L71.4966 188.551L70.7109 181.48Z" fill="white"/>
<path d="M102.133 181.088L109.596 180.695L109.989 188.158L102.526 188.551L102.133 181.088Z" fill="white"/>
<path d="M125.703 181.088L133.167 180.695L133.56 188.158L126.096 188.551L125.703 181.088Z" fill="white"/>
<path d="M150.299 180.695L149.277 187.53L156.112 188.551L157.134 181.716L150.299 180.695Z" fill="white"/>
<path d="M157.129 182.03L163.65 180.695L164.985 187.216L158.465 188.551L157.129 182.03Z" fill="white"/>
<path d="M62.8555 189.729L69.5335 188.551L70.7119 195.229L64.0339 196.407L62.8555 189.729Z" fill="white"/>
<path d="M78.9609 190.514L84.4605 188.943L86.0318 194.442L80.5322 196.014L78.9609 190.514Z" fill="white"/>
<path d="M87.0486 188.865L86.7344 195.778L93.6481 196.093L93.9623 189.179L87.0486 188.865Z" fill="white"/>
<path d="M94.908 188.865L94.5938 195.778L101.507 196.093L101.822 189.179L94.908 188.865Z" fill="white"/>
<path d="M102.133 189.886L108.654 188.551L109.989 195.071L103.468 196.407L102.133 189.886Z" fill="white"/>
<path d="M118.242 190.514L123.742 188.943L125.313 194.442L119.813 196.013L118.242 190.514Z" fill="white"/>
<path d="M126.334 188.865L126.02 195.778L132.933 196.093L133.247 189.179L126.334 188.865Z" fill="white"/>
<path d="M134.739 188.943L133.953 195.228L140.238 196.014L141.024 189.729L134.739 188.943Z" fill="white"/>
<path d="M164.988 189.729L171.666 188.551L172.845 195.229L166.167 196.407L164.988 189.729Z" fill="white"/>
<path d="M188.555 189.729L195.233 188.551L196.411 195.229L189.733 196.407L188.555 189.729Z" fill="white"/>
<path d="M36.2193 0H18.7759C10.2748 0 3.07258 5.61666 0.769933 13.2935C0.531804 14.0876 0.34592 14.9037 0.216681 15.738C0.0742436 16.6586 0 17.6012 0 18.5609V36.4184C0 46.658 8.42527 54.9848 18.7759 54.9848L27.4976 54.9864L36.2193 54.9842C46.5694 54.9842 54.9952 46.6574 54.9952 36.4178V18.5609C54.9952 8.32628 46.57 0 36.2193 0ZM46.746 36.4184C46.746 42.1071 42.0241 46.7355 36.2171 46.7355L27.4976 46.7372L18.7781 46.735C12.9712 46.735 8.24929 42.1066 8.24929 36.4184V18.5609C8.24929 16.784 8.71015 15.111 9.52133 13.6493C10.3023 12.243 11.4071 11.0337 12.7374 10.118C14.4478 8.94058 16.5305 8.24929 18.7754 8.24929H36.2193C42.0241 8.24929 46.746 12.8749 46.746 18.5609V36.4184Z" fill="white"/>
<path d="M177.637 0H160.194C151.693 0 144.491 5.61666 142.188 13.2935C141.95 14.0876 141.764 14.9037 141.635 15.738C141.492 16.6586 141.418 17.6012 141.418 18.5609V36.4184C141.418 46.658 149.843 54.9848 160.194 54.9848L168.916 54.9864L177.637 54.9842C187.987 54.9842 196.413 46.6574 196.413 36.4178V18.5609C196.413 8.32628 187.988 0 177.637 0ZM188.164 36.4184C188.164 42.1071 183.442 46.7355 177.635 46.7355L168.916 46.7372L160.196 46.735C154.389 46.735 149.667 42.1066 149.667 36.4184V18.5609C149.667 16.784 150.128 15.111 150.939 13.6493C151.72 12.243 152.825 11.0337 154.155 10.118C155.866 8.94058 157.948 8.24929 160.193 8.24929H177.637C183.442 8.24929 188.164 12.8749 188.164 18.5609V36.4184Z" fill="white"/>
<path d="M36.2193 141.417H18.7759C10.2748 141.417 3.07258 147.033 0.769933 154.71C0.531804 155.504 0.34592 156.32 0.216681 157.154C0.0742436 158.075 0 159.018 0 159.977V177.835C0 188.074 8.42527 196.401 18.7759 196.401L27.4976 196.403L36.2193 196.401C46.5694 196.401 54.9952 188.074 54.9952 177.834V159.977C54.9952 149.743 46.57 141.417 36.2193 141.417ZM46.746 177.835C46.746 183.524 42.0241 188.152 36.2171 188.152L27.4976 188.154L18.7781 188.151C12.9712 188.151 8.24929 183.523 8.24929 177.835V159.977C8.24929 158.201 8.71015 156.528 9.52133 155.066C10.3023 153.66 11.4071 152.45 12.7374 151.535C14.4478 150.357 16.5305 149.666 18.7754 149.666H36.2193C42.0241 149.666 46.746 154.291 46.746 159.977V177.835Z" fill="white"/>
<path d="M39.2842 15.708H15.7148V39.2774H39.2842V15.708Z" fill="white"/>
<path d="M180.698 15.708H157.129V39.2774H180.698V15.708Z" fill="white"/>
<path d="M39.2842 157.125H15.7148V180.694H39.2842V157.125Z" fill="white"/>
</mask>
<g mask="url(#mask0_1529_40315)">
<path d="M196.412 -0.00463867H0V196.407H196.412V-0.00463867Z" fill="url(#paint0_linear_1529_40315)"/>
</g>
<defs>
<linearGradient id="paint0_linear_1529_40315" x1="0" y1="-0.00463867" x2="0" y2="196.407" gradientUnits="userSpaceOnUse">
<stop offset="0.05" stop-color="#1ECE83"/>
<stop offset="0.95" stop-color="#108E58"/>
</linearGradient>
</defs>
</svg>
