<svg width="1921" height="554" viewBox="0 0 1921 554" fill="none" xmlns="http://www.w3.org/2000/svg">
<path d="M1657.8 39.6546L1920.5 203.515L1813.5 186.655L1734 160.655C1688.4 127.455 1691.38 118.708 1678.5 110.515C1649.2 91.8753 1346.5 16.0149 1336.5 153.015C1338.82 168.973 1340.87 179.948 1342.57 187.282C1348.73 213.872 1350.21 192.586 1342.57 187.282C1340.97 186.165 1338.96 185.757 1336.5 186.655C1253.7 241.855 1315.5 272.515 1285 249.515C1213.5 242.015 1233.83 289.015 1201.5 293.015C1142.3 303.815 1176 377.515 1188.5 406.515C1201.5 414.015 1086.5 370.015 1133.5 392.515C1164.38 407.297 1259.17 555.347 1238 553.014C1188.4 529.414 1118.67 463.155 1106.5 424.655C1052.5 341.855 914.167 344.655 875.001 374.655C890.501 429.655 839.167 558.347 813.001 553.014C875.001 397.154 723.333 351.488 702.5 319.155C699.7 342.355 627.667 365.822 592 374.655C592 411.855 487.833 291.655 470 298.655C435.6 330.655 447.167 455.488 423 442.155C407.8 484.955 375 400.321 360.5 411.155C328.5 460.755 308.333 403.988 289.5 397.155C263.5 403.955 226.5 503.488 224 466.154C144.2 397.155 164 551.014 86.5 530.514C24.5 514.114 34.3333 392.155 17 366.155L0 236.655L65 186.655C93.8 295.855 120 392.488 153.5 402.155C258.7 378.555 353.167 321.682 360.5 266.015C400.5 142.015 413.667 68.6543 442 77.6543C494.8 194.854 564 199.155 592 186.655C606 80.6547 671.5 58.4878 702.5 60.6545C745.3 59.4545 835.666 101.988 834.5 115.655C757.3 128.055 651.333 162.988 660.5 186.655C682.5 264.255 752.667 307.322 773.501 319.155C768.301 256.755 797.667 238.155 813.001 236.655C842.201 236.655 866.501 277.988 875.001 298.655C946.5 298.655 1037.67 304.988 1070 298.655C1129.6 290.655 1134.83 355.822 1144.5 374.655C1162.5 442.255 1107 228.682 1126.5 223.015C1167.7 147.015 1152.17 213.848 1188.5 223.015C1211.5 236.655 1204.67 228.682 1225.5 208.515C1264.9 170.375 1290 187.515 1267.5 144.015C1249.5 109.215 1314.3 78.8482 1321.8 60.0149C1379.8 -40.7851 1600.13 9.15462 1657.8 39.6546Z" fill="url(#paint0_linear_1669_18889)"/>
<defs>
<linearGradient id="paint0_linear_1669_18889" x1="-12.2603" y1="309.955" x2="1890.5" y2="309.955" gradientUnits="userSpaceOnUse">
<stop stop-color="#1ECE83"/>
<stop offset="0.254808" stop-color="#1ECE83" stop-opacity="0.5"/>
<stop offset="0.453249" stop-color="#1ECE83"/>
<stop offset="0.59855" stop-color="#1ECE83"/>
<stop offset="1" stop-color="#1ECE83"/>
</linearGradient>
</defs>
</svg>
