<svg width="102" height="72" viewBox="0 0 102 72" fill="none" xmlns="http://www.w3.org/2000/svg">
<path d="M79.3684 5.70554C82.4973 5.89268 85.3301 6.57071 87.8657 7.73964C90.4612 8.9121 92.6437 10.5386 94.414 12.6191C96.1867 14.64 97.522 17.0535 98.4181 19.8596C99.315 22.6658 99.6581 25.7979 99.4482 29.256C98.9745 37.0664 95.8647 44.39 90.1173 51.2269C84.4329 58.0076 76.375 63.8685 65.9435 68.8094L57.0538 54.186C59.7972 52.9139 62.2141 51.6523 64.3045 50.401C66.4539 49.1533 68.31 47.8582 69.8727 46.5155C71.4944 45.1764 72.8818 43.7934 74.0348 42.3663C75.2505 40.8833 76.3535 39.3037 77.344 37.6277C74.4511 37.4546 71.8493 36.8802 69.5384 35.9042C67.2867 34.9318 65.3481 33.679 63.7228 32.1456C62.1601 30.5562 60.9644 28.7794 60.1355 26.8149C59.3692 24.7945 59.053 22.6812 59.1868 20.4752C59.3205 18.2692 59.8881 16.2387 60.8893 14.3838C61.9532 12.4728 63.355 10.8513 65.0948 9.51919C66.8936 8.19068 68.999 7.17968 71.4111 6.48622C73.8232 5.79275 76.4756 5.53252 79.3684 5.70554ZM24.2873 2.4112C27.4162 2.59833 30.2488 3.27637 32.7849 4.4453C35.3801 5.61775 37.5626 7.24424 39.3325 9.32471C41.106 11.3456 42.4409 13.7592 43.3372 16.5653C44.2337 19.3715 44.577 22.5036 44.3673 25.9616C43.8937 33.7721 40.7834 41.0957 35.0362 47.9325C29.3518 54.7133 21.2938 60.5741 10.8623 65.5151L1.97266 50.8916C4.71607 49.6196 7.13297 48.3579 9.22336 47.1067C11.3728 45.859 13.2289 44.5639 14.7915 43.2211C16.4132 41.882 17.8007 40.499 18.9537 39.072C20.1693 37.589 21.2724 36.0093 22.2628 34.3333C19.37 34.1603 16.7682 33.5858 14.4573 32.6098C12.2055 31.6374 10.267 30.3846 8.64164 28.8513C7.079 27.2618 5.88323 25.4849 5.05433 23.5206C4.28808 21.5001 3.97184 19.3869 4.1056 17.1808C4.23937 14.9749 4.80687 12.9444 5.8081 11.0895C6.87199 9.17844 8.27383 7.55691 10.0136 6.22485C11.8124 4.89634 13.9179 3.88534 16.33 3.19187C18.742 2.4984 21.3945 2.23818 24.2873 2.4112Z" fill="black" fill-opacity="0.12"/>
</svg>
