<svg width="60" height="48" viewBox="0 0 60 48" fill="none" xmlns="http://www.w3.org/2000/svg">
<g clip-path="url(#clip0_2225_25793)">
<rect width="60" height="48" rx="12" fill="#1ECE83"/>
<g clip-path="url(#clip1_2225_25793)">
<path d="M-6 0H67V47.999H-6V0Z" fill="#D80027"/>
<path d="M-6 33.3906H67V47.9988H-6V33.3906Z" fill="#6DA544"/>
<path d="M-6 0H67V14.6974H-6V0Z" fill="#338AF3"/>
<path d="M-6 17.6543H67V30.2622H-6V17.6543Z" fill="white"/>
<path d="M-6 0H67V14.6974H-6V0Z" fill="#338AF3"/>
<path d="M9.47975 7.34796C9.47975 5.10021 11.0815 3.22216 13.2204 2.76161C12.8853 2.68919 12.5433 2.65256 12.2003 2.65234C9.57085 2.65234 7.43945 4.75455 7.43945 7.34796C7.43945 9.94137 9.57085 12.0436 12.2003 12.0436C12.5507 12.0436 12.8918 12.0052 13.2204 11.9343C11.0815 11.4738 9.47975 9.59571 9.47975 7.34796ZM16.0341 9.48223L16.3564 10.4606H17.3994L16.5556 11.0654L16.878 12.0436L16.0341 11.4389L15.1903 12.0436L15.5127 11.0654L14.6689 10.4606H15.7118L16.0341 9.48223ZM19.363 9.48223L19.6852 10.4606H20.7282L19.8844 11.0654L20.2068 12.0436L19.363 11.4389L18.5192 12.0436L18.8414 11.0654L17.9978 10.4606H19.0406L19.363 9.48223ZM22.6917 9.48223L23.014 10.4606H24.0569L23.2133 11.0654L23.5355 12.0436L22.6917 11.4389L21.848 12.0436L22.1702 11.0654L21.3264 10.4606H22.3694L22.6917 9.48223ZM26.0205 9.48223L26.343 10.4606H27.386L26.5421 11.0654L26.8644 12.0436L26.0205 11.4389L25.1767 12.0436L25.4993 11.0654L24.6553 10.4606H25.6982L26.0205 9.48223ZM29.3494 9.48223L29.6717 10.4606H30.7146L29.8708 11.0654L30.1932 12.0436L29.3494 11.4389L28.5057 12.0436L28.8279 11.0654L27.9842 10.4606H29.0271L29.3494 9.48223ZM19.363 6.06728L19.6852 7.04547H20.7282L19.8844 7.65016L20.2068 8.62849L19.363 8.02394L18.5192 8.62849L18.8414 7.65016L17.9978 7.04547H19.0406L19.363 6.06728ZM22.6917 6.06728L23.014 7.04547H24.0569L23.2133 7.65016L23.5355 8.62849L22.6917 8.02394L21.848 8.62849L22.1702 7.65016L21.3264 7.04547H22.3694L22.6917 6.06728ZM26.0205 6.06728L26.343 7.04547H27.386L26.5421 7.65016L26.8644 8.62849L26.0205 8.02394L25.1767 8.62849L25.4993 7.65016L24.6553 7.04547H25.6982L26.0205 6.06728ZM29.3494 6.06728L29.6717 7.04547H30.7146L29.8708 7.65016L30.1932 8.62849L29.3494 8.02394L28.5057 8.62849L28.8279 7.65016L27.9842 7.04547H29.0271L29.3494 6.06728ZM22.6917 2.65234L23.014 3.63053H24.0569L23.2133 4.23522L23.5355 5.21355L22.6917 4.60886L21.848 5.21355L22.1702 4.23522L21.3264 3.63053H22.3694L22.6917 2.65234ZM26.0205 2.65234L26.343 3.63053H27.386L26.5421 4.23522L26.8644 5.21355L26.0205 4.60886L25.1767 5.21355L25.4993 4.23522L24.6553 3.63053H25.6982L26.0205 2.65234ZM29.3494 2.65234L29.6717 3.63053H30.7146L29.8708 4.23522L30.1932 5.21355L29.3494 4.60886L28.5057 5.21355L28.8279 4.23522L27.9842 3.63053H29.0271L29.3494 2.65234Z" fill="white"/>
</g>
</g>
<defs>
<clipPath id="clip0_2225_25793">
<rect width="60" height="48" rx="12" fill="white"/>
</clipPath>
<clipPath id="clip1_2225_25793">
<rect width="73" height="48" fill="white" transform="translate(-6)"/>
</clipPath>
</defs>
</svg>
