<svg width="182" height="120" viewBox="0 0 182 120" fill="none" xmlns="http://www.w3.org/2000/svg">
<g opacity="0.9" filter="url(#filter0_d_1527_36409)">
<path d="M21.4304 18.8908L21.1011 23.2782C21.0929 23.3788 21.0585 23.474 21.0024 23.5511C20.9462 23.6283 20.8711 23.6836 20.7871 23.7098C20.7031 23.7359 20.6141 23.7316 20.5323 23.6973C20.4505 23.6631 20.3796 23.6006 20.3292 23.5182L18.1558 19.909L14.3757 19.5264C14.2891 19.5169 14.207 19.477 14.1406 19.4118C14.0741 19.3467 14.0264 19.2594 14.0039 19.1619C13.9814 19.0644 13.9851 18.9612 14.0146 18.8662C14.0441 18.7712 14.0979 18.689 14.1688 18.6305L17.2782 16.1081L17.6075 11.7207C17.6156 11.6202 17.6501 11.5249 17.7062 11.4478C17.7623 11.3706 17.8374 11.3153 17.9215 11.2892C18.0055 11.263 18.0944 11.2674 18.1763 11.3016C18.2581 11.3359 18.329 11.3983 18.3793 11.4807L20.5548 15.0892L24.3349 15.4719C24.4215 15.4813 24.5036 15.5213 24.5701 15.5865C24.6365 15.6516 24.6842 15.7388 24.7067 15.8364C24.7293 15.9339 24.7255 16.0371 24.696 16.1321C24.6665 16.2271 24.6127 16.3093 24.5418 16.3678L21.4304 18.8908Z" fill="white"/>
</g>
<g filter="url(#filter1_d_1527_36409)">
<path d="M171.58 29.6429L170.513 33.0504C170.488 33.1283 170.443 33.1955 170.384 33.243C170.326 33.2905 170.256 33.3159 170.184 33.3159C170.112 33.3159 170.042 33.2905 169.984 33.243C169.925 33.1955 169.88 33.1283 169.855 33.0504L168.789 29.6429L165.854 28.4039C165.787 28.375 165.729 28.3229 165.688 28.2547C165.647 28.1864 165.625 28.1053 165.625 28.0222C165.625 27.939 165.647 27.8579 165.688 27.7896C165.729 27.7214 165.787 27.6693 165.854 27.6404L168.789 26.4034L169.857 22.996C169.882 22.9181 169.927 22.8508 169.985 22.8034C170.044 22.7559 170.114 22.7305 170.186 22.7305C170.257 22.7305 170.327 22.7559 170.386 22.8034C170.445 22.8508 170.49 22.9181 170.515 22.996L171.582 26.4034L174.518 27.6424C174.585 27.6714 174.643 27.7234 174.684 27.7917C174.725 27.8599 174.746 27.9411 174.746 28.0242C174.746 28.1073 174.725 28.1885 174.684 28.2567C174.643 28.325 174.585 28.377 174.518 28.406L171.58 29.6429Z" fill="white"/>
</g>
<g opacity="0.7" filter="url(#filter2_d_1527_36409)">
<path d="M125.934 111.453L126.072 113.292C126.075 113.334 126.089 113.374 126.113 113.406C126.136 113.438 126.168 113.462 126.203 113.473C126.238 113.484 126.276 113.482 126.31 113.467C126.344 113.453 126.374 113.427 126.395 113.392L127.306 111.88L128.89 111.719C128.926 111.716 128.961 111.699 128.988 111.671C129.016 111.644 129.036 111.608 129.046 111.567C129.055 111.526 129.054 111.483 129.041 111.443C129.029 111.403 129.006 111.369 128.977 111.344L127.674 110.287L127.536 108.448C127.532 108.406 127.518 108.366 127.494 108.334C127.471 108.302 127.439 108.278 127.404 108.268C127.369 108.257 127.332 108.258 127.297 108.273C127.263 108.287 127.233 108.313 127.212 108.348L126.3 109.86L124.716 110.02C124.68 110.024 124.646 110.041 124.618 110.068C124.59 110.096 124.57 110.132 124.56 110.173C124.551 110.214 124.553 110.257 124.565 110.297C124.577 110.337 124.6 110.371 124.63 110.396L125.934 111.453Z" fill="white"/>
</g>
<g opacity="0.5" filter="url(#filter3_d_1527_36409)">
<circle cx="40.2046" cy="73.9253" r="1.14019" fill="white"/>
</g>
<g opacity="0.2" filter="url(#filter4_d_1527_36409)">
<circle cx="11.1287" cy="89.3181" r="0.570093" fill="white"/>
</g>
<g filter="url(#filter5_d_1527_36409)">
<circle cx="25.9529" cy="44.8513" r="0.570093" fill="white"/>
</g>
<g opacity="0.6" filter="url(#filter6_d_1527_36409)">
<circle cx="81.822" cy="79.0584" r="0.570093" fill="white"/>
</g>
<g filter="url(#filter7_d_1527_36409)">
<circle cx="89.232" cy="10.0757" r="1.14019" fill="white"/>
</g>
<g opacity="0.5" filter="url(#filter8_d_1527_36409)">
<circle cx="7.71028" cy="56.2532" r="1.71028" fill="white"/>
</g>
<g opacity="0.8" filter="url(#filter9_d_1527_36409)">
<circle cx="57.8782" cy="109.843" r="1.71028" fill="white"/>
</g>
<g opacity="0.5" filter="url(#filter10_d_1527_36409)">
<circle cx="117.167" cy="-8.73938" r="2.85046" fill="white"/>
</g>
<g opacity="0.2" filter="url(#filter11_d_1527_36409)">
<circle cx="143.628" cy="51.2941" r="1.3996" fill="white"/>
</g>
<defs>
<filter id="filter0_d_1527_36409" x="5.98926" y="3.27246" width="26.7324" height="28.4541" filterUnits="userSpaceOnUse" color-interpolation-filters="sRGB">
<feFlood flood-opacity="0" result="BackgroundImageFix"/>
<feColorMatrix in="SourceAlpha" type="matrix" values="0 0 0 0 0 0 0 0 0 0 0 0 0 0 0 0 0 0 127 0" result="hardAlpha"/>
<feOffset/>
<feGaussianBlur stdDeviation="4"/>
<feComposite in2="hardAlpha" operator="out"/>
<feColorMatrix type="matrix" values="0 0 0 0 1 0 0 0 0 1 0 0 0 0 1 0 0 0 0.6 0"/>
<feBlend mode="normal" in2="BackgroundImageFix" result="effect1_dropShadow_1527_36409"/>
<feBlend mode="normal" in="SourceGraphic" in2="effect1_dropShadow_1527_36409" result="shape"/>
</filter>
<filter id="filter1_d_1527_36409" x="157.625" y="14.7305" width="25.1211" height="26.585" filterUnits="userSpaceOnUse" color-interpolation-filters="sRGB">
<feFlood flood-opacity="0" result="BackgroundImageFix"/>
<feColorMatrix in="SourceAlpha" type="matrix" values="0 0 0 0 0 0 0 0 0 0 0 0 0 0 0 0 0 0 127 0" result="hardAlpha"/>
<feOffset/>
<feGaussianBlur stdDeviation="4"/>
<feComposite in2="hardAlpha" operator="out"/>
<feColorMatrix type="matrix" values="0 0 0 0 1 0 0 0 0 1 0 0 0 0 1 0 0 0 0.6 0"/>
<feBlend mode="normal" in2="BackgroundImageFix" result="effect1_dropShadow_1527_36409"/>
<feBlend mode="normal" in="SourceGraphic" in2="effect1_dropShadow_1527_36409" result="shape"/>
</filter>
<filter id="filter2_d_1527_36409" x="118.555" y="102.261" width="16.4971" height="17.2188" filterUnits="userSpaceOnUse" color-interpolation-filters="sRGB">
<feFlood flood-opacity="0" result="BackgroundImageFix"/>
<feColorMatrix in="SourceAlpha" type="matrix" values="0 0 0 0 0 0 0 0 0 0 0 0 0 0 0 0 0 0 127 0" result="hardAlpha"/>
<feOffset/>
<feGaussianBlur stdDeviation="3"/>
<feComposite in2="hardAlpha" operator="out"/>
<feColorMatrix type="matrix" values="0 0 0 0 1 0 0 0 0 1 0 0 0 0 1 0 0 0 1 0"/>
<feBlend mode="normal" in2="BackgroundImageFix" result="effect1_dropShadow_1527_36409"/>
<feBlend mode="normal" in="SourceGraphic" in2="effect1_dropShadow_1527_36409" result="shape"/>
</filter>
<filter id="filter3_d_1527_36409" x="33.0645" y="66.7852" width="14.2803" height="14.2803" filterUnits="userSpaceOnUse" color-interpolation-filters="sRGB">
<feFlood flood-opacity="0" result="BackgroundImageFix"/>
<feColorMatrix in="SourceAlpha" type="matrix" values="0 0 0 0 0 0 0 0 0 0 0 0 0 0 0 0 0 0 127 0" result="hardAlpha"/>
<feOffset/>
<feGaussianBlur stdDeviation="3"/>
<feComposite in2="hardAlpha" operator="out"/>
<feColorMatrix type="matrix" values="0 0 0 0 1 0 0 0 0 1 0 0 0 0 1 0 0 0 1 0"/>
<feBlend mode="normal" in2="BackgroundImageFix" result="effect1_dropShadow_1527_36409"/>
<feBlend mode="normal" in="SourceGraphic" in2="effect1_dropShadow_1527_36409" result="shape"/>
</filter>
<filter id="filter4_d_1527_36409" x="4.55859" y="82.748" width="13.1406" height="13.1406" filterUnits="userSpaceOnUse" color-interpolation-filters="sRGB">
<feFlood flood-opacity="0" result="BackgroundImageFix"/>
<feColorMatrix in="SourceAlpha" type="matrix" values="0 0 0 0 0 0 0 0 0 0 0 0 0 0 0 0 0 0 127 0" result="hardAlpha"/>
<feOffset/>
<feGaussianBlur stdDeviation="3"/>
<feComposite in2="hardAlpha" operator="out"/>
<feColorMatrix type="matrix" values="0 0 0 0 1 0 0 0 0 1 0 0 0 0 1 0 0 0 1 0"/>
<feBlend mode="normal" in2="BackgroundImageFix" result="effect1_dropShadow_1527_36409"/>
<feBlend mode="normal" in="SourceGraphic" in2="effect1_dropShadow_1527_36409" result="shape"/>
</filter>
<filter id="filter5_d_1527_36409" x="19.3828" y="38.2812" width="13.1406" height="13.1406" filterUnits="userSpaceOnUse" color-interpolation-filters="sRGB">
<feFlood flood-opacity="0" result="BackgroundImageFix"/>
<feColorMatrix in="SourceAlpha" type="matrix" values="0 0 0 0 0 0 0 0 0 0 0 0 0 0 0 0 0 0 127 0" result="hardAlpha"/>
<feOffset/>
<feGaussianBlur stdDeviation="3"/>
<feComposite in2="hardAlpha" operator="out"/>
<feColorMatrix type="matrix" values="0 0 0 0 1 0 0 0 0 1 0 0 0 0 1 0 0 0 1 0"/>
<feBlend mode="normal" in2="BackgroundImageFix" result="effect1_dropShadow_1527_36409"/>
<feBlend mode="normal" in="SourceGraphic" in2="effect1_dropShadow_1527_36409" result="shape"/>
</filter>
<filter id="filter6_d_1527_36409" x="75.252" y="72.4883" width="13.1406" height="13.1406" filterUnits="userSpaceOnUse" color-interpolation-filters="sRGB">
<feFlood flood-opacity="0" result="BackgroundImageFix"/>
<feColorMatrix in="SourceAlpha" type="matrix" values="0 0 0 0 0 0 0 0 0 0 0 0 0 0 0 0 0 0 127 0" result="hardAlpha"/>
<feOffset/>
<feGaussianBlur stdDeviation="3"/>
<feComposite in2="hardAlpha" operator="out"/>
<feColorMatrix type="matrix" values="0 0 0 0 1 0 0 0 0 1 0 0 0 0 1 0 0 0 1 0"/>
<feBlend mode="normal" in2="BackgroundImageFix" result="effect1_dropShadow_1527_36409"/>
<feBlend mode="normal" in="SourceGraphic" in2="effect1_dropShadow_1527_36409" result="shape"/>
</filter>
<filter id="filter7_d_1527_36409" x="82.0918" y="2.93555" width="14.2803" height="14.2803" filterUnits="userSpaceOnUse" color-interpolation-filters="sRGB">
<feFlood flood-opacity="0" result="BackgroundImageFix"/>
<feColorMatrix in="SourceAlpha" type="matrix" values="0 0 0 0 0 0 0 0 0 0 0 0 0 0 0 0 0 0 127 0" result="hardAlpha"/>
<feOffset/>
<feGaussianBlur stdDeviation="3"/>
<feComposite in2="hardAlpha" operator="out"/>
<feColorMatrix type="matrix" values="0 0 0 0 1 0 0 0 0 1 0 0 0 0 1 0 0 0 1 0"/>
<feBlend mode="normal" in2="BackgroundImageFix" result="effect1_dropShadow_1527_36409"/>
<feBlend mode="normal" in="SourceGraphic" in2="effect1_dropShadow_1527_36409" result="shape"/>
</filter>
<filter id="filter8_d_1527_36409" x="0" y="48.543" width="15.4209" height="15.4209" filterUnits="userSpaceOnUse" color-interpolation-filters="sRGB">
<feFlood flood-opacity="0" result="BackgroundImageFix"/>
<feColorMatrix in="SourceAlpha" type="matrix" values="0 0 0 0 0 0 0 0 0 0 0 0 0 0 0 0 0 0 127 0" result="hardAlpha"/>
<feOffset/>
<feGaussianBlur stdDeviation="3"/>
<feComposite in2="hardAlpha" operator="out"/>
<feColorMatrix type="matrix" values="0 0 0 0 1 0 0 0 0 1 0 0 0 0 1 0 0 0 1 0"/>
<feBlend mode="normal" in2="BackgroundImageFix" result="effect1_dropShadow_1527_36409"/>
<feBlend mode="normal" in="SourceGraphic" in2="effect1_dropShadow_1527_36409" result="shape"/>
</filter>
<filter id="filter9_d_1527_36409" x="50.168" y="102.133" width="15.4209" height="15.4209" filterUnits="userSpaceOnUse" color-interpolation-filters="sRGB">
<feFlood flood-opacity="0" result="BackgroundImageFix"/>
<feColorMatrix in="SourceAlpha" type="matrix" values="0 0 0 0 0 0 0 0 0 0 0 0 0 0 0 0 0 0 127 0" result="hardAlpha"/>
<feOffset/>
<feGaussianBlur stdDeviation="3"/>
<feComposite in2="hardAlpha" operator="out"/>
<feColorMatrix type="matrix" values="0 0 0 0 1 0 0 0 0 1 0 0 0 0 1 0 0 0 1 0"/>
<feBlend mode="normal" in2="BackgroundImageFix" result="effect1_dropShadow_1527_36409"/>
<feBlend mode="normal" in="SourceGraphic" in2="effect1_dropShadow_1527_36409" result="shape"/>
</filter>
<filter id="filter10_d_1527_36409" x="108.316" y="-17.5898" width="17.7012" height="17.7012" filterUnits="userSpaceOnUse" color-interpolation-filters="sRGB">
<feFlood flood-opacity="0" result="BackgroundImageFix"/>
<feColorMatrix in="SourceAlpha" type="matrix" values="0 0 0 0 0 0 0 0 0 0 0 0 0 0 0 0 0 0 127 0" result="hardAlpha"/>
<feOffset/>
<feGaussianBlur stdDeviation="3"/>
<feComposite in2="hardAlpha" operator="out"/>
<feColorMatrix type="matrix" values="0 0 0 0 1 0 0 0 0 1 0 0 0 0 1 0 0 0 1 0"/>
<feBlend mode="normal" in2="BackgroundImageFix" result="effect1_dropShadow_1527_36409"/>
<feBlend mode="normal" in="SourceGraphic" in2="effect1_dropShadow_1527_36409" result="shape"/>
</filter>
<filter id="filter11_d_1527_36409" x="136.229" y="43.8945" width="14.7988" height="14.7988" filterUnits="userSpaceOnUse" color-interpolation-filters="sRGB">
<feFlood flood-opacity="0" result="BackgroundImageFix"/>
<feColorMatrix in="SourceAlpha" type="matrix" values="0 0 0 0 0 0 0 0 0 0 0 0 0 0 0 0 0 0 127 0" result="hardAlpha"/>
<feOffset/>
<feGaussianBlur stdDeviation="3"/>
<feComposite in2="hardAlpha" operator="out"/>
<feColorMatrix type="matrix" values="0 0 0 0 1 0 0 0 0 1 0 0 0 0 1 0 0 0 1 0"/>
<feBlend mode="normal" in2="BackgroundImageFix" result="effect1_dropShadow_1527_36409"/>
<feBlend mode="normal" in="SourceGraphic" in2="effect1_dropShadow_1527_36409" result="shape"/>
</filter>
</defs>
</svg>
